<?xml version="1.0" encoding="UTF-8" standalone="no"?>
<svg xmlns:dc="http://purl.org/dc/elements/1.1/" xmlns:cc="http://creativecommons.org/ns#" xmlns:rdf="http://www.w3.org/1999/02/22-rdf-syntax-ns#" xmlns:svg="http://www.w3.org/2000/svg" xmlns="http://www.w3.org/2000/svg" xmlns:sodipodi="http://sodipodi.sourceforge.net/DTD/sodipodi-0.dtd" xmlns:inkscape="http://www.inkscape.org/namespaces/inkscape" width="64" height="64" viewBox="0 0 63.999999 63.999999" id="svg2" version="1.1" inkscape:version="0.91 r13725" sodipodi:docname="3.svg">
  <defs id="defs4"/>
  <sodipodi:namedview id="base" pagecolor="#ffffff" bordercolor="#666666" borderopacity="1.0" inkscape:pageopacity="0.0" inkscape:pageshadow="2" inkscape:zoom="7.9195959" inkscape:cx="23.11071" inkscape:cy="22.281347" inkscape:document-units="px" inkscape:current-layer="layer1" showgrid="false" units="px" inkscape:window-width="1366" inkscape:window-height="705" inkscape:window-x="-8" inkscape:window-y="-8" inkscape:window-maximized="1"/>
  
  <g inkscape:label="Layer 1" inkscape:groupmode="layer" id="layer1" transform="translate(0,-988.3622)">
    <g transform="matrix(0.67027619,0,0,0.67027619,-220.55655,242.98018)" id="g5626">
      <ellipse style="opacity:1;fill:#e8edf1;fill-opacity:1;fill-rule:nonzero;stroke:none;stroke-width:1;stroke-linecap:round;stroke-linejoin:round;stroke-miterlimit:4;stroke-dasharray:none;stroke-dashoffset:0;stroke-opacity:1" id="ellipse6440" cx="374.51605" cy="1197.7925" rx="38.8279" ry="9.2773619"/>
      <path style="color:#000000;font-style:normal;font-variant:normal;font-weight:normal;font-stretch:normal;font-size:medium;line-height:normal;font-family:sans-serif;text-indent:0;text-align:start;text-decoration:none;text-decoration-line:none;text-decoration-style:solid;text-decoration-color:#000000;letter-spacing:normal;word-spacing:normal;text-transform:none;direction:ltr;block-progression:tb;writing-mode:lr-tb;baseline-shift:baseline;text-anchor:start;white-space:normal;clip-rule:nonzero;display:inline;overflow:visible;visibility:visible;opacity:1;isolation:auto;mix-blend-mode:normal;color-interpolation:sRGB;color-interpolation-filters:linearRGB;solid-color:#000000;solid-opacity:1;fill:#33552b;fill-opacity:1;fill-rule:evenodd;stroke:#000000;stroke-width:1;stroke-linecap:round;stroke-linejoin:round;stroke-miterlimit:4;stroke-dasharray:none;stroke-dashoffset:0;stroke-opacity:1;color-rendering:auto;image-rendering:auto;shape-rendering:auto;text-rendering:auto;enable-background:accumulate" d="m 377.18445,1127.0084 c 0.26724,0.6851 0.47859,1.3899 0.62982,2.1071 0.6049,2.8685 0.23885,5.8918 -1.03631,8.5675 -1.27512,2.6757 -3.4395,4.961 -6.13279,6.4747 -2.94781,1.6567 -6.25258,2.301 -9.29481,3.1119 -3.0318,0.8082 -5.98455,1.8752 -7.94318,3.8484 -1.28817,1.2977 -2.12924,2.9975 -2.3502,4.7504 -0.22098,1.7529 0.17481,3.5852 1.1059,5.1205 0.93108,1.5352 2.41148,2.7968 4.13721,3.525 1.72571,0.7283 3.18308,1.235 5.04105,0.8767 0.24811,0.5527 0.44387,1.1153 1.17936,1.5746 -2.29865,0.4433 -4.94678,0.2095 -7.08183,-0.6915 -2.13507,-0.901 -3.93276,-2.4326 -5.0846,-4.3321 -1.15195,-1.8994 -1.63274,-4.125 -1.35937,-6.2937 0.27337,-2.1687 1.29505,-4.2337 2.88879,-5.8392 2.40216,-2.42 5.75457,-3.5577 8.89853,-4.3957 3.13352,-0.8353 6.23877,-1.4736 8.79192,-2.9085 2.31987,-1.3038 4.20751,-3.296 5.30585,-5.6007 1.09837,-2.3048 1.4173,-4.9418 0.89626,-7.4126 -0.52103,-2.4708 -1.88582,-4.7966 -3.8375,-6.5384 -1.95169,-1.7419 -4.50678,-2.9145 -7.18214,-3.2964 l 0.31915,-1.9099 c 3.106,0.4434 6.03612,1.788 8.30196,3.8103 1.69938,1.5167 3.00516,3.3964 3.80693,5.4516 z" id="path6444" inkscape:connector-curvature="0" sodipodi:nodetypes="cssssssssccsssssssssccsc"/>
      <path style="opacity:1;fill:#33552b;fill-opacity:1;fill-rule:nonzero;stroke:#000000;stroke-width:1;stroke-linecap:round;stroke-linejoin:round;stroke-miterlimit:4;stroke-dasharray:none;stroke-dashoffset:0;stroke-opacity:1" d="m 357.37509,1117.7966 c 3.77663,0.1052 4.19402,1.8418 5.46202,2.62 1.268,0.7782 2.97468,0.4537 3.81198,-0.7249 0.83728,-1.1785 0.48812,-2.7647 -0.77987,-3.543 -1.26801,-0.7782 -6.42562,-1.9207 -8.49413,1.6479 z" id="path6446" inkscape:connector-curvature="0" sodipodi:nodetypes="csssc"/>
      <g style="stroke-width:1.8827641;stroke-miterlimit:4;stroke-dasharray:none" id="g6448" transform="matrix(0.55092707,0,0,0.51205201,137.07351,705.54553)">
        <path style="fill:#d7ede6;fill-opacity:1;fill-rule:evenodd;stroke:#000000;stroke-width:1.8827641;stroke-linecap:butt;stroke-linejoin:miter;stroke-miterlimit:4;stroke-dasharray:none;stroke-opacity:1" d="m 421.21201,953.35159 c -1.107,-0.59859 -2.8125,4.6875 -2.8125,4.6875 0,0 5.19855,-1.4426 4.8125,-2.5625 -0.30711,-0.8909 -0.98591,-1.57665 -2,-2.125 z" id="path6450" inkscape:connector-curvature="0" sodipodi:nodetypes="scss"/>
        <path style="fill:#d7ede6;fill-opacity:1;fill-rule:evenodd;stroke:#000000;stroke-width:1.8827641;stroke-linecap:butt;stroke-linejoin:miter;stroke-miterlimit:4;stroke-dasharray:none;stroke-opacity:1" d="m 393.70247,953.86378 c -1.05658,-0.50886 -2.6844,3.98477 -2.6844,3.98477 0,0 4.96176,-1.22634 4.5933,-2.17835 -0.29312,-0.75734 -0.94101,-1.34028 -1.9089,-1.80642 z" id="path6452" inkscape:connector-curvature="0" sodipodi:nodetypes="scss"/>
        <path sodipodi:nodetypes="cccccccccccccccccccccccccccccccccccsssssscccccssssssccccccccccc" inkscape:connector-curvature="0" id="path6454" d="m 381.98897,909.23827 2.20971,-5.04089 0.89769,-4.28131 1.24296,-4.76469 2.27876,-6.62912 1.24297,-1.86444 6.14575,2.27876 5.52427,3.38361 4.90279,0 9.87464,0.20716 5.59332,0.96675 2.15812,0.77141 4.90723,-2.31934 4.29394,-1.52494 1.0358,-0.44885 1.6918,3.93604 0.8977,3.03835 1.79539,5.17901 0.75958,6.00764 5.24806,2.76214 5.933,3.4383 7.42188,7.03126 6.93359,10.15625 3.61328,8.78906 0.73243,4.83398 -0.48828,5.66406 -2.14844,6.83594 -3.61328,3.22266 -5.71289,1.46484 -4.6875,-1.07422 -3.32032,-2.49023 -2.14843,-3.56445 -0.39063,-1.07422 -2.83203,-0.39063 -0.14258,0.32813 -3.15793,3.79213 c -1.10324,1.3248 -1.54431,2.10678 -2.98544,2.97081 -1.21626,0.72921 -2.30774,1.72649 -3.64878,2.18762 -1.10618,0.38037 -3.81889,0.94869 -4.98305,0.83438 -2.11556,-0.20772 -4.31058,-0.32796 -5.94687,-1.6849 -0.58684,-0.48665 -0.90355,-1.26724 -1.10486,-2.00255 -0.40135,-1.46593 -0.2486,-4.86689 -0.2486,-4.86689 l -0.69053,0.8977 c -1.79062,-1.80541 -3.24005,-3.75177 -4.48847,-5.9386 l -1.38107,-1.1739 -2.69308,-0.75959 c 0,0 -0.71539,2.05417 -1.17391,3.03835 -0.98758,2.11978 -1.7799,4.44372 -3.38361,6.14575 -1.21309,1.28745 -2.79906,2.3068 -4.48848,2.83119 -1.122,0.34826 -2.37253,0.38213 -3.52172,0.13811 -1.68162,-0.35707 -3.30209,-1.18283 -4.62658,-2.27876 -1.44356,-1.19446 -2.50316,-2.83458 -3.38361,-4.48848 -0.96119,-1.80557 -2.00255,-5.80048 -2.00255,-5.80048 l -0.96675,-6.28386 0.13811,-5.38616 -4.83644,-3.88672 -4.49219,-4.54101 -3.6621,-4.05274 0.0976,-1.85547 1.5625,-2.09961 1.21426,-2.00171 1.1739,-3.55625 z" style="fill:#7fc8ad;fill-opacity:1;fill-rule:evenodd;stroke:none;stroke-width:1.8827641;stroke-linecap:butt;stroke-linejoin:miter;stroke-miterlimit:4;stroke-dasharray:none;stroke-opacity:1"/>
        <path style="fill:#d8ede6;fill-opacity:1;fill-rule:evenodd;stroke:none;stroke-width:1.8827641;stroke-linecap:butt;stroke-linejoin:miter;stroke-miterlimit:4;stroke-dasharray:none;stroke-opacity:1" d="m 389.41173,887.27964 -3.25424,9.06914 -1.11397,3.23933 c 0,0 -0.002,1.49318 0.60173,1.93081 0.86643,0.62827 2.53126,0.93651 3.42831,0.33945 1.40288,-0.9337 0.83809,-2.98307 0.53191,-4.45324 -0.86882,-4.17224 -0.14611,-6.85499 -0.14611,-6.85499 l 0.38194,-2.99848" id="path6456" inkscape:connector-curvature="0" sodipodi:nodetypes="cccssscc" inkscape:transform-center-x="0.46292039" inkscape:transform-center-y="-0.519078"/>
        <path inkscape:connector-curvature="0" id="path6458" d="m 420.46201,912.83198 -1.9375,2.25 -2,4.125 -2.125,5.5625 2.625,0.875 3.5625,0.4375 1.8125,0.0625 0.0625,-1.0625 -1.1875,-2.5 -1.0625,-4.8125 0.1875,-3.5625 z" style="fill:#ffffff;fill-rule:evenodd;stroke:none;stroke-width:1.8827641;stroke-linecap:butt;stroke-linejoin:miter;stroke-miterlimit:4;stroke-dasharray:none;stroke-opacity:1"/>
        <path inkscape:connector-curvature="0" id="path6460" d="m 426.14951,908.26948 -3.0625,2 -2.125,2.0625 -0.625,2.3125 -0.0625,4.1875 0.625,3 1.375,3.25 0.5,1 5.0625,-0.8125 4.75,-0.9375 0.6875,-1.75 -0.625,-3.625 -1,-3.8125 -1.875,-3.5 -1.6875,-1.875 z" style="fill:#be3e57;fill-opacity:1;fill-rule:evenodd;stroke:none;stroke-width:1.8827641;stroke-linecap:butt;stroke-linejoin:miter;stroke-miterlimit:4;stroke-dasharray:none;stroke-opacity:1"/>
        <path inkscape:connector-curvature="0" id="path6462" d="m 388.17952,921.9231 -1.01646,-0.44195 -0.13259,-3.31456 1.01647,-7.38043 1.37002,-3.31456 1.67938,-2.38649 0.48613,-1.06066 1.28163,2.51907 0.7955,2.43068 0.57452,5.52427 -0.39774,5.3033 -1.28164,2.87263 -3.62392,-0.39775 z" style="fill:#c03d55;fill-opacity:1;fill-rule:evenodd;stroke:none;stroke-width:1.8827641;stroke-linecap:butt;stroke-linejoin:miter;stroke-miterlimit:4;stroke-dasharray:none;stroke-opacity:1"/>
        <path inkscape:transform-center-y="0.37874468" inkscape:transform-center-x="-0.43094775" sodipodi:nodetypes="cccssscc" inkscape:connector-curvature="0" id="path6464" d="m 434.2326,890.71271 -9.04354,4.12685 -3.20239,1.50587 c 0,0 -1.18226,1.03051 -1.18144,1.73008 9.4e-4,1.00406 0.71381,2.31208 1.70156,2.48951 1.54469,0.27748 2.84114,-1.51024 3.82809,-2.72759 2.80089,-3.45472 5.33819,-4.83329 5.33819,-4.83329 l 2.59122,-1.8209" style="fill:#d8ede6;fill-opacity:1;fill-rule:evenodd;stroke:none;stroke-width:1.8827641;stroke-linecap:butt;stroke-linejoin:miter;stroke-miterlimit:4;stroke-dasharray:none;stroke-opacity:1"/>
        <path sodipodi:nodetypes="ccssssssc" inkscape:connector-curvature="0" id="path6466" d="m 429.07738,963.64165 17.78858,-26.24138 c 0,0 -0.0828,0.22234 0.27665,2.43719 0.34098,2.10119 -0.11245,4.27671 -0.53033,6.36396 -0.37679,1.88203 -0.95836,3.7397 -1.76777,5.48007 -0.70328,1.51217 -1.62866,2.92555 -2.65165,4.24264 -1.09933,1.41538 -2.34569,2.72972 -3.71231,3.88909 -1.19647,1.01502 -2.40067,2.15523 -3.88908,2.65165 -1.23104,0.41058 -5.51409,1.17678 -5.51409,1.17678 z" style="fill:#4cb08b;fill-opacity:1;fill-rule:evenodd;stroke:none;stroke-width:1.8827641;stroke-linecap:butt;stroke-linejoin:miter;stroke-miterlimit:4;stroke-dasharray:none;stroke-opacity:1"/>
        <path sodipodi:nodetypes="ccccccccsccc" inkscape:connector-curvature="0" id="path6468" d="m 443.16295,910.19317 12.01529,7.45776 9.52937,12.29152 4.69563,10.2199 -0.27621,10.2199 -2.34782,8.14831 -4.28131,3.17645 -6.0767,0.55243 c 0,0 -2.66404,-0.60029 -3.64012,-1.51832 -0.40078,-0.37694 -1.29292,-1.02607 -1.29292,-1.02607 22.21341,-8.40895 5.84665,-40.26601 -8.32521,-49.52187 z" style="fill:#4cb08b;fill-opacity:1;fill-rule:evenodd;stroke:none;stroke-width:1.8827641;stroke-linecap:butt;stroke-linejoin:miter;stroke-miterlimit:4;stroke-dasharray:none;stroke-opacity:1"/>
        <path inkscape:connector-curvature="0" id="path6470" d="m 412.22687,892.07139 3.52172,-5.66238 4.0051,-3.10739 5.45521,-1.79539 3.93605,-0.13811 2.62403,-0.41432 5.66238,0.34527 3.79793,0.0691 2.14066,0 3.1074,-0.34527 2.90024,-0.69053 1.72634,-1.24296 2.62403,-1.58823 1.24296,-1.24296 1.31201,1.72633 2.07161,-1.58822 1.0358,2.0716 2.00254,-1.51918 0.75959,1.72634 0.20716,1.51917 1.38107,-0.55242 0.94861,1.36497 1.3916,-0.24414 0.3418,0.83008 -0.31738,1.78223 -0.6836,2.70996 0.11436,2.81005 0.15537,1.53644 0.48711,2.34296 0.70801,1.80664 1.0498,2.61231 1.58692,2.70996 1.80664,2.88086 1.46484,2.83203 0.83008,2.44141 0.92773,2.97851 0,2.73438 -0.0976,3.46679 -0.83008,3.41797 -2.44141,5.17578 -2.09961,2.63672 -2.58789,2.49024 -1.2207,0.53711 -3.41797,-5.66408 -2.49023,-3.22265 -2.49024,-2.88086 -2.09961,-1.9043 -2.29492,-1.70898 -2.29492,-2.09961 -3.41797,-2.00196 -2.05078,-1.2207 -2.39258,-1.2207 -1.36719,-0.58594 -1.12304,-0.39063 -1.02539,-5.17578 -0.58594,-2.05078 -0.24414,-1.66015 -0.20371,-1.35268 -1.99356,-5.58092 -0.83008,-2.49023 -0.55997,-0.35337 -2.41687,1.17391 -1.51918,0.62148 -2.83119,1.0358 -1.79538,1.0358 -1.51918,0.62148 -2.20971,-0.48337 -2.14065,-0.69053 -3.17646,-0.27622 -2.90024,-0.48337 z" style="fill:#7aa659;fill-opacity:1;fill-rule:evenodd;stroke:none;stroke-width:1.8827641;stroke-linecap:butt;stroke-linejoin:miter;stroke-miterlimit:4;stroke-dasharray:none;stroke-opacity:1"/>
        <path sodipodi:nodetypes="cssscssssssccccc" inkscape:connector-curvature="0" id="path6472" d="m 435.68855,892.16636 c 0,0 5.40137,-0.69046 8.04334,-1.32583 2.07461,-0.49892 4.28473,-0.8211 6.09879,-1.94454 1.18683,-0.735 2.15014,-1.83859 2.91682,-3.0052 0.50784,-0.77275 1.06066,-2.56327 1.06066,-2.56327 0,0 -3.22618,0.73336 -4.86136,0.97227 -1.259,0.18394 -2.5297,0.29457 -3.8007,0.35356 -1.41269,0.0656 -2.83147,-0.0928 -4.24264,0 -1.57169,0.10334 -3.15595,0.239 -4.68458,0.61872 -1.06759,0.26519 -2.15653,0.57286 -3.09359,1.14905 -0.92352,0.56786 -1.67385,1.3927 -2.38649,2.2097 -0.70922,0.81306 -1.85615,2.65165 -1.85615,2.65165 l -0.26517,1.23744 4.24264,-1.59099 1.67938,-0.88388 z" style="fill:#a9d691;fill-opacity:1;fill-rule:evenodd;stroke:none;stroke-width:1.8827641;stroke-linecap:butt;stroke-linejoin:miter;stroke-miterlimit:4;stroke-dasharray:none;stroke-opacity:1"/>
        <path sodipodi:nodetypes="ccccccsczccc" inkscape:connector-curvature="0" id="path6474" d="m 412.77451,892.26948 2.5,-4.75 4.75,-3.875 6.125,-2.125 5.6875,-0.25 4.3125,0.375 c 0,0 3.57394,0.33721 6.5625,0.0625 1.18814,-0.10921 6.30622,-0.73928 6.30622,-0.73928 0,0 -0.83526,1.93352 -6.1172,2.18436 -5.28194,0.25085 -10.83278,-0.52443 -15.75152,1.36742 -9.73107,5.33744 -8.966,8.58698 -10.875,8 -1.28866,-0.073 -2.48288,0.5637 -3.5,-0.25 z" style="fill:#a9d691;fill-opacity:1;fill-rule:evenodd;stroke:none;stroke-width:1.8827641;stroke-linecap:butt;stroke-linejoin:miter;stroke-miterlimit:4;stroke-dasharray:none;stroke-opacity:1"/>
        <path sodipodi:nodetypes="cssscccccccccccccccccc" inkscape:connector-curvature="0" id="path6476" d="m 464.72412,881.56335 c 0,0 -4.14038,5.24764 -5.17901,8.35546 -1.37722,4.12096 0.54441,8.99125 -1.17391,12.98204 -1.23826,2.87585 -4.56038,6.75982 -7.66492,6.35292 -6.61385,-0.86686 -12.56772,-6.90535 -12.56772,-6.90535 l 1.10485,5.45522 9.66748,5.66238 4.76468,4.1432 5.66238,5.80049 2.9693,4.0051 2.41687,3.45267 4.62658,-3.59078 2.76213,-4.48847 1.58823,-5.17901 0.13811,-4.90279 -1.86445,-7.59587 -3.59077,-6.49102 -1.73852,-3.24698 -1.85547,-5.95703 -0.19531,-4.63867 0.58594,-3.17383 z" style="fill:#4d7f40;fill-opacity:1;fill-rule:evenodd;stroke:none;stroke-width:1.8827641;stroke-linecap:butt;stroke-linejoin:miter;stroke-miterlimit:4;stroke-dasharray:none;stroke-opacity:1"/>
        <path sodipodi:nodetypes="cssc" inkscape:connector-curvature="0" id="path6478" d="m 412.52439,948.74128 c -1.95571,7.19324 -6.74366,11.73736 -11.6811,11.73736 -6.78994,0 -11.67557,-8.81074 -11.67557,-20.44257 0,-1.40461 0.0803,-2.77711 0.23336,-4.10476" style="opacity:1;fill:none;fill-opacity:1;fill-rule:nonzero;stroke:#000000;stroke-width:1.8827641;stroke-linecap:round;stroke-linejoin:round;stroke-miterlimit:4;stroke-dasharray:none;stroke-dashoffset:0;stroke-opacity:1"/>
        <path sodipodi:nodetypes="cssssc" inkscape:connector-curvature="0" id="path6480" d="m 447.15471,937.53399 c 0.99368,4.0726 0.11652,9.70696 -2.71295,15.15334 -4.48836,8.63953 -11.73958,12.36595 -17.20135,10.9331 -2.60239,-0.68271 -4.17627,-0.50906 -4.80186,-2.49291 -1.30223,-4.12952 0.82404,-12.02765 3.85427,-17.86047 1.07101,-2.06155 2.32496,-3.90988 3.68165,-5.49404" style="opacity:1;fill:none;fill-opacity:1;fill-rule:nonzero;stroke:#000000;stroke-width:1.8827641;stroke-linecap:round;stroke-linejoin:round;stroke-miterlimit:4;stroke-dasharray:none;stroke-dashoffset:0;stroke-opacity:1"/>
        <path sodipodi:nodetypes="cssc" inkscape:connector-curvature="0" id="path6482" d="m 467.9933,955.4022 c -1.52636,4.28983 -5.54072,7.35257 -10.25277,7.35257 -6.02567,0 -10.91043,-5.00843 -10.91044,-11.18665 0,-0.90856 0.10564,-1.79182 0.30501,-2.63758" style="opacity:1;fill:none;fill-opacity:1;fill-rule:nonzero;stroke:#000000;stroke-width:1.8827641;stroke-linecap:round;stroke-linejoin:round;stroke-miterlimit:4;stroke-dasharray:none;stroke-dashoffset:0;stroke-opacity:1"/>
        <path sodipodi:nodetypes="csc" inkscape:connector-curvature="0" id="path6484" d="m 468.32674,938.5885 c 0.75075,2.34996 1.29487,4.99797 1.29487,7.60504 0,3.58569 -0.56086,6.78041 -1.93753,9.83516" style="opacity:1;fill:none;fill-opacity:1;fill-rule:nonzero;stroke:#000000;stroke-width:1.8827641;stroke-linecap:round;stroke-linejoin:round;stroke-miterlimit:4;stroke-dasharray:none;stroke-dashoffset:0;stroke-opacity:1"/>
        <path sodipodi:nodetypes="cc" inkscape:connector-curvature="0" id="path6486" d="m 439.51631,908.73958 c 13.52049,5.17022 24.19119,16.32939 28.93736,30.32761" style="opacity:1;fill:none;fill-opacity:1;fill-rule:nonzero;stroke:#000000;stroke-width:1.8827641;stroke-linecap:round;stroke-linejoin:round;stroke-miterlimit:4;stroke-dasharray:none;stroke-dashoffset:0;stroke-opacity:1"/>
        <path sodipodi:nodetypes="csc" inkscape:connector-curvature="0" id="path6488" d="m 397.07757,894.08053 c 3.99539,-1.03583 8.186,-1.587 12.50534,-1.587 5.18289,0 10.18042,0.79358 14.87773,2.26586" style="opacity:1;fill:none;fill-opacity:1;fill-rule:nonzero;stroke:#000000;stroke-width:1.8827641;stroke-linecap:round;stroke-linejoin:round;stroke-miterlimit:4;stroke-dasharray:none;stroke-dashoffset:0;stroke-opacity:1"/>
        <path sodipodi:nodetypes="csczcc" inkscape:connector-curvature="0" id="path6490" d="m 433.97554,935.25359 c -6.31432,4.66463 -16.01203,6.88698 -22.68389,6.88698 -14.16895,0 -26.72432,-6.90859 -34.48131,-17.541 0,0 -0.59113,-0.8168 -0.53617,-1.72239 0.055,-0.90558 0.56755,-1.40178 0.56755,-1.40178 1.57122,-1.41991 2.68251,-3.33924 3.08354,-5.50767" style="opacity:1;fill:none;fill-opacity:1;fill-rule:nonzero;stroke:#000000;stroke-width:1.8827641;stroke-linecap:round;stroke-linejoin:round;stroke-miterlimit:4;stroke-dasharray:none;stroke-dashoffset:0;stroke-opacity:1"/>
        <path sodipodi:nodetypes="cc" inkscape:connector-curvature="0" id="path6492" d="m 380.06308,916.32634 c 1.26277,-5.45443 2.0616,-8.72668 5.09551,-13.22998" style="opacity:1;fill:none;fill-opacity:1;fill-rule:nonzero;stroke:#000000;stroke-width:1.8827641;stroke-linecap:round;stroke-linejoin:round;stroke-miterlimit:4;stroke-dasharray:none;stroke-dashoffset:0;stroke-opacity:1"/>
        <path sodipodi:nodetypes="cc" inkscape:connector-curvature="0" id="path6494" d="m 434.65359,890.16918 c 3.73376,8.94335 5.79586,18.75876 5.79586,29.0558" style="opacity:1;fill:none;fill-opacity:1;fill-rule:nonzero;stroke:#000000;stroke-width:1.8827641;stroke-linecap:round;stroke-linejoin:round;stroke-miterlimit:4;stroke-dasharray:none;stroke-dashoffset:0;stroke-opacity:1"/>
        <path sodipodi:nodetypes="cc" inkscape:connector-curvature="0" id="path6496" d="m 420.57842,896.9785 c 4.47027,-2.73376 9.24711,-5.01538 14.26692,-6.78128" style="opacity:1;fill:none;fill-opacity:1;fill-rule:nonzero;stroke:#000000;stroke-width:1.8827641;stroke-linecap:round;stroke-linejoin:round;stroke-miterlimit:4;stroke-dasharray:none;stroke-dashoffset:0;stroke-opacity:1"/>
        <path sodipodi:nodetypes="cc" inkscape:connector-curvature="0" id="path6498" d="m 389.79452,887.12978 c 4.61206,1.01352 8.85163,3.02091 12.48275,5.78625" style="opacity:1;fill:none;fill-opacity:1;fill-rule:nonzero;stroke:#000000;stroke-width:1.8827641;stroke-linecap:round;stroke-linejoin:round;stroke-miterlimit:4;stroke-dasharray:none;stroke-dashoffset:0;stroke-opacity:1"/>
        <path inkscape:connector-curvature="0" id="path6500" d="m 386.72111,921.56954 -2.34229,-0.79549 -1.5026,-0.92808 0.53033,-3.18198 2.03293,-6.36396 1.98874,-3.75651 1.37002,-2.07712 1.32582,-1.23744 0.35356,-0.22097 1.14905,1.14905 -2.25391,3.62392 -1.4584,4.33103 -0.66292,4.28683 -0.30936,3.97748 z" style="fill:#f1f1f1;fill-opacity:1;fill-rule:evenodd;stroke:none;stroke-width:1.8827641;stroke-linecap:butt;stroke-linejoin:miter;stroke-miterlimit:4;stroke-dasharray:none;stroke-opacity:1"/>
        <path sodipodi:nodetypes="cc" inkscape:connector-curvature="0" id="path6502" d="m 384.9694,903.29192 c 0,-5.97839 2.05216,-11.36708 4.9036,-16.15617" style="opacity:1;fill:none;fill-opacity:1;fill-rule:nonzero;stroke:#000000;stroke-width:1.8827641;stroke-linecap:round;stroke-linejoin:round;stroke-miterlimit:4;stroke-dasharray:none;stroke-dashoffset:0;stroke-opacity:1"/>
        <path sodipodi:nodetypes="cc" inkscape:connector-curvature="0" id="path6504" d="m 423.22269,951.30646 c -8.95337,-2.60838 -12.27463,-2.93291 -17.66037,-5.6475" style="opacity:1;fill:none;fill-opacity:1;fill-rule:nonzero;stroke:#000000;stroke-width:1.8827641;stroke-linecap:round;stroke-linejoin:round;stroke-miterlimit:4;stroke-dasharray:none;stroke-dashoffset:0;stroke-opacity:1"/>
        <path sodipodi:nodetypes="csc" inkscape:connector-curvature="0" id="path6506" d="m 421.9946,957.19422 c 0.84641,-2.53449 0.0364,0.42672 -2.4947,-2.65962 -1.10765,-1.35062 -2.07539,-3.53173 -3.07112,-4.81261" style="opacity:1;fill:none;fill-opacity:1;fill-rule:nonzero;stroke:#000000;stroke-width:1.8827641;stroke-linecap:round;stroke-linejoin:round;stroke-miterlimit:4;stroke-dasharray:none;stroke-dashoffset:0;stroke-opacity:1"/>
        <path inkscape:connector-curvature="0" id="path6508" d="m 443.48102,954.29562 c 0.13811,0 3.34909,0 3.34909,0" style="fill:none;fill-rule:evenodd;stroke:#000000;stroke-width:1.8827641;stroke-linecap:butt;stroke-linejoin:miter;stroke-miterlimit:4;stroke-dasharray:none;stroke-opacity:1"/>
        <path sodipodi:nodetypes="cc" inkscape:connector-curvature="0" id="path6510" d="m 412.28293,891.93161 c 8.23569,-20.58794 31.38747,-3.20454 42.43733,-15.91896" style="opacity:1;fill:none;fill-opacity:1;fill-rule:nonzero;stroke:#000000;stroke-width:1.8827641;stroke-linecap:round;stroke-linejoin:round;stroke-miterlimit:4;stroke-dasharray:none;stroke-dashoffset:0;stroke-opacity:1"/>
        <path style="opacity:1;fill:none;fill-opacity:1;fill-rule:nonzero;stroke:#000000;stroke-width:1.8827641;stroke-linecap:round;stroke-linejoin:round;stroke-miterlimit:4;stroke-dasharray:none;stroke-dashoffset:0;stroke-opacity:1" d="m 465.30625,931.04744 c 12.9587,-8.21144 9.40661,-23.59186 5.47511,-29.13782 -4.80221,-6.67473 -6.91924,-13.79554 -4.48063,-20.39991" id="path6512" inkscape:connector-curvature="0" sodipodi:nodetypes="ccc"/>
        <path sodipodi:nodetypes="ccc" inkscape:connector-curvature="0" id="path6514" d="m 459.09145,921.93238 c 7.2963,-1.16798 10.92721,-11.06722 6.16563,-19.88465 -4.16744,-6.87005 -3.19036,-14.34797 -0.75174,-20.95235" style="opacity:1;fill:none;fill-opacity:1;fill-rule:nonzero;stroke:#000000;stroke-width:1.8827641;stroke-linecap:round;stroke-linejoin:round;stroke-miterlimit:4;stroke-dasharray:none;stroke-dashoffset:0;stroke-opacity:1"/>
        <path style="opacity:1;fill:none;fill-opacity:1;fill-rule:nonzero;stroke:#000000;stroke-width:1.8827641;stroke-linecap:round;stroke-linejoin:round;stroke-miterlimit:4;stroke-dasharray:none;stroke-dashoffset:0;stroke-opacity:1" d="m 428.08016,892.96822 c 5.35136,-15.97327 23.46699,-2.22434 30.8357,-14.39976" id="path6516" inkscape:connector-curvature="0" sodipodi:nodetypes="cc"/>
        <path inkscape:connector-curvature="0" id="path6518" d="m 454.82167,875.85731 1.12305,2.05078 c 0,0 1.95313,-2.34375 2.34375,-1.61133 0.39063,0.73242 0.83008,2.29492 0.83008,2.29492 0,0 1.61133,-2.24609 2.29492,-1.66015 0.68359,0.58593 0.48828,3.41796 0.48828,3.41796 0,0 1.02539,-0.92773 1.70899,-0.83007 0.68359,0.0976 0.8789,1.61132 0.8789,1.61132 0,0 1.12305,-0.43945 1.46485,-0.39062 0.34179,0.0488 0.19531,1.31836 0.19531,1.31836 l -0.0488,-0.19531" style="fill:none;fill-rule:evenodd;stroke:#000000;stroke-width:1.8827641;stroke-linecap:round;stroke-linejoin:round;stroke-miterlimit:4;stroke-dasharray:none;stroke-opacity:1"/>
        <path sodipodi:nodetypes="ccc" inkscape:connector-curvature="0" id="path6520" d="m 465.30625,931.04744 c 12.9587,-8.21144 9.40661,-23.59186 5.47511,-29.13782 -4.80221,-6.67473 -6.91924,-13.79554 -4.48063,-20.39991" style="opacity:1;fill:none;fill-opacity:1;fill-rule:nonzero;stroke:#000000;stroke-width:1.8827641;stroke-linecap:round;stroke-linejoin:round;stroke-miterlimit:4;stroke-dasharray:none;stroke-dashoffset:0;stroke-opacity:1"/>
        <path style="opacity:1;fill:none;fill-opacity:1;fill-rule:nonzero;stroke:#000000;stroke-width:1.8827641;stroke-linecap:round;stroke-linejoin:round;stroke-miterlimit:4;stroke-dasharray:none;stroke-dashoffset:0;stroke-opacity:1" d="m 459.09145,921.93238 c 7.2963,-1.16798 10.92721,-11.06722 6.16563,-19.88465 -4.16744,-6.87005 -3.19036,-14.34797 -0.75174,-20.95235" id="path6522" inkscape:connector-curvature="0" sodipodi:nodetypes="ccc"/>
        <path sodipodi:nodetypes="cc" inkscape:connector-curvature="0" id="path6524" d="m 428.08016,892.96822 c 5.35136,-15.97327 23.46699,-2.22434 30.8357,-14.39976" style="opacity:1;fill:none;fill-opacity:1;fill-rule:nonzero;stroke:#000000;stroke-width:1.8827641;stroke-linecap:round;stroke-linejoin:round;stroke-miterlimit:4;stroke-dasharray:none;stroke-dashoffset:0;stroke-opacity:1"/>
        <path style="fill:none;fill-rule:evenodd;stroke:#000000;stroke-width:1.8827641;stroke-linecap:round;stroke-linejoin:round;stroke-miterlimit:4;stroke-dasharray:none;stroke-opacity:1" d="m 454.82167,875.85731 1.12305,2.05078 c 0,0 1.95313,-2.34375 2.34375,-1.61133 0.39063,0.73242 0.83008,2.29492 0.83008,2.29492 0,0 1.61133,-2.24609 2.29492,-1.66015 0.68359,0.58593 0.48828,3.41796 0.48828,3.41796 0,0 1.02539,-0.92773 1.70899,-0.83007 0.68359,0.0976 0.8789,1.61132 0.8789,1.61132 0,0 1.12305,-0.43945 1.46485,-0.39062 0.34179,0.0488 0.19531,1.31836 0.19531,1.31836 l -0.0488,-0.19531" id="path6526" inkscape:connector-curvature="0"/>
        <path style="opacity:1;fill:none;fill-opacity:1;fill-rule:nonzero;stroke:#000000;stroke-width:1.8827641;stroke-linecap:round;stroke-linejoin:round;stroke-miterlimit:4;stroke-dasharray:none;stroke-dashoffset:0;stroke-opacity:1" d="m 412.28293,891.93161 c 8.23569,-20.58794 31.38747,-3.20454 42.43733,-15.91896" id="path6528" inkscape:connector-curvature="0" sodipodi:nodetypes="cc"/>
        <path sodipodi:nodetypes="cscccc" inkscape:connector-curvature="0" id="path6530" d="m 450.01447,914.5018 c -12.35761,-1.66732 -6.39693,5.26387 -2.79364,11.52003 1.26857,2.20254 6.54696,2.24847 8.697,1.31356 1.41842,-1.74859 0.0777,-6.68821 0.0777,-6.68821 l -0.5119,-1.68393 z" style="fill:#17706c;fill-opacity:1;fill-rule:evenodd;stroke:#000000;stroke-width:1.8827641;stroke-linecap:butt;stroke-linejoin:miter;stroke-miterlimit:4;stroke-dasharray:none;stroke-opacity:1"/>
        <path sodipodi:nodetypes="cccssc" inkscape:connector-curvature="0" id="path6532" d="m 397.4632,894.42146 3.35876,2.74004 17.01973,-3.44271 c 0,0 -3.36628,-0.71016 -5.4764,-0.81066 -1.97374,-0.094 -7.4535,0.2811 -9.42202,0.45266 -2.27904,0.19866 -5.48007,1.06067 -5.48007,1.06067 z" style="fill:#d9ede6;fill-opacity:1;fill-rule:evenodd;stroke:none;stroke-width:1.8827641;stroke-linecap:butt;stroke-linejoin:miter;stroke-miterlimit:4;stroke-dasharray:none;stroke-opacity:1"/>
        <path sodipodi:nodetypes="cccssssc" inkscape:connector-curvature="0" id="path6534" d="m 397.48222,945.01136 -4.46339,1.37684 c -0.31043,2.13326 -2.4172,4.92631 -0.53661,6.68566 0,0 1.20878,1.53636 2.0625,1.9375 0.45606,0.21429 1.02481,0.35513 1.5,0.1875 1.61175,-0.56858 3.02624,-2.06472 3.5625,-3.6875 0.34543,-1.04529 -0.1184,-2.32908 -0.4276,-3.27487 -0.39913,-1.22088 -1.6974,-3.22513 -1.6974,-3.22513 z" style="fill:#196f6e;fill-opacity:1;fill-rule:evenodd;stroke:#000000;stroke-width:1.8827641;stroke-linecap:butt;stroke-linejoin:miter;stroke-miterlimit:4;stroke-dasharray:none;stroke-opacity:1"/>
        <path sodipodi:nodetypes="csscscccc" inkscape:connector-curvature="0" id="path6536" d="m 389.87343,936.99458 c 0,0 -0.17762,7.58629 1.21975,12.97143 0.65585,2.52749 2.1519,5.08282 3.15342,6.47253 1.0955,1.52012 3.0902,2.52249 3.0902,2.52249 0,0 0.0232,-2.63605 0.033,-4.77205 0.0198,-4.31611 -1.88243,-14.43654 -1.88243,-14.43654 l -2.71301,-1.22437 -2.52555,-1.26248 z" style="opacity:0.222;fill:#d8ede6;fill-opacity:1;fill-rule:evenodd;stroke:none;stroke-width:1.8827641;stroke-linecap:butt;stroke-linejoin:miter;stroke-miterlimit:4;stroke-dasharray:none;stroke-opacity:1"/>
        <path sodipodi:nodetypes="ccssccssscccc" inkscape:connector-curvature="0" id="path6538" d="m 424.13283,948.53129 3.44715,-2.2981 c 0,0 1.56971,-1.50161 2.56326,-1.85615 0.47255,-0.16862 1.06824,-0.33952 1.5026,-0.0884 0.45628,0.26379 0.63443,0.8922 0.70711,1.41421 -0.35012,2.30831 -0.6968,4.87579 -1.5026,6.89429 -0.26115,0.63563 -0.50226,1.36725 -1.06066,1.76777 -0.56351,0.40418 -1.34858,0.32984 -2.03293,0.44194 -0.52658,0.0862 -1.06388,0.25973 -1.59099,0.17678 -0.63831,-0.10046 -1.76777,-0.79549 -1.76777,-0.79549 l -0.7955,-1.14905 -0.44194,-1.23744 z" style="fill:#196f6e;fill-opacity:1;fill-rule:evenodd;stroke:#000000;stroke-width:1.8827641;stroke-linecap:butt;stroke-linejoin:miter;stroke-miterlimit:4;stroke-dasharray:none;stroke-opacity:1"/>
        <path sodipodi:nodetypes="cccscccsscc" inkscape:connector-curvature="0" id="path6540" d="m 430.71843,937.7148 -1.63518,1.98873 -3.49134,6.01041 c 0,0 -1.14925,2.86639 -1.63519,4.33103 -0.45369,1.36744 -1.14904,4.46361 -1.14904,4.46361 l -0.0884,1.67937 -0.22097,1.94455 c 0,0 2.8608,-3.51853 3.97747,-5.48008 1.21951,-2.1422 1.57994,-3.9365 1.94455,-6.0104 0.63385,-3.6053 1.14905,-5.03814 1.14905,-5.03814 z" style="opacity:0.37600002;fill:#d7eee7;fill-opacity:1;fill-rule:evenodd;stroke:none;stroke-width:1.8827641;stroke-linecap:butt;stroke-linejoin:miter;stroke-miterlimit:4;stroke-dasharray:none;stroke-opacity:1"/>
        <path sodipodi:nodetypes="cccsssssc" inkscape:connector-curvature="0" id="path6542" d="m 434.78228,940.17528 1.45841,-0.81758 1.41421,-0.77341 c 0,0 0.72415,1.91238 0.86178,2.91682 0.067,0.48899 0.20191,1.04071 -0.0221,1.4805 -0.10029,0.1969 -0.31411,0.35218 -0.53033,0.39775 -0.41435,0.0873 -0.87312,-0.0714 -1.23744,-0.28726 -0.39944,-0.23663 -0.6611,-0.65873 -0.92808,-1.03856 -0.40937,-0.58241 -1.01645,-1.87826 -1.01645,-1.87826 z" style="fill:#196f6e;fill-opacity:1;fill-rule:evenodd;stroke:#000000;stroke-width:1.8827641;stroke-linecap:butt;stroke-linejoin:miter;stroke-miterlimit:4;stroke-dasharray:none;stroke-opacity:1"/>
        <path sodipodi:nodetypes="ccccsccsssssccsc" inkscape:connector-curvature="0" id="path6544" d="m 449.37614,943.77051 0.92808,-0.7513 1.63518,-1.32583 2.96101,-2.2981 c 0,0 1.12445,-0.52587 1.63519,-0.30936 0.61693,0.26153 1.10485,1.67938 1.10485,1.67938 l 0.61872,2.82843 c 0,0 0.33051,1.67334 0.30936,2.51907 -0.0172,0.6876 -0.30936,1.85615 -0.35356,2.03293 -0.0442,0.17678 -1.42221,2.19138 -2.38648,3.0494 -0.52849,0.47025 -1.10616,1.05708 -1.81196,1.10485 -0.25669,0.0174 -0.50695,-0.14773 -0.70711,-0.30936 -0.60756,-0.49059 -1.37002,-1.90035 -1.37002,-1.90035 l -0.92808,-1.72357 -0.66291,-2.3423 c -0.19835,-0.70085 -0.66383,-1.22193 -0.97227,-2.25389 z" style="fill:#196f6e;fill-opacity:1;fill-rule:evenodd;stroke:#000000;stroke-width:1.8827641;stroke-linecap:butt;stroke-linejoin:miter;stroke-miterlimit:4;stroke-dasharray:none;stroke-opacity:1"/>
        <path style="fill:#196f6e;fill-opacity:1;fill-rule:evenodd;stroke:#000000;stroke-width:1.8827641;stroke-linecap:butt;stroke-linejoin:miter;stroke-miterlimit:4;stroke-dasharray:none;stroke-opacity:1" d="m 460.48462,938.20302 1.50511,0.72805 1.44359,0.71708 c 0,0 -1.1538,1.6883 -1.89871,2.37601 -0.36265,0.33479 -0.73787,0.76117 -1.22672,0.82917 -0.21886,0.0304 -0.46857,-0.056 -0.62968,-0.20725 -0.30872,-0.28983 -0.44114,-0.75686 -0.47263,-1.17916 -0.0346,-0.46298 0.16183,-0.91912 0.32051,-1.35543 0.24332,-0.66902 0.95853,-1.90847 0.95853,-1.90847 z" id="path6546" inkscape:connector-curvature="0" sodipodi:nodetypes="cccsssssc"/>
        <path inkscape:transform-center-y="-74.531529" inkscape:transform-center-x="102.00105" sodipodi:nodetypes="ccccsssssssscc" inkscape:connector-curvature="0" id="path6548" d="m 398.69056,903.58566 c -0.76571,1.64593 1.00939,1.68977 2.375,2.5 0.49927,0.29069 1.5625,0.75 1.5625,0.75 l 1.3125,0.6875 c 0,0 3.17672,-1.69095 4.75,-2.5625 1.31944,-0.73093 2.67242,-1.37885 3.9375,-2.1875 0.80403,-0.51394 1.7233,-0.93688 2.3125,-1.6875 0.23649,-0.30128 0.48238,-0.68212 0.4375,-1.0625 -0.0542,-0.45939 -0.45139,-0.8359 -0.8125,-1.125 -0.24772,-0.19832 -0.56255,-0.31961 -0.875,-0.375 -1.52022,-0.26949 -3.0915,0.071 -4.625,0.25 -1.28262,0.14972 -2.57958,0.30351 -3.8125,0.6875 -1.39761,0.43529 -4,1.8125 -4,1.8125 z" style="fill:#18706e;fill-opacity:1;fill-rule:evenodd;stroke:#000000;stroke-width:1.8827641;stroke-linecap:butt;stroke-linejoin:miter;stroke-miterlimit:4;stroke-dasharray:none;stroke-opacity:1"/>
        <path sodipodi:nodetypes="ccsssc" inkscape:connector-curvature="0" id="path6550" d="m 406.83269,914.23311 0.26516,2.82843 c 0,0 2.24305,-0.46755 3.00521,-1.23744 1.00461,-1.0148 2.39154,-2.79503 1.59099,-3.97747 -0.33035,-0.48794 -1.21003,-0.19013 -1.76777,0 -1.23272,0.42022 -3.09359,2.38648 -3.09359,2.38648 z" style="fill:#18706e;fill-opacity:1;fill-rule:evenodd;stroke:#000000;stroke-width:1.8827641;stroke-linecap:butt;stroke-linejoin:miter;stroke-miterlimit:4;stroke-dasharray:none;stroke-opacity:1"/>
        <g style="stroke-width:1.83193851;stroke-miterlimit:4;stroke-dasharray:none" transform="matrix(1.0277473,0,0,1.027741,76.583502,-17.987017)" id="g6552">
          <g style="stroke-width:1.83193851;stroke-miterlimit:4;stroke-dasharray:none" transform="translate(-83.937975,-13.416398)" id="g6554">
            <path transform="matrix(0.97300183,0,0,0.97300779,10.454112,29.885876)" sodipodi:nodetypes="csc" inkscape:connector-curvature="0" id="path6556" d="m 424.9602,909.14944 c 0,0 2.58159,0.91286 5.28727,7.00446 2.54352,5.72647 1.42483,8.90921 1.42483,8.90921" style="fill:none;fill-rule:evenodd;stroke:#000000;stroke-width:1.8827641;stroke-linecap:butt;stroke-linejoin:miter;stroke-miterlimit:4;stroke-dasharray:none;stroke-opacity:1"/>
            <path style="fill:none;fill-rule:evenodd;stroke:#000000;stroke-width:1.83193851;stroke-linecap:butt;stroke-linejoin:miter;stroke-miterlimit:4;stroke-dasharray:none;stroke-opacity:1" d="m 425.7831,913.83599 c 0,0 -5,2 -8.08823,6.15219 -3.6555,4.91489 -4.91177,10.84781 -4.91177,10.84781 0,0 4.04672,1.6386 9.06905,0.95012 6.93095,-0.95012 8.93095,-1.95012 8.93095,-1.95012" id="path6558" inkscape:connector-curvature="0" sodipodi:nodetypes="cscsc"/>
            <path style="fill:none;fill-rule:evenodd;stroke:#000000;stroke-width:1.83193851;stroke-linecap:butt;stroke-linejoin:miter;stroke-miterlimit:4;stroke-dasharray:none;stroke-opacity:1" d="m 419.19742,918.21451 c 0,0 -1.48592,3.72888 -0.45012,8.22633 1.0358,4.49746 2.0358,5.39515 2.0358,5.39515" id="path6560" inkscape:connector-curvature="0" sodipodi:nodetypes="czc"/>
            <ellipse transform="matrix(0.98297125,-0.1837594,0.1837594,0.98297125,0,0)" ry="4.5282426" rx="1.7919922" cy="985.63794" cx="247.35889" id="ellipse6562" style="opacity:1;fill:#ffffff;fill-opacity:1;fill-rule:nonzero;stroke:#000000;stroke-width:1.83193851;stroke-linecap:round;stroke-linejoin:round;stroke-miterlimit:4;stroke-dasharray:none;stroke-dashoffset:0;stroke-opacity:1"/>
          </g>
        </g>
        <g style="stroke-width:1.50116587;stroke-miterlimit:4;stroke-dasharray:none" transform="matrix(1.2482096,0,0,1.2602216,-74.59938,-153.23659)" id="g6564">
          <path style="fill:none;fill-rule:evenodd;stroke:#000000;stroke-width:1.50116587;stroke-linecap:butt;stroke-linejoin:miter;stroke-miterlimit:4;stroke-dasharray:none;stroke-opacity:1" d="m 374.30372,853.99692 c 0,0 1.71533,-3.99677 1.07033,-10.11631 -0.52576,-4.9882 -3.93605,-6.76724 -3.93605,-6.76724" id="path6566" inkscape:connector-curvature="0" sodipodi:nodetypes="csc"/>
          <path style="fill:none;fill-rule:evenodd;stroke:#000000;stroke-width:1.50116587;stroke-linecap:butt;stroke-linejoin:miter;stroke-miterlimit:4;stroke-dasharray:none;stroke-opacity:1" d="m 372.68097,838.11464 c 0,0 -1.87276,0.61846 -4.02236,5.71417 -2.25689,5.35002 -2.1234,7.57861 -2.1234,7.57861 0,0 1.09572,0.97454 3.91878,1.69181 2.59437,0.65916 4.195,0.58695 4.195,0.58695" id="path6568" inkscape:connector-curvature="0" sodipodi:nodetypes="cscsc"/>
          <path style="fill:none;fill-rule:evenodd;stroke:#000000;stroke-width:1.50116587;stroke-linecap:butt;stroke-linejoin:miter;stroke-miterlimit:4;stroke-dasharray:none;stroke-opacity:1" d="m 373.41131,839.07868 c 0,0 -1.97564,2.47137 -3.00911,6.4592 -1.03346,3.98782 -0.58695,7.14703 -0.58695,7.14703" id="path6570" inkscape:connector-curvature="0" sodipodi:nodetypes="czc"/>
          <ellipse transform="matrix(-0.98110577,-0.19347213,-0.17450174,0.98465687,0,0)" ry="3.2299247" rx="1.2161133" cy="759.90277" cx="-514.83124" id="ellipse6572" style="opacity:1;fill:#f1f1f1;fill-opacity:1;fill-rule:nonzero;stroke:#000000;stroke-width:1.5013057;stroke-linecap:round;stroke-linejoin:round;stroke-miterlimit:4;stroke-dasharray:none;stroke-dashoffset:0;stroke-opacity:1"/>
        </g>
        <path style="fill:#196f6e;fill-opacity:1;fill-rule:evenodd;stroke:#000000;stroke-width:1.8827641;stroke-linecap:butt;stroke-linejoin:miter;stroke-miterlimit:4;stroke-dasharray:none;stroke-opacity:1" d="m 396.69649,910.84685 1.45841,-0.81758 1.41421,-0.77341 c 0,0 0.72415,1.91238 0.86178,2.91682 0.067,0.48899 0.20191,1.04071 -0.0221,1.4805 -0.10029,0.1969 -0.31411,0.35218 -0.53033,0.39775 -0.41435,0.0873 -0.87312,-0.0714 -1.23744,-0.28726 -0.39944,-0.23663 -0.6611,-0.65873 -0.92808,-1.03856 -0.40937,-0.58241 -1.01645,-1.87826 -1.01645,-1.87826 z" id="path6574" inkscape:connector-curvature="0" sodipodi:nodetypes="cccsssssc"/>
        <path sodipodi:nodetypes="scss" inkscape:connector-curvature="0" id="path6576" d="m 395.8268,956.50113 c -1.00616,-0.52007 -2.55629,4.07261 -2.55629,4.07261 0,0 4.72498,-1.25336 4.37409,-2.22636 -0.27913,-0.77404 -0.89609,-1.36983 -1.8178,-1.84625 z" style="fill:#d7ede6;fill-opacity:1;fill-rule:evenodd;stroke:#000000;stroke-width:1.8827641;stroke-linecap:butt;stroke-linejoin:miter;stroke-miterlimit:4;stroke-dasharray:none;stroke-opacity:1"/>
        <path style="fill:#d7ede6;fill-opacity:1;fill-rule:evenodd;stroke:#000000;stroke-width:1.8827641;stroke-linecap:butt;stroke-linejoin:miter;stroke-miterlimit:4;stroke-dasharray:none;stroke-opacity:1" d="m 401.3938,958.27215 c -0.77398,-0.43898 -1.96643,3.43752 -1.96643,3.43752 0,0 3.63469,-1.05791 3.36478,-1.87918 -0.21472,-0.65333 -0.68932,-1.15622 -1.39835,-1.55834 z" id="path6578" inkscape:connector-curvature="0" sodipodi:nodetypes="scss"/>
        <path style="fill:#d7ede6;fill-opacity:1;fill-rule:evenodd;stroke:#000000;stroke-width:1.8827641;stroke-linecap:butt;stroke-linejoin:miter;stroke-miterlimit:4;stroke-dasharray:none;stroke-opacity:1" d="m 422.76153,959.49598 c -0.84448,-0.45582 -2.14555,3.56946 -2.14555,3.56946 0,0 3.96578,-1.09852 3.67128,-1.9513 -0.23428,-0.67841 -0.75211,-1.2006 -1.52573,-1.61816 z" id="path6580" inkscape:connector-curvature="0" sodipodi:nodetypes="scss"/>
        <path sodipodi:nodetypes="scss" inkscape:connector-curvature="0" id="path6582" d="m 425.95541,962.46482 c -1.10089,-0.1627 -1.03209,4.11774 -1.03209,4.11774 0,0 3.96066,-2.3404 3.31772,-3.06213 -0.51147,-0.57417 -1.27712,-0.90655 -2.28563,-1.05561 z" style="fill:#d7ede6;fill-opacity:1;fill-rule:evenodd;stroke:#000000;stroke-width:1.8827641;stroke-linecap:butt;stroke-linejoin:miter;stroke-miterlimit:4;stroke-dasharray:none;stroke-opacity:1"/>
        <path style="fill:#d7ede6;fill-opacity:1;fill-rule:evenodd;stroke:#000000;stroke-width:1.8827641;stroke-linecap:butt;stroke-linejoin:miter;stroke-miterlimit:4;stroke-dasharray:none;stroke-opacity:1" d="m 431.09825,963.25182 c -1.02871,0.1982 0.40193,3.76618 0.40193,3.76618 0,0 2.76479,-3.16618 1.96349,-3.57588 -0.63746,-0.32593 -1.42305,-0.37188 -2.36542,-0.1903 z" id="path6584" inkscape:connector-curvature="0" sodipodi:nodetypes="scss"/>
        <path style="fill:#d7ede6;fill-opacity:1;fill-rule:evenodd;stroke:#000000;stroke-width:1.8827641;stroke-linecap:butt;stroke-linejoin:miter;stroke-miterlimit:4;stroke-dasharray:none;stroke-opacity:1" d="m 450.78431,959.13232 c -0.9212,-0.50139 -2.20039,3.38779 -2.20039,3.38779 0,0 4.23004,-0.83936 3.88823,-1.69835 -0.27191,-0.68337 -0.84396,-1.23012 -1.68784,-1.68944 z" id="path6586" inkscape:connector-curvature="0" sodipodi:nodetypes="scss"/>
        <path sodipodi:nodetypes="scss" inkscape:connector-curvature="0" id="path6588" d="m 455.26478,961.09077 c -1.05507,-0.2112 -1.25812,3.64399 -1.25812,3.64399 0,0 3.98009,-1.87253 3.4034,-2.55971 -0.45878,-0.5467 -1.17875,-0.89081 -2.14528,-1.08428 z" style="fill:#d7ede6;fill-opacity:1;fill-rule:evenodd;stroke:#000000;stroke-width:1.8827641;stroke-linecap:butt;stroke-linejoin:miter;stroke-miterlimit:4;stroke-dasharray:none;stroke-opacity:1"/>
        <path style="fill:#d7ede6;fill-opacity:1;fill-rule:evenodd;stroke:#000000;stroke-width:1.8827641;stroke-linecap:butt;stroke-linejoin:miter;stroke-miterlimit:4;stroke-dasharray:none;stroke-opacity:1" d="m 460.45919,961.1078 c -0.99947,-0.16183 -1.19182,2.79245 -1.19182,2.79245 0,0 3.77033,-1.43495 3.22403,-1.96155 -0.43459,-0.41893 -1.11662,-0.68263 -2.03221,-0.8309 z" id="path6590" inkscape:connector-curvature="0" sodipodi:nodetypes="scss"/>
        <path inkscape:connector-curvature="0" id="path6592" d="m 402.64951,928.26948 1.375,-0.625" style="fill:none;fill-rule:evenodd;stroke:#000000;stroke-width:1.8827641;stroke-linecap:round;stroke-linejoin:miter;stroke-miterlimit:4;stroke-dasharray:none;stroke-opacity:1"/>
        <path inkscape:connector-curvature="0" id="path6594" d="m 399.52451,927.89448 -0.25,-1.125" style="fill:none;fill-rule:evenodd;stroke:#000000;stroke-width:1.8827641;stroke-linecap:round;stroke-linejoin:miter;stroke-miterlimit:4;stroke-dasharray:none;stroke-opacity:1"/>
        <path style="fill:#d8ede6;fill-opacity:1;fill-rule:evenodd;stroke:none;stroke-width:1.8827641;stroke-linecap:butt;stroke-linejoin:miter;stroke-miterlimit:4;stroke-dasharray:none;stroke-opacity:1" d="m 421.57911,905.52575 -3.70634,3.46499 -1.31656,1.26796 c 0,0 -0.52985,0.90493 -0.59414,1.54888 -0.0923,0.92421 0.049,2.15446 0.39584,2.3542 0.54237,0.31237 1.18413,-1.2853 1.65942,-2.36939 1.34883,-3.07659 2.40908,-4.2519 2.40908,-4.2519 l 1.12091,-1.58047" id="path6596" inkscape:connector-curvature="0" sodipodi:nodetypes="cccssscc" inkscape:transform-center-x="-0.22013095" inkscape:transform-center-y="0.40191063"/>
        <path sodipodi:nodetypes="csc" inkscape:connector-curvature="0" id="path6598" d="m 415.43088,913.56936 c 0,0 0.63648,-2.35555 1.28204,-3.36894 1.9318,-3.03253 2.96796,-3.63106 2.96796,-3.63106" style="fill:none;fill-rule:evenodd;stroke:#000000;stroke-width:1.8827641;stroke-linecap:round;stroke-linejoin:miter;stroke-miterlimit:4;stroke-dasharray:none;stroke-opacity:1"/>
        <g style="stroke-width:1.8827641;stroke-miterlimit:4;stroke-dasharray:none" transform="translate(126.21856,-21.213204)" id="g6600">
          <g style="fill:#ab4b57;fill-opacity:1;stroke-width:1.8827641;stroke-miterlimit:4;stroke-dasharray:none" id="g6602" transform="translate(3.7729709,133.40574)">
            <path style="fill:#ab4b57;fill-opacity:1;fill-rule:evenodd;stroke:#000000;stroke-width:1.8827641;stroke-linecap:butt;stroke-linejoin:miter;stroke-miterlimit:4;stroke-dasharray:none;stroke-opacity:1" d="m 253.10566,812.60318 c 0,0 -1.16471,1.11016 -0.61872,1.32583 2.57867,1.01857 12.58547,3.59847 17.85445,6.27557 7.77348,-1.84072 11.28648,-2.04919 21.56675,-2.20971 0,0 4.46262,0.262 6.62913,-0.17678 1.42639,-0.28888 4.06586,-1.59099 4.06586,-1.59099 l -1.59099,1.23744 c 0,0 -5.19127,4.89561 -8.3085,6.54074 -3.30469,1.74405 -3.49538,2.39053 -10.69499,3.35875 -4.43341,0.59621 -10.03966,-0.2526 -10.03966,-0.2526 0,0 -4.49475,-0.52062 -10.83516,-4.76669 -2.11298,-1.41503 -8.77947,-8.59251 -8.77947,-8.59251" id="path6604" inkscape:connector-curvature="0" sodipodi:nodetypes="csccsccascsc"/>
          </g>
          <path sodipodi:nodetypes="scss" inkscape:connector-curvature="0" id="path6606" d="m 263.83853,950.39508 c -0.96599,-0.0375 0.42046,3.56696 0.42046,3.56696 0,0 2.56684,-2.33276 1.80803,-2.8834 -0.60367,-0.43809 -1.34357,-0.6492 -2.22849,-0.68356 z" style="fill:#d7ede6;fill-opacity:1;fill-rule:evenodd;stroke:#000000;stroke-width:1.8827641;stroke-linecap:butt;stroke-linejoin:miter;stroke-miterlimit:4;stroke-dasharray:none;stroke-opacity:1"/>
          <path style="fill:#d7ede6;fill-opacity:1;fill-rule:evenodd;stroke:#000000;stroke-width:1.8827641;stroke-linecap:butt;stroke-linejoin:miter;stroke-miterlimit:4;stroke-dasharray:none;stroke-opacity:1" d="m 294.36922,951.83721 c -1.04222,0.26446 1.6398,3.58168 1.6398,3.58168 0,0 1.95684,-3.23522 0.96403,-3.57013 -0.78984,-0.26647 -1.64906,-0.25372 -2.60383,-0.0115 z" id="path6608" inkscape:connector-curvature="0" sodipodi:nodetypes="scss"/>
        </g>
        <path sodipodi:nodetypes="cscsscc" inkscape:connector-curvature="0" id="path6610" d="m 391.54175,934.21166 c 0,0 10.10355,-1.40668 14.69438,-1.02297 4.63832,0.38771 13.8099,3.81307 13.8099,3.81307 0,0 -0.65451,0.55468 -2.50629,1.08854 -1.85806,0.53566 -6.4513,1.14026 -8.38377,1.15605 -2.65958,0.0217 -7.77809,-0.39435 -10.33907,-1.11808 -2.30175,-0.9586 -5.22797,-2.55762 -7.27515,-3.91661 z" style="fill:#de8080;fill-opacity:1;fill-rule:evenodd;stroke:none;stroke-width:1.8827641;stroke-linecap:butt;stroke-linejoin:miter;stroke-miterlimit:4;stroke-dasharray:none;stroke-opacity:1"/>
        <path style="fill:#d9ede6;fill-opacity:1;fill-rule:evenodd;stroke:none;stroke-width:1.8827641;stroke-linecap:butt;stroke-linejoin:miter;stroke-miterlimit:4;stroke-dasharray:none;stroke-opacity:1" d="m 397.94967,923.42061 -1.63131,0.64991 c 1.43574,2.71637 3.72663,3.62137 1.63131,-0.64991 z" id="path6612" inkscape:connector-curvature="0" sodipodi:nodetypes="ccc"/>
      </g>
      <path style="color:#000000;font-style:normal;font-variant:normal;font-weight:normal;font-stretch:normal;font-size:medium;line-height:normal;font-family:sans-serif;text-indent:0;text-align:start;text-decoration:none;text-decoration-line:none;text-decoration-style:solid;text-decoration-color:#000000;letter-spacing:normal;word-spacing:normal;text-transform:none;direction:ltr;block-progression:tb;writing-mode:lr-tb;baseline-shift:baseline;text-anchor:start;white-space:normal;clip-rule:nonzero;display:inline;overflow:visible;visibility:visible;opacity:1;isolation:auto;mix-blend-mode:normal;color-interpolation:sRGB;color-interpolation-filters:linearRGB;solid-color:#000000;solid-opacity:1;fill:#33552b;fill-opacity:1;fill-rule:evenodd;stroke:#000000;stroke-width:1;stroke-linecap:round;stroke-linejoin:round;stroke-miterlimit:4;stroke-dasharray:none;stroke-dashoffset:0;stroke-opacity:1;color-rendering:auto;image-rendering:auto;shape-rendering:auto;text-rendering:auto;enable-background:accumulate" d="m 401.42343,1136.9157 c -0.62916,0.4348 -1.22342,0.9148 -1.77478,1.4358 -2.20542,2.0839 -3.69235,4.7943 -4.21459,7.6802 -0.52225,2.8859 -0.071,5.9014 1.27909,8.5439 1.4777,2.8922 3.8535,5.1224 5.91145,7.3572 2.05087,2.2271 3.88226,4.6298 4.3469,7.2795 0.30559,1.7426 -2.7e-4,3.5918 -0.85512,5.1677 -0.85486,1.576 -2.27145,2.9024 -3.95861,3.7066 -1.68717,0.8043 -3.67048,1.0989 -5.54233,0.8228 -1.87185,-0.2761 -3.3884,-0.5997 -4.72644,-1.8502 -0.53469,0.3341 -1.03161,0.7034 -1.91771,0.71 1.65541,1.5471 4.00382,2.7083 6.31967,3.0499 2.31585,0.3416 4.72406,-0.016 6.81139,-1.011 2.08735,-0.9951 3.80805,-2.6061 4.86567,-4.5558 1.05761,-1.9498 1.42931,-4.1962 1.05123,-6.3523 -0.56986,-3.2497 -2.6929,-5.916 -4.81965,-8.2255 -2.11968,-2.3018 -4.33252,-4.4248 -5.61239,-6.9298 -1.16291,-2.2762 -1.55704,-4.9053 -1.1072,-7.3911 0.44983,-2.4858 1.74711,-4.8498 3.64676,-6.6448 1.89964,-1.795 4.41739,-3.0368 7.07872,-3.4908 2.66133,-0.454 5.48872,-0.1239 7.94771,0.9275 l 0.86598,-1.7572 c -2.8548,-1.2207 -6.09713,-1.5993 -9.18685,-1.0722 -2.3173,0.3953 -4.52141,1.2952 -6.4089,2.5996 z" id="path6614" inkscape:connector-curvature="0" sodipodi:nodetypes="cssssssssccsssssssssccsc"/>
      <path style="opacity:1;fill:#33552b;fill-opacity:1;fill-rule:nonzero;stroke:#000000;stroke-width:1;stroke-linecap:round;stroke-linejoin:round;stroke-miterlimit:4;stroke-dasharray:none;stroke-dashoffset:0;stroke-opacity:1" d="m 423.41542,1139.3739 c -3.21391,-1.8464 -4.59179,-0.611 -6.11129,-0.611 -1.5195,0 -2.7513,-1.1449 -2.7513,-2.5572 0,-1.4123 1.2318,-2.5571 2.7513,-2.5571 1.5195,0 6.50085,1.6879 6.11129,5.7253 z" id="path6616" inkscape:connector-curvature="0" sodipodi:nodetypes="csssc"/>
    </g>
  </g>

	
	
	<metadata>
		<rdf:RDF xmlns:rdf="http://www.w3.org/1999/02/22-rdf-syntax-ns#" xmlns:rdfs="http://www.w3.org/2000/01/rdf-schema#" xmlns:dc="http://purl.org/dc/elements/1.1/">
			<rdf:Description about="https://iconscout.com/legal#licenses" dc:title="Bulbasaur, Pokemon, Fushigidane, Bulb, Dinosaur, Poison, Grass" dc:description="Bulbasaur, Pokemon, Fushigidane, Bulb, Dinosaur, Poison, Grass" dc:publisher="Iconscout" dc:date="2016-12-14" dc:format="image/svg+xml" dc:language="en">
				<dc:creator>
					<rdf:Bag>
						<rdf:li>Pankti Bhalodia</rdf:li>
					</rdf:Bag>
				</dc:creator>
			</rdf:Description>
		</rdf:RDF>
    </metadata></svg>
