<?xml version="1.0" encoding="UTF-8" standalone="no"?>
<svg xmlns:dc="http://purl.org/dc/elements/1.1/" xmlns:cc="http://creativecommons.org/ns#" xmlns:rdf="http://www.w3.org/1999/02/22-rdf-syntax-ns#" xmlns:svg="http://www.w3.org/2000/svg" xmlns="http://www.w3.org/2000/svg" xmlns:sodipodi="http://sodipodi.sourceforge.net/DTD/sodipodi-0.dtd" xmlns:inkscape="http://www.inkscape.org/namespaces/inkscape" width="64" height="64" viewBox="0 0 63.999999 63.999999" id="svg2" version="1.1" inkscape:version="0.91 r13725" sodipodi:docname="2.svg">
  <defs id="defs4">
    <filter inkscape:collect="always" style="color-interpolation-filters:sRGB" id="filter5153" x="-0.063710824" width="1.1274216" y="-0.082768731" height="1.1655375">
      <feGaussianBlur inkscape:collect="always" stdDeviation="3.1998982" id="feGaussianBlur5155"/>
    </filter>
    <filter inkscape:collect="always" style="color-interpolation-filters:sRGB" id="filter5444" x="-0.061373107" width="1.1227462" y="-0.036276747" height="1.0725535">
      <feGaussianBlur inkscape:collect="always" stdDeviation="0.8348277" id="feGaussianBlur5446"/>
    </filter>
    <filter inkscape:collect="always" style="color-interpolation-filters:sRGB" id="filter5726" x="-0.089271255" width="1.1785425" y="-0.032824714" height="1.0656494">
      <feGaussianBlur inkscape:collect="always" stdDeviation="0.652372" id="feGaussianBlur5728"/>
    </filter>
    <filter inkscape:collect="always" style="color-interpolation-filters:sRGB" id="filter4556" x="-0.36494118" width="1.7298824" y="-0.16326316" height="1.3265263">
      <feGaussianBlur inkscape:collect="always" stdDeviation="0.97921661" id="feGaussianBlur4558"/>
    </filter>
  </defs>
  <sodipodi:namedview id="base" pagecolor="#ffffff" bordercolor="#666666" borderopacity="1.0" inkscape:pageopacity="0.0" inkscape:pageshadow="2" inkscape:zoom="5.6" inkscape:cx="7.2416244" inkscape:cy="30.317459" inkscape:document-units="px" inkscape:current-layer="layer1" showgrid="false" units="px" inkscape:window-width="1366" inkscape:window-height="705" inkscape:window-x="-8" inkscape:window-y="-8" inkscape:window-maximized="1"/>
  
  <g inkscape:label="Layer 1" inkscape:groupmode="layer" id="layer1" transform="translate(0,-988.3622)">
    <g id="g5548">
      <ellipse style="opacity:1;fill:#e8edf1;fill-opacity:1;fill-rule:nonzero;stroke:none;stroke-width:0.96499997;stroke-linecap:round;stroke-linejoin:round;stroke-miterlimit:4;stroke-dasharray:none;stroke-dashoffset:0;stroke-opacity:1" id="ellipse5396" cx="22.603554" cy="1048.12" rx="20.220198" ry="4.8313222"/>
      <path style="fill:#cedea7;fill-opacity:1;fill-rule:evenodd;stroke:none;stroke-width:1px;stroke-linecap:butt;stroke-linejoin:miter;stroke-opacity:1" d="m 19.105237,1012.8665 -1.04483,0.699 -1.10629,0.9664 -0.778516,0.8224 -0.758007,1.1924 -0.512169,0.9869 -0.676072,1.8504 -0.102444,0.8636 -0.143395,1.0691 0,1.5009 0.286806,2.4055 0.348282,1.2748 -1.085814,0.7607 -1.229208,0.9869 -1.516032,1.6859 -1.1063056,1.7887 -0.6555802,1.6037 -0.532661,1.8093 -0.1843789,1.542 -0.081952,1.686 0.1024436,0.884 0.2048708,1.0075 0.9219107,2.6317 0.5531532,0.843 0.430217,0.6168 0.491693,0.185 0.573629,0.1234 0.696548,0 0.32779,-0.2468 0.737532,-0.699 0.26633,-0.4729 0.184396,-0.2056 0.08193,-0.062 0.02049,0.6374 0.143411,1.5215 0.491677,1.7681 0.635105,1.3981 0.696548,0.9458 0.614612,0.4934 0.696548,0.4112 0.573645,0.062 0.512169,-0.062 0.819483,-0.4317 0.368758,-0.5552 0.553153,-1.0691 0.08195,-0.4318 0.65558,-1.2747 1.10629,-1.3364 1.495279,-0.1627 2.129509,-0.1236 2.629281,-0.2326 0.956113,-0.1745 1.137181,-0.2762 0.130383,0.051 0.449071,0.3126 1.441413,1.1848 1.680421,1.2212 1.455886,0.7778 0.934388,0.3271 1.412419,0.2181 0.485301,-0.08 0.318704,-0.2472 0.188322,-0.3053 0.08692,-0.4579 0.01444,-0.6979 -0.15936,-1.0904 -0.375686,-1.519 -0.481439,-1.3056 -0.594121,-1.1308 -0.850213,-1.7271 -0.614596,-1.7887 -0.174141,-0.9252 -0.07171,-0.8738 0.122919,-1.6037 0.03073,-0.1233 0.542915,-0.2056 0.573629,-0.3393 0.245838,-0.3495 -0.03073,-0.2879 -0.194617,-0.3186 -0.286823,-0.2365 -0.696547,-0.4934 -0.256093,-0.1954 -0.0717,-2.5186 -0.05122,-2.4261 -0.07171,-1.8709 -0.194617,-1.7271 -0.38925,-1.8812 -0.635104,-2.0458 -1.096052,-2.4466 -1.485301,-2.2205 -1.720903,-1.7065 -1.147257,-0.8327 -1.341906,-0.6579 -1.188242,-0.3907 -1.403349,-0.1644 -0.932149,0.041 -1.311177,0.2056 -0.870689,0.4009 -0.819483,0.5037 -0.819467,0.8224 -0.645343,0.9252 -0.184379,0.2467 -0.03073,-0.2158 0.0717,-0.3701 0.09219,-0.4318 0.07171,-0.2467 z" id="path5794" inkscape:connector-curvature="0"/>
      <path style="fill:#86c479;fill-opacity:1;fill-rule:evenodd;stroke:none;stroke-width:1px;stroke-linecap:butt;stroke-linejoin:miter;stroke-opacity:1" d="m 19.023285,1014.1206 0.143411,-1.0074 0.594121,-1.4392 0.880943,-1.9738 0.512169,-1.6448 0.471201,-1.6242 0.112682,-0.5398 0.604358,-0.9971 0.38925,-0.6579 0.691745,-0.9208 1.079243,-1.2794 1.267565,-1.2212 1.530033,-1.25094 1.700426,-1.11024 1.571796,-0.86626 1.738377,-0.71238 1.390694,-0.55245 1.126328,-0.35256 1.039394,-0.2326 1.434161,-0.42524 1.086495,-0.12359 1.115457,-0.0436 0.311452,-0.0509 0.927135,-0.12357 0.941624,-0.11631 1.680421,-0.22535 1.441397,-0.3053 1.752865,-0.39979 1.593505,-0.46524 1.238603,-0.47975 1.108204,-0.54518 0.847455,-0.43615 0.919899,-0.66149 0.470812,-0.4725 0.304216,-0.37071 0.144855,-0.34166 0.152108,0.13085 0.05795,0.26896 0.260749,1.50471 -0.03621,0.5379 0.02172,1.17033 -0.04345,0.88684 -0.123146,1.25027 -0.391132,1.79548 -0.188322,0.99587 -0.463559,1.32294 -0.82573,1.8464 -0.557729,0.9086 -1.129945,1.4538 -1.02854,1.1195 -1.216862,1.054 -1.166159,0.7923 -1.24584,0.6833 -1.854254,0.7415 -1.438574,0.3864 -1.290684,0.1439 -1.679919,0.062 -1.059464,0.1058 -0.478049,-0.076 -0.311468,-0.029 -0.673622,-0.091 -1.368969,-0.2763 -0.930754,-0.1526 -0.927118,-0.1854 -0.970602,-0.1999 -0.898157,-0.2326 -1.22048,-0.3344 -0.152108,0.022 -0.304216,-0.08 -0.289726,-0.022 -1.137198,-0.1163 -0.673622,0.058 -0.579454,-0.022 -0.427345,0.1018 -0.478049,0.109 -1.060957,0.3104 -1.029465,0.5963 -0.425107,0.2056 -0.486566,0.3803 -1.003408,0.8553 -0.296979,0.6397 0.02172,0.1745 0.40562,0.3271 -1.119318,0.5529 -0.870689,0.7093 -0.706802,0.9047 z" id="path5796" inkscape:connector-curvature="0"/>
      <path style="opacity:1;fill:none;fill-opacity:1;fill-rule:nonzero;stroke:#000000;stroke-width:0.65342677;stroke-linecap:round;stroke-linejoin:round;stroke-miterlimit:4;stroke-dasharray:none;stroke-dashoffset:0;stroke-opacity:1" d="m 53.523297,994.97917 c 0,0.79268 -0.239982,1.5172 -0.359267,2.27493 -1.073434,6.8187 -7.015922,11.9938 -13.899644,11.9938 -0.415047,0 -0.846336,0.084 -1.252086,0.047 -0.42084,-0.038 -0.959179,-0.076 -1.368353,-0.1523" id="path5798" inkscape:connector-curvature="0" sodipodi:nodetypes="csssc"/>
      <path style="opacity:1;fill:none;fill-opacity:1;fill-rule:nonzero;stroke:#000000;stroke-width:0.65342677;stroke-linecap:round;stroke-linejoin:round;stroke-miterlimit:4;stroke-dasharray:none;stroke-dashoffset:0;stroke-opacity:1" d="m 53.265517,990.09626 c 0.243275,0.76541 0.380374,1.63128 0.380374,2.54825 0,0.71717 0.01856,1.75261 -0.134374,2.38367" id="path5800" inkscape:connector-curvature="0" sodipodi:nodetypes="csc"/>
      <path style="opacity:1;fill:none;fill-opacity:1;fill-rule:nonzero;stroke:#000000;stroke-width:0.65342677;stroke-linecap:round;stroke-linejoin:round;stroke-miterlimit:4;stroke-dasharray:none;stroke-dashoffset:0;stroke-opacity:1" d="m 53.211748,990.06708 c -0.6965,2.12499 -5.969065,4.24107 -12.53358,4.90964 -0.397167,0.0404 -0.892154,0.13295 -1.281388,0.16122" id="path5802" inkscape:connector-curvature="0" sodipodi:nodetypes="csc"/>
      <path style="opacity:1;fill:none;fill-opacity:1;fill-rule:nonzero;stroke:#000000;stroke-width:0.65342677;stroke-linecap:round;stroke-linejoin:round;stroke-miterlimit:4;stroke-dasharray:none;stroke-dashoffset:0;stroke-opacity:1" d="m 35.705747,995.77746 c 1.110621,-0.40124 2.325698,-0.62586 3.599607,-0.6339 0.02364,-1.5e-4 0.04729,0 0.07098,0" id="path5804" inkscape:connector-curvature="0" sodipodi:nodetypes="csc"/>
      <path style="fill:none;fill-rule:evenodd;stroke:#000000;stroke-width:0.65342677px;stroke-linecap:butt;stroke-linejoin:miter;stroke-opacity:1" d="m 18.982317,1014.3468 c 0.306147,-2.8166 1.235488,-2.3168 2.745241,-8.3885 2.699956,-5.1525 7.771577,-8.66326 13.941358,-10.19785" id="path5806" inkscape:connector-curvature="0" sodipodi:nodetypes="ccc"/>
      <path style="fill:none;fill-rule:evenodd;stroke:#000000;stroke-width:0.65342677px;stroke-linecap:round;stroke-linejoin:miter;stroke-opacity:1" d="m 18.994308,1014.2789 c 1.549827,-2.5687 2.168658,-2.3351 3.326137,-3.0207" id="path5808" inkscape:connector-curvature="0" sodipodi:nodetypes="cc"/>
      <path transform="matrix(0.16224824,0,0,0.16282804,-175.39771,1249.0556)" style="fill:#69a168;fill-opacity:1;fill-rule:evenodd;stroke:none;stroke-width:1px;stroke-linecap:butt;stroke-linejoin:miter;stroke-opacity:1;filter:url(#filter5153)" d="m 1322.2929,-1552.7949 c -80.1874,48.3561 -9.765,70.4032 40.7143,69.8214 29.4282,-29.2857 42.9181,-63.4888 43.5128,-92.7745 z" id="path5818" inkscape:connector-curvature="0" sodipodi:nodetypes="cccc"/>
      <path style="fill:none;fill-rule:evenodd;stroke:#000000;stroke-width:0.65342677px;stroke-linecap:round;stroke-linejoin:miter;stroke-opacity:1" d="m 21.768542,1008.3021 c 2.832627,-6.1684 9.347445,-8.41225 14.340846,-8.63523" id="path5810" inkscape:connector-curvature="0" sodipodi:nodetypes="cc"/>
      <path style="opacity:1;fill:none;fill-opacity:1;fill-rule:nonzero;stroke:#000000;stroke-width:0.65342677;stroke-linecap:round;stroke-linejoin:round;stroke-miterlimit:4;stroke-dasharray:none;stroke-dashoffset:0;stroke-opacity:1" d="m 22.246963,1011.2815 c -0.08262,-0.065 -0.357579,-0.2298 -0.387579,-0.3202 -0.232096,-0.6997 1.265959,-1.9392 3.476704,-2.9549" id="path5812" inkscape:connector-curvature="0" sodipodi:nodetypes="csc"/>
      <path style="opacity:1;fill:none;fill-opacity:1;fill-rule:nonzero;stroke:#000000;stroke-width:0.65342677;stroke-linecap:round;stroke-linejoin:round;stroke-miterlimit:4;stroke-dasharray:none;stroke-dashoffset:0;stroke-opacity:1" d="m 25.363508,1008.033 c 0.617744,-0.2974 1.635641,-0.4916 2.786711,-0.4916 0.710583,0 1.370414,0.074 1.916671,0.2006" id="path5814" inkscape:connector-curvature="0" sodipodi:nodetypes="csc"/>
      <path style="fill:none;fill-rule:evenodd;stroke:#000000;stroke-width:0.65342677px;stroke-linecap:butt;stroke-linejoin:miter;stroke-opacity:1" d="m 30.120724,1007.6974 c 2.15,0.7559 4.384207,1.0048 6.582784,1.4683" id="path5816" inkscape:connector-curvature="0" sodipodi:nodetypes="cc"/>
      <path style="fill:none;fill-rule:evenodd;stroke:#000000;stroke-width:0.65342677px;stroke-linecap:round;stroke-linejoin:miter;stroke-opacity:1" d="m 41.876485,999.59233 c 6.630096,-1.83856 9.731406,-5.01729 11.328399,-8.92646" id="path5820" inkscape:connector-curvature="0" sodipodi:nodetypes="cc"/>
      <path transform="matrix(0.16224824,0,0,0.16282804,-175.39771,1249.0556)" style="fill:#ffffff;fill-rule:evenodd;stroke:none;stroke-width:1px;stroke-linecap:butt;stroke-linejoin:miter;stroke-opacity:1;filter:url(#filter5444)" d="m 1226.8802,-1357.5938 -2.9505,-5.4091 -2.7865,-16.0634 0.106,-7.7377 1.1011,-6.3747 0.5795,-4.7521 2.6079,-6.8962 3.8248,-5.6213 4.3464,-2.3761 4.8679,0.5216 3.5931,1.7965 1.8544,2.376 3.622,4.868 1.188,3.564 3.3322,8.9246 1.1591,6.8383 0.4636,6.2298 -0.2028,6.9253 -0.6375,6.4326 -0.9272,0.8403 -6.6935,2.3181 -2.8686,0.8113 -6.7224,1.7676 -2.1152,0.4056 z" id="path5822" inkscape:connector-curvature="0"/>
      <path style="opacity:1;fill:none;fill-opacity:1;fill-rule:nonzero;stroke:#000000;stroke-width:0.65342677;stroke-linecap:round;stroke-linejoin:round;stroke-miterlimit:4;stroke-dasharray:none;stroke-dashoffset:0;stroke-opacity:1" d="m 22.313988,1011.2501 c 0.659734,-0.1807 1.340268,-0.2751 2.035907,-0.2751 6.064628,0 10.980993,7.1799 10.980993,16.0369 0,0.1356 -0.0016,0.2708 -0.0034,0.4056" id="path5824" inkscape:connector-curvature="0" sodipodi:nodetypes="cssc"/>
      <path style="opacity:1;fill:none;fill-opacity:1;fill-rule:nonzero;stroke:#000000;stroke-width:0.65342677;stroke-linecap:round;stroke-linejoin:round;stroke-miterlimit:4;stroke-dasharray:none;stroke-dashoffset:0;stroke-opacity:1" d="m 14.082518,1020.8306 c 0.126278,-3.3588 2.574425,-6.7669 5.128505,-7.9979" id="path5826" inkscape:connector-curvature="0" sodipodi:nodetypes="cc"/>
      <path style="fill:#79b76a;fill-opacity:1;fill-rule:evenodd;stroke:none;stroke-width:1px;stroke-linecap:butt;stroke-linejoin:miter;stroke-opacity:1" d="m 17.95454,1033.4897 -0.246277,0.7778 -0.20281,0.7123 -0.02898,0.4653 0.202811,0.2326 0.412873,0.029 0.738797,-0.1164 0.536003,-0.1453 0.239024,-0.094 0.05796,-0.036 -0.550492,-0.5452 -0.615668,-0.6978 -0.456323,-0.596 z" id="path5828" inkscape:connector-curvature="0"/>
      <path transform="matrix(0.16224824,0,0,0.16282804,-175.39771,1249.0556)" style="fill:#ffffff;fill-rule:evenodd;stroke:none;stroke-width:1px;stroke-linecap:butt;stroke-linejoin:miter;stroke-opacity:1;filter:url(#filter5726)" d="m 1174.0184,-1358.0855 11.0641,2.0489 0.4917,-6.3107 -1.803,-10.9001 -0.9835,-8.0317 -1.0654,-6.3926 -1.885,-6.9663 -2.2948,-5.4911 -2.2948,-3.1143 -1.803,-0.4918 -1.2294,0.2459 -1.3113,2.6226 -2.4586,9.5069 -0.4098,9.0152 1.1474,7.0483 3.1143,12.6212 z" id="path5830" inkscape:connector-curvature="0"/>
      <path style="opacity:1;fill:none;fill-opacity:1;fill-rule:nonzero;stroke:#000000;stroke-width:0.65342677;stroke-linecap:round;stroke-linejoin:round;stroke-miterlimit:4;stroke-dasharray:none;stroke-dashoffset:0;stroke-opacity:1" d="m 20.182078,1035.7694 c -1.49992,-1.1942 -3.476623,-3.7832 -4.698676,-6.7724 -0.881219,-2.1555 -1.407682,-4.1995 -1.362269,-5.7774" id="path5832" inkscape:connector-curvature="0" sodipodi:nodetypes="csc"/>
      <path style="opacity:1;fill:none;fill-opacity:1;fill-rule:nonzero;stroke:#000000;stroke-width:0.65342677;stroke-linecap:round;stroke-linejoin:round;stroke-miterlimit:4;stroke-dasharray:none;stroke-dashoffset:0;stroke-opacity:1" d="m 10.398363,1044.2606 c -1.3732849,-1.7167 -2.1304326,-4.1455 -2.1304326,-6.6363 -1.62e-5,-4.6978 2.5437276,-8.8174 6.3637816,-11.1251" id="path5834" inkscape:connector-curvature="0" sodipodi:nodetypes="csc"/>
      <path style="opacity:1;fill:none;fill-opacity:1;fill-rule:nonzero;stroke:#000000;stroke-width:0.65342677;stroke-linecap:round;stroke-linejoin:round;stroke-miterlimit:4;stroke-dasharray:none;stroke-dashoffset:0;stroke-opacity:1" d="m 20.014735,1047.5836 c -0.330061,1.4486 -1.080102,2.3961 -2.044295,2.5777 -1.643023,0.3095 -3.485887,-1.9862 -3.9793,-5.0967" id="path5836" inkscape:connector-curvature="0" sodipodi:nodetypes="csc"/>
      <path style="fill:none;fill-rule:evenodd;stroke:#000000;stroke-width:0.65342677px;stroke-linecap:round;stroke-linejoin:miter;stroke-opacity:1" d="m 14.106417,1039.0601 c -0.383863,1.9738 -0.415015,3.9476 -0.143395,5.9213" id="path5838" inkscape:connector-curvature="0" sodipodi:nodetypes="cc"/>
      <path style="fill:none;fill-rule:evenodd;stroke:#000000;stroke-width:0.65342677px;stroke-linecap:butt;stroke-linejoin:miter;stroke-opacity:1" d="m 19.987445,1047.6411 c 0.583997,-1.2105 1.203363,-1.9594 1.825293,-2.675" id="path5840" inkscape:connector-curvature="0" sodipodi:nodetypes="cc"/>
      <path style="fill:none;fill-rule:evenodd;stroke:#000000;stroke-width:0.65342677px;stroke-linecap:butt;stroke-linejoin:miter;stroke-opacity:1" d="m 21.711333,1045.0243 c 2.740486,-0.3127 5.55903,-0.1239 8.474582,-0.9596" id="path5842" inkscape:connector-curvature="0" sodipodi:nodetypes="cc"/>
      <path style="opacity:1;fill:none;fill-opacity:1;fill-rule:nonzero;stroke:#000000;stroke-width:0.65342671;stroke-linecap:round;stroke-linejoin:round;stroke-miterlimit:4;stroke-dasharray:none;stroke-dashoffset:0;stroke-opacity:1" d="m 37.561818,1042.1765 c 1.067674,2.5468 1.77261,5.9234 0.310981,5.9579 -2.117194,0.05 -3.914077,-0.9148 -7.030865,-3.5563 -0.160951,-0.1364 -0.536133,-0.3427 -0.664245,-0.5052" id="path5844" inkscape:connector-curvature="0" sodipodi:nodetypes="cssc"/>
      <path style="fill:none;fill-rule:evenodd;stroke:#000000;stroke-width:0.65342677px;stroke-linecap:round;stroke-linejoin:miter;stroke-opacity:1" d="m 37.545544,1042.1491 c -1.507075,-2.6161 -2.530326,-5.0217 -2.009785,-7.7767" id="path5846" inkscape:connector-curvature="0" sodipodi:nodetypes="cc"/>
      <path style="fill:none;fill-rule:evenodd;stroke:#000000;stroke-width:0.65342677px;stroke-linecap:round;stroke-linejoin:miter;stroke-opacity:1" d="m 35.333565,1027.434 0.115894,4.4487" id="path5848" inkscape:connector-curvature="0"/>
      <path style="fill:none;fill-rule:evenodd;stroke:#000000;stroke-width:0.65342677px;stroke-linecap:round;stroke-linejoin:miter;stroke-opacity:1" d="m 18.002809,1033.4082 c 0,0 -0.542153,1.323 -0.536004,1.9627 0.0068,0.7123 2.129508,-0.014 2.129508,-0.014" id="path5850" inkscape:connector-curvature="0" sodipodi:nodetypes="csc"/>
      <path style="opacity:1;fill:none;fill-opacity:1;fill-rule:nonzero;stroke:#000000;stroke-width:0.65342677;stroke-linecap:round;stroke-linejoin:round;stroke-miterlimit:4;stroke-dasharray:none;stroke-dashoffset:0;stroke-opacity:1" d="m 23.739436,1037.3507 c 1.46e-4,0.6365 -0.696856,0.9797 -1.187884,1.1512 -0.730231,0.255 -1.163385,-0.4257 -1.187885,-1.1512 -0.02145,-0.6354 0.531834,-1.1511 1.187885,-1.1511 0.65605,0 1.187722,0.5154 1.187884,1.1511 z" id="path5852" inkscape:connector-curvature="0" sodipodi:nodetypes="sssss"/>
      <ellipse style="opacity:1;fill:none;fill-opacity:1;fill-rule:nonzero;stroke:#000000;stroke-width:0.65342677;stroke-linecap:round;stroke-linejoin:round;stroke-miterlimit:4;stroke-dasharray:none;stroke-dashoffset:0;stroke-opacity:1" id="ellipse5854" cx="27.873646" cy="1038.505" rx="1.2804333" ry="1.141088"/>
      <path sodipodi:nodetypes="sssss" inkscape:connector-curvature="0" id="path5856" d="m 31.286283,1036.4784 c -1.62e-4,0.6365 0.682092,1.272 1.187868,1.1512 1.291642,-0.3084 1.271475,-0.5342 1.187884,-1.1512 -0.08534,-0.6299 -0.531817,-1.1511 -1.187884,-1.1511 -0.656051,0 -1.187722,0.5154 -1.187868,1.1511 z" style="opacity:1;fill:none;fill-opacity:1;fill-rule:nonzero;stroke:#000000;stroke-width:0.65342677;stroke-linecap:round;stroke-linejoin:round;stroke-miterlimit:4;stroke-dasharray:none;stroke-dashoffset:0;stroke-opacity:1"/>
      <path style="fill:none;fill-rule:evenodd;stroke:#000000;stroke-width:0.65342677px;stroke-linecap:butt;stroke-linejoin:miter;stroke-opacity:1" d="m 35.487961,1031.9108 c -0.548594,0.6505 -1.058508,1.3186 -0.434598,2.5006 0,0 1.921554,-0.4269 1.94044,-1.1161 0.0171,-0.6239 -1.505842,-1.3845 -1.505842,-1.3845 z" id="path5858" inkscape:connector-curvature="0" sodipodi:nodetypes="ccsc"/>
      <path style="fill:none;fill-rule:evenodd;stroke:#000000;stroke-width:0.65342677px;stroke-linecap:round;stroke-linejoin:miter;stroke-opacity:1" d="m 34.880179,1036.6546 c -0.823734,2.5188 -2.000797,4.0626 -3.257426,5.3867" id="path5860" inkscape:connector-curvature="0" sodipodi:nodetypes="cc"/>
      <path style="fill:none;fill-rule:evenodd;stroke:#000000;stroke-width:0.65342677px;stroke-linecap:round;stroke-linejoin:miter;stroke-opacity:1" d="m 19.412535,1039.8414 c 0.766315,0.9211 1.134229,1.709 1.413604,2.4672" id="path5862" inkscape:connector-curvature="0" sodipodi:nodetypes="cc"/>
      <path style="fill:none;fill-rule:evenodd;stroke:#000000;stroke-width:0.65342677px;stroke-linecap:round;stroke-linejoin:miter;stroke-opacity:1" d="m 13.6762,1043.0077 c -0.761123,1.2442 -1.591656,2.3182 -3.318885,1.1924" id="path5864" inkscape:connector-curvature="0" sodipodi:nodetypes="cc"/>
      <path style="fill:none;fill-rule:evenodd;stroke:#000000;stroke-width:0.65342677px;stroke-linecap:round;stroke-linejoin:miter;stroke-opacity:1" d="m 11.811886,1038.69 c 0.495669,1.8163 1.316483,2.2458 2.007725,3.228" id="path5866" inkscape:connector-curvature="0" sodipodi:nodetypes="cc"/>
      <path style="fill:none;fill-rule:evenodd;stroke:#000000;stroke-width:0.65342677px;stroke-linecap:round;stroke-linejoin:miter;stroke-opacity:1" d="m 11.012895,1031.35 c -0.411478,1.2647 -0.800257,2.5415 -0.409742,4.2355" id="path5868" inkscape:connector-curvature="0" sodipodi:nodetypes="cc"/>
      <path style="fill:none;fill-rule:evenodd;stroke:#000000;stroke-width:0.65342677px;stroke-linecap:round;stroke-linejoin:miter;stroke-opacity:1" d="m 17.828976,1028.7269 c -0.01347,1.5783 1.447368,1.0271 2.109568,1.1653 1.461937,0.3049 2.685954,-0.081 3.047606,-0.6419" id="path5870" inkscape:connector-curvature="0" sodipodi:nodetypes="csc"/>
      <path style="opacity:1;fill:none;fill-opacity:1;fill-rule:nonzero;stroke:#000000;stroke-width:0.65342677;stroke-linecap:round;stroke-linejoin:round;stroke-miterlimit:4;stroke-dasharray:none;stroke-dashoffset:0;stroke-opacity:1" d="m 23.230058,1027.1941 c -0.240144,-0.7423 -0.406546,-1.5929 -0.471461,-2.5027 -0.216553,-3.0354 0.778953,-5.5802 2.223531,-5.6839 1.444577,-0.1038 2.791189,2.2727 3.007741,5.3081 0.06571,0.9209 0.01984,1.7967 -0.116316,2.5729" id="path5872" inkscape:connector-curvature="0" sodipodi:nodetypes="csssc"/>
      <path style="fill:none;fill-rule:evenodd;stroke:#000000;stroke-width:0.65342677px;stroke-linecap:butt;stroke-linejoin:miter;stroke-opacity:1" d="m 24.75962,1027.9165 c 1.094056,-0.2165 2.129216,-0.5511 3.114015,-0.9869" id="path5874" inkscape:connector-curvature="0" sodipodi:nodetypes="cc"/>
      <path style="fill:#944a55;fill-opacity:1;fill-rule:evenodd;stroke:none;stroke-width:1px;stroke-linecap:butt;stroke-linejoin:miter;stroke-opacity:1" d="m 16.062936,1021.9541 -0.317552,-0.1748 -0.32779,0.092 -0.235601,0.6888 -0.225363,1.3672 -0.01022,0.9869 0.102427,0.6682 0.204871,1.0383 0.317552,0.6374 0.409742,0.5859 0.143411,0.2159 0.727278,0.1953 0.133173,-0.5962 -0.122919,-1.0074 -0.317552,-2.0252 -0.266331,-1.8196 z" id="path5876" inkscape:connector-curvature="0"/>
      <path style="fill:none;fill-rule:evenodd;stroke:#000000;stroke-width:0.65342677px;stroke-linecap:round;stroke-linejoin:miter;stroke-opacity:1" d="m 15.950239,1028.0399 0.942402,0.2056" id="path5878" inkscape:connector-curvature="0"/>
      <path style="opacity:1;fill:none;fill-opacity:1;fill-rule:nonzero;stroke:#000000;stroke-width:0.65342677;stroke-linecap:round;stroke-linejoin:round;stroke-miterlimit:4;stroke-dasharray:none;stroke-dashoffset:0;stroke-opacity:1" d="m 14.249488,1024.9535 c -0.254925,-2.3492 0.147646,-4.4197 0.747526,-4.4978 0.59988,-0.078 1.29281,1.7628 1.547718,4.1119 0.153909,1.4183 0.543175,2.8004 0.354529,3.6087" id="path5880" inkscape:connector-curvature="0" sodipodi:nodetypes="cssc"/>
      <path style="fill:#944a55;fill-opacity:1;fill-rule:evenodd;stroke:none;stroke-width:1px;stroke-linecap:butt;stroke-linejoin:miter;stroke-opacity:1" d="m 26.516022,1027.4636 -0.579453,-0.3344 -0.811241,-1.2648 -0.434598,-1.4538 -0.130383,-1.5847 0.173849,-1.0904 0.289727,-0.8432 0.51934,-0.5214 0.532661,-0.062 0.35852,0.1131 0.312425,0.2313 0.414853,0.4318 0.250965,0.478 0.317553,0.9355 0.189506,0.9972 0.09219,1.0537 -0.03073,1.321 -0.348282,1.177 z" id="path5882" inkscape:connector-curvature="0"/>
      <path sodipodi:nodetypes="csssc" inkscape:connector-curvature="0" id="path5884" d="m 26.408306,1027.4038 c -0.778435,-0.3183 -1.507968,-1.6296 -1.74962,-3.275 -0.290603,-1.9787 0.234432,-3.6912 1.17273,-3.8249 0.938282,-0.1337 1.859868,1.257 2.091948,3.3099 0.153162,1.3549 0.14625,2.647 -0.275595,3.337" style="opacity:1;fill:none;fill-opacity:1;fill-rule:nonzero;stroke:#000000;stroke-width:0.65343136;stroke-linecap:round;stroke-linejoin:round;stroke-miterlimit:4;stroke-dasharray:none;stroke-dashoffset:0;stroke-opacity:1"/>
      <path style="opacity:1;fill:none;fill-opacity:1;fill-rule:nonzero;stroke:#000000;stroke-width:0.65342677;stroke-linecap:round;stroke-linejoin:round;stroke-miterlimit:4;stroke-dasharray:none;stroke-dashoffset:0;stroke-opacity:1" d="m 15.901791,1021.8518 c -0.06947,-0.067 -0.142519,-0.1033 -0.217867,-0.1033 -0.444625,0 -0.721631,1.2805 -0.751112,2.8641 0.152205,1.4408 0.446783,2.7682 1.172276,3.3729" id="path5886" inkscape:connector-curvature="0" sodipodi:nodetypes="cscc"/>
      <path style="fill:none;fill-rule:evenodd;stroke:#000000;stroke-width:0.65342677px;stroke-linecap:round;stroke-linejoin:miter;stroke-opacity:1" d="m 10.408536,1044.2515 c 0.654185,-0.593 1.323573,-0.8859 2.058931,0.1234" id="path5888" inkscape:connector-curvature="0" sodipodi:nodetypes="cc"/>
      <path style="fill:none;fill-rule:evenodd;stroke:#000000;stroke-width:0.65342677px;stroke-linecap:round;stroke-linejoin:miter;stroke-opacity:1" d="m 16.525198,1049.8073 c 0.296638,-0.4418 1.551174,-0.9393 2.433723,-0.1599" id="path5890" inkscape:connector-curvature="0" sodipodi:nodetypes="cc"/>
      <path style="fill:none;fill-rule:evenodd;stroke:#000000;stroke-width:0.65342677px;stroke-linecap:round;stroke-linejoin:miter;stroke-opacity:1" d="m 36.242561,1047.9524 c 0.558815,-1.2048 1.453079,-1.2202 2.41745,-0.9869" id="path5892" inkscape:connector-curvature="0" sodipodi:nodetypes="cc"/>
      <path style="fill:none;fill-rule:evenodd;stroke:#000000;stroke-width:0.65342677px;stroke-linecap:round;stroke-linejoin:miter;stroke-opacity:1" d="m 14.104146,1020.5693 c -0.0863,1.1327 -0.04554,2.0467 0.03136,2.8518" id="path5894" inkscape:connector-curvature="0" sodipodi:nodetypes="cc"/>
      <path sodipodi:nodetypes="sssss" inkscape:connector-curvature="0" id="path5896" d="m 23.739436,1037.3507 c 1.46e-4,0.6365 -0.696856,0.9797 -1.187884,1.1512 -0.730231,0.255 -1.163385,-0.4257 -1.187885,-1.1512 -0.02145,-0.6354 0.531834,-1.1511 1.187885,-1.1511 0.65605,0 1.187722,0.5154 1.187884,1.1511 z" style="opacity:1;fill:#79b76a;fill-opacity:1;fill-rule:nonzero;stroke:#000000;stroke-width:0.65342677;stroke-linecap:round;stroke-linejoin:round;stroke-miterlimit:4;stroke-dasharray:none;stroke-dashoffset:0;stroke-opacity:1"/>
      <ellipse ry="1.141088" rx="1.2804333" cy="1038.505" cx="27.873646" id="ellipse5898" style="opacity:1;fill:#79b76a;fill-opacity:1;fill-rule:nonzero;stroke:#000000;stroke-width:0.65342677;stroke-linecap:round;stroke-linejoin:round;stroke-miterlimit:4;stroke-dasharray:none;stroke-dashoffset:0;stroke-opacity:1"/>
      <path style="opacity:1;fill:#79b76a;fill-opacity:1;fill-rule:nonzero;stroke:#000000;stroke-width:0.65342677;stroke-linecap:round;stroke-linejoin:round;stroke-miterlimit:4;stroke-dasharray:none;stroke-dashoffset:0;stroke-opacity:1" d="m 31.286283,1036.4784 c -1.62e-4,0.6365 0.682092,1.272 1.187868,1.1512 1.291642,-0.3084 1.271475,-0.5342 1.187884,-1.1512 -0.08534,-0.6299 -0.531817,-1.1511 -1.187884,-1.1511 -0.656051,0 -1.187722,0.5154 -1.187868,1.1511 z" id="path5900" inkscape:connector-curvature="0" sodipodi:nodetypes="sssss"/>
      <path sodipodi:nodetypes="ccsc" inkscape:connector-curvature="0" id="path5902" d="m 35.487961,1031.9108 c -0.548594,0.6505 -1.058508,1.3186 -0.434598,2.5006 0,0 1.921554,-0.4269 1.94044,-1.1161 0.0171,-0.6239 -1.505842,-1.3845 -1.505842,-1.3845 z" style="fill:#79b76a;fill-opacity:1;fill-rule:evenodd;stroke:#000000;stroke-width:0.65342677px;stroke-linecap:butt;stroke-linejoin:miter;stroke-opacity:1"/>
      <ellipse ry="7.1973367" rx="3.2198613" cy="-1355.5975" cx="1343.87" id="ellipse5904" style="opacity:1;fill:#592f3e;fill-opacity:1;fill-rule:nonzero;stroke:none;stroke-width:1;stroke-linecap:round;stroke-linejoin:round;stroke-miterlimit:4;stroke-dasharray:none;stroke-dashoffset:0;stroke-opacity:1;filter:url(#filter4556)" transform="matrix(0.27954335,-0.03153886,0.04602147,0.33235781,-287.05204,1516.2195)"/>
      <ellipse style="opacity:1;fill:#ffffff;fill-opacity:1;fill-rule:nonzero;stroke:none;stroke-width:1;stroke-linecap:round;stroke-linejoin:round;stroke-miterlimit:4;stroke-dasharray:none;stroke-dashoffset:0;stroke-opacity:1;filter:url(#filter4556)" id="ellipse5906" cx="1239.8243" cy="-1393.9833" rx="3.2198613" ry="7.1973367" transform="matrix(0.16037832,-0.02464963,0.02456186,0.16095144,-138.63565,1277.3093)"/>
      <ellipse transform="matrix(0.17430766,-0.02674207,0.02869642,0.28180895,-179.54259,1442.7605)" style="opacity:1;fill:#592f3e;fill-opacity:1;fill-rule:nonzero;stroke:none;stroke-width:1;stroke-linecap:round;stroke-linejoin:round;stroke-miterlimit:4;stroke-dasharray:none;stroke-dashoffset:0;stroke-opacity:1;filter:url(#filter4556)" id="ellipse5908" cx="1343.87" cy="-1355.5975" rx="3.2198613" ry="7.1973367"/>
      <ellipse ry="7.1973367" rx="3.2198613" cy="-1385.4119" cx="1178.3958" id="ellipse5910" style="opacity:1;fill:#ffffff;fill-opacity:1;fill-rule:nonzero;stroke:none;stroke-width:1;stroke-linecap:round;stroke-linejoin:round;stroke-miterlimit:4;stroke-dasharray:none;stroke-dashoffset:0;stroke-opacity:1;filter:url(#filter4556)" transform="matrix(0.11275824,0,0,0.14666849,-117.23825,1226.7843)"/>
      <path style="fill:none;fill-rule:evenodd;stroke:#000000;stroke-width:0.65342677px;stroke-linecap:round;stroke-linejoin:miter;stroke-opacity:1" d="m 26.367825,1027.4913 1.476216,-0.5567" id="path5912" inkscape:connector-curvature="0"/>
    </g>
  </g>

	
	
	<metadata>
		<rdf:RDF xmlns:rdf="http://www.w3.org/1999/02/22-rdf-syntax-ns#" xmlns:rdfs="http://www.w3.org/2000/01/rdf-schema#" xmlns:dc="http://purl.org/dc/elements/1.1/">
			<rdf:Description about="https://iconscout.com/legal#licenses" dc:title="Chikorita, Pokemon, Bayleef, Overgrow, Pokemongo, Cartoon" dc:description="Chikorita, Pokemon, Bayleef, Overgrow, Pokemongo, Cartoon" dc:publisher="Iconscout" dc:date="2016-12-14" dc:format="image/svg+xml" dc:language="en">
				<dc:creator>
					<rdf:Bag>
						<rdf:li>Pankti Bhalodia</rdf:li>
					</rdf:Bag>
				</dc:creator>
			</rdf:Description>
		</rdf:RDF>
    </metadata></svg>
