<?xml version="1.0" encoding="UTF-8" standalone="no"?>
<svg xmlns:dc="http://purl.org/dc/elements/1.1/" xmlns:cc="http://creativecommons.org/ns#" xmlns:rdf="http://www.w3.org/1999/02/22-rdf-syntax-ns#" xmlns:svg="http://www.w3.org/2000/svg" xmlns="http://www.w3.org/2000/svg" xmlns:sodipodi="http://sodipodi.sourceforge.net/DTD/sodipodi-0.dtd" xmlns:inkscape="http://www.inkscape.org/namespaces/inkscape" width="64" height="64" viewBox="0 0 63.999999 63.999999" id="svg2" version="1.1" inkscape:version="0.91 r13725" sodipodi:docname="9.svg">
  <defs id="defs4">
    <inkscape:path-effect effect="spiro" id="path-effect4231" is_visible="true"/>
  </defs>
  <sodipodi:namedview id="base" pagecolor="#ffffff" bordercolor="#666666" borderopacity="1.0" inkscape:pageopacity="0.0" inkscape:pageshadow="2" inkscape:zoom="3.959798" inkscape:cx="27.120153" inkscape:cy="21.553573" inkscape:document-units="px" inkscape:current-layer="layer1" showgrid="false" units="px" inkscape:window-width="1366" inkscape:window-height="705" inkscape:window-x="-8" inkscape:window-y="-8" inkscape:window-maximized="1"/>
  
  <g inkscape:label="Layer 1" inkscape:groupmode="layer" id="layer1" transform="translate(0,-988.3622)">
    <g transform="translate(-41.816094,-151.97868)" id="g6845">
      <ellipse ry="5.492126" rx="27.473536" cy="1194.2125" cx="77.171432" id="ellipse4710" style="opacity:1;fill:#e8edf1;fill-opacity:1;fill-rule:nonzero;stroke:none;stroke-width:1;stroke-linecap:round;stroke-linejoin:round;stroke-miterlimit:4;stroke-dasharray:none;stroke-dashoffset:0;stroke-opacity:1"/>
      <ellipse style="opacity:1;fill:#fff8aa;fill-opacity:1;fill-rule:nonzero;stroke:#000000;stroke-width:1.00044608;stroke-linecap:round;stroke-linejoin:round;stroke-miterlimit:4;stroke-dasharray:none;stroke-dashoffset:0;stroke-opacity:1" id="ellipse4712" cx="5.7477541" cy="1195.9226" rx="7.9390674" ry="3.013411" transform="matrix(0.99556972,-0.09402619,0.05191343,0.99865159,0,0)"/>
      <path style="fill:none;fill-rule:evenodd;stroke:#000000;stroke-width:1;stroke-linecap:round;stroke-linejoin:miter;stroke-miterlimit:4;stroke-dasharray:none;stroke-opacity:1" d="m 60.175461,1194.8166 2.094697,-0.4421" id="path4714-2" inkscape:connector-curvature="0"/>
      <path style="fill:#ecd160;fill-opacity:1;fill-rule:evenodd;stroke:#000000;stroke-width:1;stroke-linecap:butt;stroke-linejoin:miter;stroke-miterlimit:4;stroke-dasharray:none;stroke-opacity:1" d="m 56.91105,1163.954 c -0.510226,-0.8999 -1.544412,-4.4697 -1.423701,-7.591 0.12071,-3.1213 1.396305,-5.794 1.396305,-5.794 0,0 2.680455,0.067 5.31198,1.0142 2.337315,0.8418 4.636021,2.4729 4.983674,3.9437" id="path4716" inkscape:connector-curvature="0" sodipodi:nodetypes="cscsc"/>
      <path style="fill:#ecd160;fill-opacity:1;fill-rule:evenodd;stroke:#000000;stroke-width:1;stroke-linecap:butt;stroke-linejoin:miter;stroke-miterlimit:4;stroke-dasharray:none;stroke-opacity:1" d="m 72.839457,1157.1267 c 0,0 1.529044,-5.2228 3.219444,-7.0692 1.433805,-1.5661 4.648064,-3.037 4.648064,-3.037 l 3.356221,3.3691 c 2.694849,2.7051 -0.740272,8.6442 -0.740272,8.6442" id="path4718" inkscape:connector-curvature="0" sodipodi:nodetypes="cscsc"/>
      <path style="fill:#ecd160;fill-opacity:1;fill-rule:evenodd;stroke:#000000;stroke-width:1;stroke-linecap:butt;stroke-linejoin:miter;stroke-miterlimit:4;stroke-dasharray:none;stroke-opacity:1" d="m 76.324571,1153.7802 c 0,0 2.74033,-1.9634 4.272948,-1.364 1.879884,0.7353 1.845937,5.2171 1.845937,5.2171" id="path4720" inkscape:connector-curvature="0" sodipodi:nodetypes="csc"/>
      <path style="fill:#ecd160;fill-opacity:1;fill-rule:evenodd;stroke:#000000;stroke-width:1;stroke-linecap:butt;stroke-linejoin:miter;stroke-miterlimit:4;stroke-dasharray:none;stroke-opacity:1" d="m 60.854903,1161.2896 c 0,0 -0.04359,-5.5255 2.928659,-6.5895 2.972229,-1.064 6.578006,4.0165 6.578006,4.0165" id="path4722" inkscape:connector-curvature="0" sodipodi:nodetypes="czc"/>
      <path style="fill:#fff8aa;fill-opacity:1;fill-rule:evenodd;stroke:#000000;stroke-width:1;stroke-linecap:round;stroke-linejoin:miter;stroke-miterlimit:4;stroke-dasharray:none;stroke-opacity:1" d="m 59.513326,1178.9902 c 0,0 2.011355,-6.7957 0.270437,-9.1842 -1.098282,-1.5067 -4.300095,-4.5152 -4.300095,-4.5152 l -3.913041,-3.9042 c 0,0 4.382293,-2.2648 8.329281,-2.6232 2.179628,-0.198 5.931361,1.2828 5.931361,1.2828 0,0 0.05647,-2.3925 1.891661,-8.2606 0.653021,-2.088 3.012393,-6.6685 3.012393,-6.6685 0,0 3.882569,3.3103 5.412125,5.1914 2.977494,3.662 4.253825,6.7095 4.253825,6.7095 0,0 4.243063,-4.6924 8.281226,-5.7559 3.142605,-0.8277 7.004141,0.3423 7.004141,0.3423 0,0 -2.70791,4.61 -4.27229,7.0952 -2.34584,3.7266 -3.733048,6.7797 -3.733048,6.7797 l 1.335016,6.2571" id="path4724" inkscape:connector-curvature="0" sodipodi:nodetypes="csscscscscscscc"/>
      <path style="fill:#c43a46;fill-opacity:1;fill-rule:evenodd;stroke:#000000;stroke-width:1;stroke-linecap:butt;stroke-linejoin:miter;stroke-miterlimit:4;stroke-dasharray:none;stroke-opacity:1" d="m 71.93856,1163.7249 2.666108,-0.7097 c 0,0 0.756207,3.8226 -0.446692,4.3309 -1.235934,0.5216 -2.219416,-3.6212 -2.219416,-3.6212 z" id="path4726" inkscape:connector-curvature="0" sodipodi:nodetypes="ccsc" inkscape:transform-center-x="2.61797" inkscape:transform-center-y="-11.847078"/>
      <path sodipodi:nodetypes="ssscccccccccs" inkscape:connector-curvature="0" id="path4728" d="m 92.476896,1174.2071 c 1.308189,9.3695 -5.57005,18.0898 -15.362976,19.4773 -9.79292,1.3876 -18.792153,-5.0831 -20.100345,-14.4527 -0.654097,-4.6847 1.145527,-10.1988 1.145527,-10.1988 l 3.262695,4.7686 5.727847,-4.2508 4.864177,5.0058 2.627071,-5.3513 5.564892,2.077 2.574594,-4.5616 4.985405,3.6486 1.136376,-5.4174 c 0,0 2.920641,4.5705 3.574737,9.2553 z" style="opacity:1;fill:#eaeae9;fill-opacity:1;fill-rule:nonzero;stroke:#000000;stroke-width:1;stroke-linecap:round;stroke-linejoin:round;stroke-miterlimit:4;stroke-dasharray:none;stroke-dashoffset:0;stroke-opacity:1"/>
      <path inkscape:connector-curvature="0" id="path4730" d="m 82.856462,1170.2312 c -0.333637,0.093 -1.051883,3.6671 -1.104508,3.9052 -0.05259,0.2381 -1.332196,3.8868 -1.057821,4.0206 0.274375,0.1339 5.450699,-1.4018 5.776857,-1.49 0.326164,-0.088 4.936055,-1.4322 5.00162,-1.6732 0.06556,-0.2409 -3.768158,-2.3755 -4.028569,-2.512 -0.26041,-0.1367 -4.253935,-2.3433 -4.587579,-2.2506 z m 0.769104,2.0429 c 0.184548,-0.036 2.61956,1.1729 2.777852,1.2481 0.158299,0.075 2.497923,1.2434 2.47685,1.3611 -0.02107,0.1176 -2.56779,0.6522 -2.748369,0.6867 -0.180579,0.034 -3.036848,0.6479 -3.202946,0.5736 -0.166105,-0.074 0.317848,-1.8476 0.331718,-1.9642 0.01384,-0.1166 0.18034,-1.8688 0.364895,-1.9053 z" style="opacity:1;fill:#cc2405;fill-opacity:1;fill-rule:nonzero;stroke:#000000;stroke-width:1;stroke-linecap:round;stroke-linejoin:round;stroke-miterlimit:4;stroke-dasharray:none;stroke-dashoffset:0;stroke-opacity:1"/>
      <path inkscape:connector-curvature="0" id="path4732" d="m 64.308344,1180.6605 c -0.224228,0.106 -0.706703,4.1897 -0.742074,4.4616 -0.03535,0.272 -0.895755,4.4401 -0.711351,4.5931 0.184397,0.1529 3.663152,-1.6017 3.882361,-1.7026 0.219208,-0.1009 3.318607,-1.6361 3.362666,-1.9114 0.04409,-0.2753 -2.53281,-2.7135 -2.707822,-2.8696 -0.175018,-0.156 -2.859546,-2.677 -3.08378,-2.5711 z m 0.84896,2.2333 c 0.115486,-0.04 1.639407,1.301 1.738463,1.3844 0.09906,0.083 1.56245,1.3793 1.549259,1.5097 -0.01321,0.1305 -1.605804,0.7234 -1.718805,0.7617 -0.113001,0.038 -1.901126,0.7174 -2.005069,0.635 -0.103943,-0.082 0.198959,-2.0487 0.207634,-2.178 0.0087,-0.1293 0.113032,-2.0724 0.228518,-2.1128 z" style="opacity:1;fill:#cc2405;fill-opacity:1;fill-rule:nonzero;stroke:#000000;stroke-width:1;stroke-linecap:round;stroke-linejoin:round;stroke-miterlimit:4;stroke-dasharray:none;stroke-dashoffset:0;stroke-opacity:1"/>
      <path style="opacity:1;fill:none;fill-opacity:1;fill-rule:nonzero;stroke:#000000;stroke-width:1.00000107;stroke-linecap:round;stroke-linejoin:round;stroke-miterlimit:4;stroke-dasharray:none;stroke-dashoffset:0;stroke-opacity:1" id="path4734" sodipodi:type="arc" sodipodi:cx="259.91199" sodipodi:cy="-1134.351" sodipodi:rx="1.2630355" sodipodi:ry="1.2789214" sodipodi:start="0" sodipodi:end="3.1415927" sodipodi:open="true" d="m 261.17502,-1134.351 a 1.2630355,1.2789214 0 0 1 -0.63151,1.1076 1.2630355,1.2789214 0 0 1 -1.26304,0 1.2630355,1.2789214 0 0 1 -0.63152,-1.1076" transform="matrix(-0.95908489,0.28311865,-0.28110598,-0.95967673,0,0)"/>
      <path transform="matrix(-0.92943051,0.3689972,-0.35997213,-0.93296306,0,0)" d="m 347.57724,-1106.4585 a 1.2667843,1.2751939 0 0 1 -0.63339,1.1044 1.2667843,1.2751939 0 0 1 -1.26679,0 1.2667843,1.2751939 0 0 1 -0.63339,-1.1044" sodipodi:open="true" sodipodi:end="3.1415927" sodipodi:start="0" sodipodi:ry="1.2751939" sodipodi:rx="1.2667843" sodipodi:cy="-1106.4585" sodipodi:cx="346.31046" sodipodi:type="arc" id="path4736" style="opacity:1;fill:none;fill-opacity:1;fill-rule:nonzero;stroke:#000000;stroke-width:1.00002348;stroke-linecap:round;stroke-linejoin:round;stroke-miterlimit:4;stroke-dasharray:none;stroke-dashoffset:0;stroke-opacity:1"/>
      <path style="fill:#fff8aa;fill-opacity:1;fill-rule:evenodd;stroke:#000000;stroke-width:1;stroke-linecap:butt;stroke-linejoin:miter;stroke-miterlimit:4;stroke-dasharray:none;stroke-opacity:1" d="m 61.431541,1176.7187 c 1.21725,1.2401 -0.506816,3.4375 -2.367374,4.8751 -1.40023,1.082 -2.137398,-0.08 -4.982339,-2.7582 -1.776819,-1.6728 -4.904817,-5.7888 -2.961192,-5.4248 2.277248,0.4267 4.00268,1.0052 5.96571,1.5713 1.975125,0.5694 3.613847,0.9915 4.345195,1.7366 z" id="path4738" inkscape:connector-curvature="0" sodipodi:nodetypes="ssssss"/>
      <path sodipodi:type="star" style="opacity:1;fill:#0085be;fill-opacity:1;fill-rule:nonzero;stroke:#000000;stroke-width:4.4843564;stroke-linecap:round;stroke-linejoin:round;stroke-miterlimit:4;stroke-dasharray:none;stroke-dashoffset:0;stroke-opacity:1" id="path4740" sodipodi:sides="3" sodipodi:cx="-76.25" sodipodi:cy="24.5" sodipodi:r1="14.146554" sodipodi:r2="7.497674" sodipodi:arg1="0.76040337" sodipodi:arg2="1.8076009" inkscape:flatsided="false" inkscape:rounded="0.06" inkscape:randomized="-0.032" d="m -66.448257,33.972841 c -0.52062,0.512343 -10.496712,-2.004503 -11.21766,-2.195822 -0.720948,-0.19132 -12.124749,-2.250343 -12.357958,-2.946113 -0.233208,-0.69577 8.302875,-9.148681 8.793255,-9.695651 0.490381,-0.54697 8.006358,-8.263446 8.707526,-8.068452 0.701169,0.194994 3.460258,10.713564 3.640669,11.422352 0.18041,0.708789 2.954788,10.971344 2.434168,11.483686 z" transform="matrix(0.22017178,0,0,0.22585936,96.003676,1184.2513)" inkscape:transform-center-x="0.52231122" inkscape:transform-center-y="-0.64022531"/>
      <ellipse transform="matrix(0.99994576,0.01041552,-0.13499634,0.9908461,0,0)" ry="7.7027264" rx="4.7880368" cy="1193.4591" cx="250.25671" id="ellipse4742" style="opacity:1;fill:#fff8aa;fill-opacity:1;fill-rule:nonzero;stroke:#000000;stroke-width:1.00392377;stroke-linecap:round;stroke-linejoin:round;stroke-miterlimit:4;stroke-dasharray:none;stroke-dashoffset:0;stroke-opacity:1"/>
      <path style="fill:none;fill-rule:evenodd;stroke:#000000;stroke-width:1;stroke-linecap:round;stroke-linejoin:miter;stroke-miterlimit:4;stroke-dasharray:none;stroke-opacity:1" d="m 89.837602,1183.5996 1.075976,-5.6781" id="path4744" inkscape:connector-curvature="0"/>
      <path inkscape:transform-center-y="-0.43553281" inkscape:transform-center-x="-0.63367634" transform="matrix(0.97469813,0.22352531,-0.16344969,0.98655167,0,0)" d="m 285.21084,1138.6941 a 3.072417,4.1367803 0 0 1 -3.05793,4.1367 3.072417,4.1367803 0 0 1 -3.08676,-4.0977 l 3.07228,-0.039 z" sodipodi:end="3.1321657" sodipodi:start="0" sodipodi:ry="4.1367803" sodipodi:rx="3.072417" sodipodi:cy="1138.6941" sodipodi:cx="282.13843" sodipodi:type="arc" id="path4746" style="opacity:1;fill:#e48b69;fill-opacity:1;fill-rule:nonzero;stroke:#000000;stroke-width:1.00093865;stroke-linecap:round;stroke-linejoin:round;stroke-miterlimit:4;stroke-dasharray:none;stroke-dashoffset:0;stroke-opacity:1"/>
      <path inkscape:transform-center-y="-0.0069645389" inkscape:transform-center-x="0.57173013" transform="matrix(0.14219434,0.08757954,-0.09232169,0.16843275,81.076172,1189.9206)" d="m -117.90192,-7.0946559 c -0.61914,0.3283365 -10.36898,5.9291145 -11.00971,5.6014621 -0.64072,-0.3276525 -0.1123,-11.1973732 -0.14134,-11.8997412 -0.029,-0.702369 -0.61443,-11.230069 0.0175,-11.572956 0.63194,-0.342887 10.10893,5.175778 10.72253,5.514399 0.6136,0.33862 9.71778,5.681777 9.72191,6.395415 0.004,0.713637 -8.69176,5.6330847 -9.3109,5.9614211 z" inkscape:randomized="-0.032" inkscape:rounded="0.06" inkscape:flatsided="false" sodipodi:arg2="2.0807092" sodipodi:arg1="1.0335116" sodipodi:r2="13.677079" sodipodi:r1="7.2488518" sodipodi:cy="-13.25" sodipodi:cx="-122" sodipodi:sides="3" id="path4748" style="opacity:1;fill:#e33b1c;fill-opacity:1;fill-rule:nonzero;stroke:#000000;stroke-width:5.58705664;stroke-linecap:round;stroke-linejoin:round;stroke-miterlimit:4;stroke-dasharray:none;stroke-dashoffset:0;stroke-opacity:1" sodipodi:type="star"/>
      <path sodipodi:nodetypes="ssssss" inkscape:connector-curvature="0" id="path4750" d="m 86.252993,1169.9272 c 1.217255,1.2401 -0.506821,3.4375 -2.367374,4.8752 -1.40023,1.0819 -2.137399,-0.08 -4.982334,-2.7583 -1.776824,-1.6728 -4.904817,-5.7888 -2.961197,-5.4248 2.277248,0.4266 4.00268,1.0052 5.96571,1.5713 1.975125,0.5695 3.613842,0.9915 4.345195,1.7366 z" style="fill:#fff8aa;fill-opacity:1;fill-rule:evenodd;stroke:#000000;stroke-width:1;stroke-linecap:butt;stroke-linejoin:miter;stroke-miterlimit:4;stroke-dasharray:none;stroke-opacity:1"/>
      <path inkscape:connector-curvature="0" id="path4752" d="m 69.840711,1177.6791 c -0.163915,-0.01 -0.269066,0.011 -0.298549,0.048 -0.235853,0.298 1.618045,5.7737 1.737236,6.1409 0.119197,0.3672 1.519065,6.2297 1.8601,6.2858 0.341029,0.056 3.93271,-4.7044 4.164939,-4.9923 0.232229,-0.2879 3.447649,-4.4954 3.338096,-4.8731 -0.109561,-0.3777 -5.058285,-1.5387 -5.388626,-1.6056 -0.289044,-0.059 -4.265762,-0.9752 -5.413196,-1.0036 z m 1.454658,1.5921 c 0.784949,0.025 3.508723,0.6699 3.706676,0.7113 0.226235,0.047 3.616604,0.8643 3.693164,1.1227 0.07655,0.2584 -2.104243,3.1152 -2.26185,3.3106 -0.157606,0.1954 -2.594726,3.4279 -2.828226,3.388 -0.2335,-0.04 -1.215521,-4.0482 -1.298624,-4.2995 -0.0831,-0.2512 -1.375128,-3.9989 -1.215081,-4.2012 0.02,-0.025 0.09181,-0.036 0.203941,-0.032 z" style="opacity:1;fill:#0085be;fill-opacity:1;fill-rule:nonzero;stroke:#000000;stroke-width:1;stroke-linecap:round;stroke-linejoin:round;stroke-miterlimit:4;stroke-dasharray:none;stroke-dashoffset:0;stroke-opacity:1"/>
      <path inkscape:transform-center-y="-0.040751099" inkscape:transform-center-x="0.049519109" sodipodi:nodetypes="ccsc" inkscape:connector-curvature="0" id="path4754" d="m 72.505226,1164.6266 1.950784,-0.458 c 0,0 0.542813,2.528 -0.337843,2.8589 -0.904821,0.3395 -1.612941,-2.4009 -1.612941,-2.4009 z" style="fill:#db5661;fill-opacity:1;fill-rule:evenodd;stroke:none;stroke-width:1;stroke-linecap:butt;stroke-linejoin:miter;stroke-miterlimit:4;stroke-dasharray:none;stroke-opacity:1"/>
    </g>
  </g>

	
	
	<metadata>
		<rdf:RDF xmlns:rdf="http://www.w3.org/1999/02/22-rdf-syntax-ns#" xmlns:rdfs="http://www.w3.org/2000/01/rdf-schema#" xmlns:dc="http://purl.org/dc/elements/1.1/">
			<rdf:Description about="https://iconscout.com/legal#licenses" dc:title="Pokemon, Egg, Togepi, Cartoon, Video, Game" dc:description="Pokemon, Egg, Togepi, Cartoon, Video, Game" dc:publisher="Iconscout" dc:date="2016-12-14" dc:format="image/svg+xml" dc:language="en">
				<dc:creator>
					<rdf:Bag>
						<rdf:li>Pankti Bhalodia</rdf:li>
					</rdf:Bag>
				</dc:creator>
			</rdf:Description>
		</rdf:RDF>
    </metadata></svg>
