<?xml version="1.0" encoding="UTF-8" standalone="no"?>
<svg xmlns:dc="http://purl.org/dc/elements/1.1/" xmlns:cc="http://creativecommons.org/ns#" xmlns:rdf="http://www.w3.org/1999/02/22-rdf-syntax-ns#" xmlns:svg="http://www.w3.org/2000/svg" xmlns="http://www.w3.org/2000/svg" xmlns:sodipodi="http://sodipodi.sourceforge.net/DTD/sodipodi-0.dtd" xmlns:inkscape="http://www.inkscape.org/namespaces/inkscape" width="64" height="64" viewBox="0 0 63.999999 63.999999" id="svg2" version="1.1" inkscape:version="0.91 r13725" sodipodi:docname="6.svg">
  <defs id="defs4">
    <inkscape:path-effect effect="spiro" id="path-effect4231" is_visible="true"/>
  </defs>
  <sodipodi:namedview id="base" pagecolor="#ffffff" bordercolor="#666666" borderopacity="1.0" inkscape:pageopacity="0.0" inkscape:pageshadow="2" inkscape:zoom="3.959798" inkscape:cx="-30.481236" inkscape:cy="12.15274" inkscape:document-units="px" inkscape:current-layer="g6392" showgrid="false" units="px" inkscape:window-width="1366" inkscape:window-height="705" inkscape:window-x="-8" inkscape:window-y="-8" inkscape:window-maximized="1"/>
  
  <g inkscape:label="Layer 1" inkscape:groupmode="layer" id="layer1" transform="translate(0,-988.3622)">
    <g transform="translate(-29.156195,-327.44195)" id="g6392">
      <ellipse ry="6.4008322" rx="22.072212" cy="1368.4452" cx="61.677807" id="path4202" style="opacity:1;fill:#e8edf1;fill-opacity:1;fill-rule:nonzero;stroke:none;stroke-width:1;stroke-linecap:round;stroke-linejoin:round;stroke-miterlimit:4;stroke-dasharray:none;stroke-dashoffset:0;stroke-opacity:1"/>
      <ellipse transform="matrix(0.62340853,0.78189629,-0.78125625,0.62421043,0,0)" ry="8.4040594" rx="3.7123504" cy="810.14709" cx="1099.1234" id="path4220" style="opacity:1;fill:#f7d4ee;fill-opacity:1;fill-rule:nonzero;stroke:#000000;stroke-width:1.00000024;stroke-linecap:round;stroke-linejoin:round;stroke-miterlimit:4;stroke-dasharray:none;stroke-dashoffset:0;stroke-opacity:1"/>
      <ellipse style="opacity:1;fill:#f7d4ee;fill-opacity:1;fill-rule:nonzero;stroke:#000000;stroke-width:1.00000024;stroke-linecap:round;stroke-linejoin:round;stroke-miterlimit:4;stroke-dasharray:none;stroke-dashoffset:0;stroke-opacity:1" id="ellipse4222" cx="1022.4159" cy="907.03625" rx="3.5087869" ry="8.4040594" transform="matrix(-0.62340853,0.78189629,0.78125625,0.62421043,0,0)"/>
      <path style="fill:#f7d4ee;fill-opacity:1;fill-rule:evenodd;stroke:#000000;stroke-width:1;stroke-linecap:butt;stroke-linejoin:miter;stroke-miterlimit:4;stroke-dasharray:none;stroke-opacity:1" d="m 86.199567,1347.4855 c 0.896364,-1.8407 2.501996,-6.6082 -1.493962,-4.4373 -5.518869,3.0007 -12.083256,14.738 -5.54188,10.7286 3.034508,-1.86 5.810397,-3.7746 7.035842,-6.2913 z" id="path4141" inkscape:connector-curvature="0" sodipodi:nodetypes="ssss"/>
      <g style="stroke:#000000;stroke-width:0.25548849;stroke-miterlimit:4;stroke-dasharray:none;stroke-opacity:1" transform="matrix(3.7827714,0,0,4.0499275,32.209233,-2883.1577)" id="g4193">
        <path style="fill:#f7d4ee;fill-opacity:1;fill-rule:evenodd;stroke:#000000;stroke-width:0.25548849;stroke-linecap:butt;stroke-linejoin:miter;stroke-miterlimit:4;stroke-dasharray:none;stroke-opacity:1" d="m 3.3966859,1046.9358 c 0.5783626,0.014 1.9842748,0.1927 1.1095727,-0.6263 -1.2083332,-1.1314 -4.55248458,-2.22 -3.325092,-0.6656 1.1413914,1.4456 1.441831,1.2731 2.2155192,1.2919 z" id="path4776" inkscape:connector-curvature="0" sodipodi:nodetypes="ssss"/>
        <path style="opacity:1;fill:#f7d4ee;fill-opacity:1;fill-rule:nonzero;stroke:#000000;stroke-width:0.25548849;stroke-linecap:round;stroke-linejoin:round;stroke-miterlimit:4;stroke-dasharray:none;stroke-dashoffset:0;stroke-opacity:1" d="m 12.431831,1037.5516 a 5.4606628,5.6462931 0 0 0 -2.5733368,1.3428 5.2422363,5.4527058 0 0 0 -2.0477485,-0.4393 5.2422363,5.4527058 0 0 0 -2.8139478,0.854 5.4606628,5.6462931 0 0 0 -3.1535328,-0.847 5.4606628,5.6462931 0 0 0 0.8105671,4.4906 5.2422363,5.4527058 0 0 0 -0.085323,0.9546 5.2422363,5.4527058 0 0 0 5.2422363,5.4539 5.2422363,5.4527058 0 0 0 5.2422365,-5.4539 5.2422363,5.4527058 0 0 0 -0.317401,-1.8457 5.4606628,5.6462931 0 0 0 -0.30375,-4.51 z" id="path4714" inkscape:connector-curvature="0"/>
      </g>
      <path inkscape:connector-curvature="0" id="path4588" d="m 78.622445,1320.1435 c 2.447672,4.3113 -0.192426,11.9461 -0.192426,11.9461 0,0 -2.425301,-2.8454 -3.987475,-3.7682 -1.368204,-0.8081 -4.517084,-1.4321 -4.517084,-1.4321 0,0 4.544514,-5.89 8.69699,-6.7458 z" style="opacity:1;fill:#000000;fill-opacity:1;fill-rule:nonzero;stroke:none;stroke-width:1;stroke-linecap:round;stroke-linejoin:round;stroke-miterlimit:4;stroke-dasharray:none;stroke-dashoffset:0;stroke-opacity:1" sodipodi:nodetypes="ccscc"/>
      <path sodipodi:nodetypes="ccscc" style="opacity:1;fill:#000000;fill-opacity:1;fill-rule:nonzero;stroke:none;stroke-width:1;stroke-linecap:round;stroke-linejoin:round;stroke-miterlimit:4;stroke-dasharray:none;stroke-dashoffset:0;stroke-opacity:1" d="m 40.204318,1323.3117 c -1.611128,4.5779 2.308561,11.4555 2.308561,11.4555 0,0 1.849743,-3.1642 3.202798,-4.3272 1.185083,-1.0183 4.131978,-2.1735 4.131978,-2.1735 0,0 -5.459065,-4.8638 -9.643343,-4.9548 z" id="path4191" inkscape:connector-curvature="0"/>
      <g style="stroke-width:0.17439087;stroke-miterlimit:4;stroke-dasharray:none" id="g4204" transform="matrix(3.1373344,0,0,3.306463,93.450705,-2131.4844)">
        <ellipse ry="2.2366071" rx="2.0834327" cy="1050.5988" cx="-6.9165673" id="ellipse4206" style="opacity:1;fill:#dcd8da;fill-opacity:1;fill-rule:nonzero;stroke:#000000;stroke-width:0.31048295;stroke-linecap:round;stroke-linejoin:round;stroke-miterlimit:4;stroke-dasharray:none;stroke-dashoffset:0;stroke-opacity:1"/>
        <ellipse style="opacity:1;fill:#7aafab;fill-opacity:1;fill-rule:nonzero;stroke:#000000;stroke-width:0.31048295;stroke-linecap:round;stroke-linejoin:round;stroke-miterlimit:4;stroke-dasharray:none;stroke-dashoffset:0;stroke-opacity:1" id="ellipse4208" cx="-6.9231653" cy="1050.5988" rx="1.5411204" ry="1.6562499"/>
        <ellipse ry="1.0758927" rx="1.0054061" cy="1050.1523" cx="-7.0570941" id="ellipse4210" style="opacity:1;fill:#408480;fill-opacity:1;fill-rule:nonzero;stroke:none;stroke-width:0.17439087;stroke-linecap:round;stroke-linejoin:round;stroke-miterlimit:4;stroke-dasharray:none;stroke-dashoffset:0;stroke-opacity:1"/>
        <ellipse style="opacity:1;fill:#ffffff;fill-opacity:1;fill-rule:nonzero;stroke:none;stroke-width:0.17439087;stroke-linecap:round;stroke-linejoin:round;stroke-miterlimit:4;stroke-dasharray:none;stroke-dashoffset:0;stroke-opacity:1" id="ellipse4212" cx="-7.2780647" cy="1049.4263" rx="0.27935901" ry="0.34984556"/>
      </g>
      <g transform="matrix(0.52039172,0,0,0.52052813,-13.219731,749.91444)" id="g4274">
        <path style="fill:#d27d73;fill-opacity:1;fill-rule:evenodd;stroke:#000000;stroke-width:1.92137754;stroke-linecap:butt;stroke-linejoin:miter;stroke-miterlimit:4;stroke-dasharray:none;stroke-opacity:1" d="m 135.82832,1154.2532 14.56007,0 c 0,0 -0.0791,9.5758 -6.84505,10.0232 -6.95109,0.4584 -7.71502,-10.0232 -7.71502,-10.0232 z" id="path4183" inkscape:connector-curvature="0" sodipodi:nodetypes="ccsc"/>
        <path style="opacity:1;fill:#e55847;fill-opacity:1;fill-rule:nonzero;stroke:none;stroke-width:1;stroke-linecap:round;stroke-linejoin:round;stroke-miterlimit:4;stroke-dasharray:none;stroke-dashoffset:0;stroke-opacity:1" d="m 143.37208,1156.6808 a 12.369453,11.735224 0 0 0 -6.00376,1.4921 c 0.77703,2.6647 2.38618,5.9151 6.14279,5.6671 3.62077,-0.2401 4.99024,-3.3232 5.58666,-5.8185 a 12.369453,11.735224 0 0 0 -5.72569,-1.3407 z" id="path4224" inkscape:connector-curvature="0"/>
      </g>
      <g transform="matrix(3.1373344,0,0,3.306463,72.660259,-2131.3004)" id="g4264" style="stroke-width:0.17439087;stroke-miterlimit:4;stroke-dasharray:none">
        <ellipse style="opacity:1;fill:#dcd8da;fill-opacity:1;fill-rule:nonzero;stroke:#000000;stroke-width:0.31048295;stroke-linecap:round;stroke-linejoin:round;stroke-miterlimit:4;stroke-dasharray:none;stroke-dashoffset:0;stroke-opacity:1" id="ellipse4266" cx="-6.9165673" cy="1050.5988" rx="2.0834327" ry="2.2366071"/>
        <ellipse ry="1.6562499" rx="1.5411204" cy="1050.5988" cx="-6.9231653" id="ellipse4268" style="opacity:1;fill:#7aafab;fill-opacity:1;fill-rule:nonzero;stroke:#000000;stroke-width:0.31048295;stroke-linecap:round;stroke-linejoin:round;stroke-miterlimit:4;stroke-dasharray:none;stroke-dashoffset:0;stroke-opacity:1"/>
        <ellipse style="opacity:1;fill:#408480;fill-opacity:1;fill-rule:nonzero;stroke:none;stroke-width:0.17439087;stroke-linecap:round;stroke-linejoin:round;stroke-miterlimit:4;stroke-dasharray:none;stroke-dashoffset:0;stroke-opacity:1" id="ellipse4270" cx="-7.0570941" cy="1050.1523" rx="1.0054061" ry="1.0758927"/>
        <ellipse ry="0.34984556" rx="0.27935901" cy="1049.4263" cx="-7.2780647" id="ellipse4272" style="opacity:1;fill:#ffffff;fill-opacity:1;fill-rule:nonzero;stroke:none;stroke-width:0.17439087;stroke-linecap:round;stroke-linejoin:round;stroke-miterlimit:4;stroke-dasharray:none;stroke-dashoffset:0;stroke-opacity:1"/>
      </g>
      <path sodipodi:nodetypes="cczzcc" inkscape:connector-curvature="0" inkscape:original-d="m 67.47008,1324.4525 c -1.346664,-1.9512 -5.305227,-5.78 -8.550577,-4.0061 -1.287287,0.7069 -5.844956,2.4276 -6.187894,6.1373 -0.342959,3.7095 1.35791,10.6023 4.219023,12.8327 2.86113,2.2303 4.330081,0.2203 4.950341,0.1559 3.110793,-0.3396 2.107868,-5.9057 1.575085,-6.7468" inkscape:path-effect="#path-effect4231" id="path4229" d="m 67.47008,1324.4525 c -0.721592,-1.5488 -2.000674,-2.8306 -3.54792,-3.5555 -1.547245,-0.725 -3.350784,-0.8874 -5.002657,-0.4506 -1.458938,0.3858 -2.781193,1.2233 -3.828374,2.31 -1.04718,1.0866 -1.825991,2.4157 -2.35952,3.8273 -0.875468,2.3163 -1.09168,4.9139 -0.389497,7.2885 0.702184,2.3746 2.366253,4.4935 4.60852,5.5442 0.773234,0.3623 1.610614,0.5985 2.463406,0.6424 0.852792,0.044 1.721181,-0.1086 2.486935,-0.4865 1.183382,-0.584 2.081898,-1.7161 2.381908,-3.0012 0.300009,-1.2851 -0.0043,-2.698 -0.806823,-3.7456" style="fill:#f7d4ee;fill-opacity:1;fill-rule:evenodd;stroke:#000000;stroke-width:1;stroke-linecap:butt;stroke-linejoin:miter;stroke-miterlimit:4;stroke-dasharray:none;stroke-opacity:1"/>
      <path inkscape:connector-curvature="0" id="path4233" d="m 60.100845,1336.9813 c 0,0 -2.250159,-1.2682 1.743869,-3.5002 3.994006,-2.2313 5.006574,-2.6371 5.400344,-4.3109 0.39378,-1.6738 0.112498,-0.092 0.112498,-0.092" style="fill:none;fill-rule:evenodd;stroke:#000000;stroke-width:1;stroke-linecap:round;stroke-linejoin:round;stroke-miterlimit:4;stroke-dasharray:none;stroke-opacity:1"/>
      <g transform="matrix(0.52039172,0,0,0.52052813,-13.610025,749.52404)" id="g4304">
        <g id="g4254" transform="matrix(0.7795938,0,0,0.79182757,79.811484,214.86402)">
          <path id="path4235" transform="translate(0,1036.3622)" d="m 28.017578,115.875 c -3.417262,0 -6.1875,1.567 -6.1875,3.5 l 0,0.47656 0,17.89844 0,0.47656 c 0,1.933 2.770238,3.5 6.1875,3.5 3.417262,0 6.1875,-1.567 6.1875,-3.5 l 0,-0.47656 0,-17.89844 0,-0.47656 c 0,-1.933 -2.770238,-3.5 -6.1875,-3.5 z" style="opacity:1;fill:#0ba216;fill-opacity:1;fill-rule:nonzero;stroke:#000000;stroke-width:2.44547486;stroke-linecap:round;stroke-linejoin:round;stroke-miterlimit:4;stroke-dasharray:none;stroke-dashoffset:0;stroke-opacity:1" inkscape:connector-curvature="0"/>
          <ellipse ry="3.5301046" rx="5.8125" cy="1174.2048" cx="28.03125" id="path4243" style="opacity:1;fill:#256d2a;fill-opacity:1;fill-rule:nonzero;stroke:none;stroke-width:1;stroke-linecap:round;stroke-linejoin:round;stroke-miterlimit:4;stroke-dasharray:none;stroke-dashoffset:0;stroke-opacity:1"/>
          <path inkscape:connector-curvature="0" id="rect4245" d="m 31.510633,1153.4419 0,20.5339 c 0,0.9095 0.731318,1.6427 1.640864,1.6427 l 0.260835,0 c 0.444349,-0.467 0.719613,-0.9938 0.719613,-1.5613 l 0,-0.4514 0,-16.9525 0,-0.4514 c 0,-1.1528 -1.042886,-2.1661 -2.621312,-2.76 z" style="opacity:1;fill:#256d2a;fill-opacity:1;fill-rule:nonzero;stroke:none;stroke-width:1;stroke-linecap:round;stroke-linejoin:round;stroke-miterlimit:4;stroke-dasharray:none;stroke-dashoffset:0;stroke-opacity:1"/>
          <path sodipodi:nodetypes="ssccsssccss" inkscape:connector-curvature="0" style="opacity:1;fill:#2e362f;fill-opacity:1;fill-rule:nonzero;stroke:#000000;stroke-width:2.44547486;stroke-linecap:round;stroke-linejoin:round;stroke-miterlimit:4;stroke-dasharray:none;stroke-dashoffset:0;stroke-opacity:1" d="m 28.017578,1172.6549 c -2.152861,0 -3.898099,1.0098 -3.898099,2.2554 l 0,0.3072 0,22.4942 0,0.3071 c 0,1.2457 1.745238,2.2555 3.898099,2.2555 2.152861,0 3.898098,-1.0098 3.898098,-2.2555 l 0,-0.3071 0,-22.4942 0,-0.3072 c 0,-1.2456 -1.745238,-2.2554 -3.898099,-2.2554 z" id="path4241"/>
          <path id="path4250" d="m 28.017578,1178.3118 c -2.152861,0 -3.898099,1.0098 -3.898099,2.2554 l 0,0.3072 0,0.4855 0,0.3071 c 0,1.2457 1.172954,-0.7595 3.898099,-0.7497 2.907168,0.01 3.898098,1.907 3.898098,0.7497 l 0,-0.3071 0,-0.4855 0,-0.3072 c 0,-1.2456 -1.745238,-2.2554 -3.898098,-2.2554 z" style="opacity:1;fill:#f2f2f2;fill-opacity:1;fill-rule:nonzero;stroke:#000000;stroke-width:2.44547486;stroke-linecap:round;stroke-linejoin:round;stroke-miterlimit:4;stroke-dasharray:none;stroke-dashoffset:0;stroke-opacity:1" inkscape:connector-curvature="0" sodipodi:nodetypes="ssccsssccss"/>
          <path sodipodi:nodetypes="ssccsssccss" inkscape:connector-curvature="0" style="opacity:1;fill:#f2f2f2;fill-opacity:1;fill-rule:nonzero;stroke:#000000;stroke-width:2.44547486;stroke-linecap:round;stroke-linejoin:round;stroke-miterlimit:4;stroke-dasharray:none;stroke-dashoffset:0;stroke-opacity:1" d="m 28.017578,1190.0618 c -2.152861,0 -3.898099,1.0098 -3.898099,2.2554 l 0,0.3072 0,0.4855 0,0.3071 c 0,1.2457 1.172954,-0.7595 3.898099,-0.7497 2.907168,0.01 3.898098,1.907 3.898098,0.7497 l 0,-0.3071 0,-0.4855 0,-0.3072 c 0,-1.2456 -1.745238,-2.2554 -3.898098,-2.2554 z" id="path4252"/>
        </g>
        <path style="fill:#f7d4ee;fill-opacity:1;fill-rule:evenodd;stroke:#000000;stroke-width:1.92137754px;stroke-linecap:butt;stroke-linejoin:miter;stroke-opacity:1" d="m 98.49816,1158.7113 c 0,0 -2.227855,-2.1776 -3.008883,-3.63 -0.781029,-1.4523 -1.981694,-3.841 1.095971,-4.3561 2.784844,-0.4662 3.914752,1.262 4.164752,2.262 0.25,1 -2.0625,3.0625 -2.1875,3.8125 -0.125,0.75 -0.06434,1.9116 -0.06434,1.9116 z" id="path4262" inkscape:connector-curvature="0" sodipodi:nodetypes="czsssc"/>
      </g>
    </g>
  </g>

	
	
	<metadata>
		<rdf:RDF xmlns:rdf="http://www.w3.org/1999/02/22-rdf-syntax-ns#" xmlns:rdfs="http://www.w3.org/2000/01/rdf-schema#" xmlns:dc="http://purl.org/dc/elements/1.1/">
			<rdf:Description about="https://iconscout.com/legal#licenses" dc:title="Jigglypuff, Pokemon, Pokemongo, Cartoon, Video, Game, Evolution, Wigglytuff" dc:description="Jigglypuff, Pokemon, Pokemongo, Cartoon, Video, Game, Evolution, Wigglytuff" dc:publisher="Iconscout" dc:date="2016-12-14" dc:format="image/svg+xml" dc:language="en">
				<dc:creator>
					<rdf:Bag>
						<rdf:li>Pankti Bhalodia</rdf:li>
					</rdf:Bag>
				</dc:creator>
			</rdf:Description>
		</rdf:RDF>
    </metadata></svg>
