<?xml version="1.0" encoding="UTF-8" standalone="no"?>
<svg xmlns:dc="http://purl.org/dc/elements/1.1/" xmlns:cc="http://creativecommons.org/ns#" xmlns:rdf="http://www.w3.org/1999/02/22-rdf-syntax-ns#" xmlns:svg="http://www.w3.org/2000/svg" xmlns="http://www.w3.org/2000/svg" xmlns:sodipodi="http://sodipodi.sourceforge.net/DTD/sodipodi-0.dtd" xmlns:inkscape="http://www.inkscape.org/namespaces/inkscape" width="64" height="64" viewBox="0 0 63.999999 63.999999" id="svg2" version="1.1" inkscape:version="0.91 r13725" sodipodi:docname="8.svg">
  <defs id="defs4">
    <inkscape:path-effect effect="spiro" id="path-effect4231" is_visible="true"/>
  </defs>
  <sodipodi:namedview id="base" pagecolor="#ffffff" bordercolor="#666666" borderopacity="1.0" inkscape:pageopacity="0.0" inkscape:pageshadow="2" inkscape:zoom="3.959798" inkscape:cx="27.120153" inkscape:cy="21.553573" inkscape:document-units="px" inkscape:current-layer="layer1" showgrid="false" units="px" inkscape:window-width="1366" inkscape:window-height="705" inkscape:window-x="-8" inkscape:window-y="-8" inkscape:window-maximized="1"/>
  
  <g inkscape:label="Layer 1" inkscape:groupmode="layer" id="layer1" transform="translate(0,-988.3622)">
    <g transform="translate(-35.276741,-707.80874)" id="g6656">
      <ellipse ry="4.4780769" rx="23.154556" cy="1749.8051" cx="68.712601" id="path4688" style="opacity:1;fill:#ececec;fill-opacity:1;fill-rule:nonzero;stroke:none;stroke-width:1;stroke-linecap:round;stroke-linejoin:round;stroke-miterlimit:4;stroke-dasharray:none;stroke-dashoffset:0;stroke-opacity:1"/>
      <path inkscape:connector-curvature="0" id="path4682" d="m 77.949131,1726.4719 5.820267,-4.0068 -1.012218,-2.8281 8.477347,-4.4782 4.301952,7.0707 -8.73041,0.1178 1.012218,3.1818 -11.007905,2.5926 z" style="fill:#ffcc80;fill-opacity:1;fill-rule:evenodd;stroke:#000000;stroke-width:0.99999994px;stroke-linecap:butt;stroke-linejoin:miter;stroke-opacity:1"/>
      <path inkscape:connector-curvature="0" id="path4609" d="m 54.795835,1709.6508 a 9.6038064,7.6398722 42.394209 0 0 2.491329,7.7259 9.6038064,7.6398722 42.394209 0 0 3.211587,2.6218 10.468327,8.1193451 0 0 0 -1.732796,4.4592 10.468327,8.1193451 0 0 0 10.469845,8.1212 10.468327,8.1193451 0 0 0 10.466366,-8.1212 10.468327,8.1193451 0 0 0 -1.757152,-4.4917 7.6398722,9.6038064 47.605791 0 0 2.734891,-2.3397 7.6398722,9.6038064 47.605791 0 0 2.491333,-7.726 7.6398722,9.6038064 47.605791 0 0 -7.129515,3.9343 7.6398722,9.6038064 47.605791 0 0 -2.014638,3.4157 10.468327,8.1193451 0 0 0 -4.791285,-0.9106 10.468327,8.1193451 0 0 0 -5.163591,1.0662 9.6038064,7.6398722 42.394209 0 0 -2.146858,-3.8209 9.6038064,7.6398722 42.394209 0 0 -7.129516,-3.9342 z" style="opacity:1;fill:#ffcc80;fill-opacity:1;fill-rule:nonzero;stroke:#000000;stroke-width:0.99999994;stroke-linecap:round;stroke-linejoin:round;stroke-miterlimit:4;stroke-dasharray:none;stroke-dashoffset:0;stroke-opacity:1"/>
      <path sodipodi:nodetypes="cccc" style="opacity:1;fill:#000000;fill-opacity:1;fill-rule:nonzero;stroke:none;stroke-width:1;stroke-linecap:round;stroke-linejoin:round;stroke-miterlimit:4;stroke-dasharray:none;stroke-dashoffset:0;stroke-opacity:1" d="m 82.341982,1710.8435 c 0.676813,1.881 -1.085242,4.6684 -1.085242,4.6684 l -3.173269,-2.7009 c 0,0 2.423895,-1.9554 4.258511,-1.9675 z" id="path4611" inkscape:connector-curvature="0"/>
      <g id="g4613" transform="matrix(0.88144347,-0.65591961,0.70425196,0.82095059,-627.88399,821.63895)">
        <path sodipodi:nodetypes="cccc" style="opacity:1;fill:#333333;fill-opacity:1;fill-rule:nonzero;stroke:none;stroke-width:1;stroke-linecap:round;stroke-linejoin:round;stroke-miterlimit:4;stroke-dasharray:none;stroke-dashoffset:0;stroke-opacity:1" d="m -54.773438,1037.9247 c -2.226562,1.4375 -2.838171,5.7156 -2.838171,5.7156 l 5.33734,-0.3545 c 0,0 -0.725731,-3.9236 -2.499169,-5.3611 z" id="path4617" inkscape:connector-curvature="0"/>
      </g>
      <ellipse ry="1.7161095" rx="1.7267981" transform="matrix(0.76074892,-0.64904629,0.70121257,0.71295226,0,0)" style="opacity:1;fill:#000000;fill-opacity:1;fill-rule:nonzero;stroke:none;stroke-width:1;stroke-linecap:round;stroke-linejoin:miter;stroke-miterlimit:4;stroke-dasharray:none;stroke-dashoffset:0;stroke-opacity:1" id="circle4627" cx="-1165.1007" cy="1356.3376"/>
      <ellipse ry="0.5720365" rx="0.57559937" transform="matrix(0.76074892,-0.64904629,0.70121257,0.71295226,0,0)" style="opacity:1;fill:#ffffff;fill-opacity:1;fill-rule:nonzero;stroke:none;stroke-width:1;stroke-linecap:round;stroke-linejoin:miter;stroke-miterlimit:4;stroke-dasharray:none;stroke-dashoffset:0;stroke-opacity:1" id="circle4629" cx="-1164.5251" cy="1355.7656"/>
      <ellipse ry="1.7208837" rx="1.7220403" transform="matrix(0.7349798,-0.678089,0.72854428,0.68499871,0,0)" cy="1319.2241" cx="-1207.9901" id="circle4633" style="opacity:1;fill:#000000;fill-opacity:1;fill-rule:nonzero;stroke:none;stroke-width:1;stroke-linecap:round;stroke-linejoin:miter;stroke-miterlimit:4;stroke-dasharray:none;stroke-dashoffset:0;stroke-opacity:1"/>
      <ellipse ry="0.57362789" rx="0.57401347" transform="matrix(0.7349798,-0.678089,0.72854428,0.68499871,0,0)" cy="1318.6505" cx="-1207.4161" id="circle4635" style="opacity:1;fill:#ffffff;fill-opacity:1;fill-rule:nonzero;stroke:none;stroke-width:1;stroke-linecap:round;stroke-linejoin:miter;stroke-miterlimit:4;stroke-dasharray:none;stroke-dashoffset:0;stroke-opacity:1"/>
      <g style="fill:#000000" id="g4637" transform="matrix(1.7815091,0,0,1.3434,73.716633,305.95555)">
        <ellipse ry="0.66205555" rx="1.6657374" cy="1058.6882" cx="-2.5114007" id="ellipse4639" style="opacity:1;fill:#000000;fill-opacity:1;fill-rule:nonzero;stroke:none;stroke-width:1;stroke-linecap:round;stroke-linejoin:miter;stroke-miterlimit:4;stroke-dasharray:none;stroke-dashoffset:0;stroke-opacity:1"/>
        <path style="color:#000000;font-style:normal;font-variant:normal;font-weight:normal;font-stretch:normal;font-size:medium;line-height:normal;font-family:sans-serif;text-indent:0;text-align:start;text-decoration:none;text-decoration-line:none;text-decoration-style:solid;text-decoration-color:#000000;letter-spacing:normal;word-spacing:normal;text-transform:none;direction:ltr;block-progression:tb;writing-mode:lr-tb;baseline-shift:baseline;text-anchor:start;white-space:normal;clip-rule:nonzero;display:inline;overflow:visible;visibility:visible;opacity:1;isolation:auto;mix-blend-mode:normal;color-interpolation:sRGB;color-interpolation-filters:linearRGB;solid-color:#000000;solid-opacity:1;fill:#000000;fill-opacity:1;fill-rule:nonzero;stroke:none;stroke-width:1.11135447;stroke-linecap:round;stroke-linejoin:round;stroke-miterlimit:4;stroke-dasharray:none;stroke-dashoffset:0;stroke-opacity:1;color-rendering:auto;image-rendering:auto;shape-rendering:auto;text-rendering:auto;enable-background:accumulate" d="m -4.4140625,1057.207 c -0.2848951,0.019 -0.5086681,0.2517 -0.5175781,0.5371 -0.035104,0.7439 0.5488822,1.3147 1.2714844,1.586 0.7226021,0.2713 1.5539484,0.2781 2.2851562,0.022 0.73120778,-0.2567 1.33203125,-0.8021 1.33203125,-1.5469 0.01183752,-0.7526 -1.12316565,-0.7526 -1.11132815,0 0,0.1031 -0.8221127,0.1227 -1.2784246,0.2829 -0.4563119,0.1601 0.4742424,0.1843 0.029497,0.017 -0.4447459,-0.167 -1.4239371,-0.2043 -1.4190407,-0.308 0.021392,-0.335 -0.256852,-0.6124 -0.5917969,-0.5899 z" id="path4641" inkscape:connector-curvature="0" sodipodi:nodetypes="ccscccccccc"/>
        <ellipse cx="-2.5278358" cy="1058.9722" rx="0.9716801" ry="0.39723334" id="ellipse4643" style="opacity:1;fill:#000000;fill-opacity:1;fill-rule:nonzero;stroke:none;stroke-width:1;stroke-linecap:round;stroke-linejoin:miter;stroke-miterlimit:4;stroke-dasharray:none;stroke-dashoffset:0;stroke-opacity:1"/>
      </g>
      <ellipse style="opacity:1;fill:#ff2a2a;fill-opacity:1;fill-rule:nonzero;stroke:none;stroke-width:1;stroke-linecap:round;stroke-linejoin:round;stroke-miterlimit:4;stroke-dasharray:none;stroke-dashoffset:0;stroke-opacity:1" id="ellipse4645" cx="473.37677" cy="1574.4111" rx="2.1726856" ry="1.143563" transform="matrix(0.90869897,0.41745202,-0.23335664,0.97239122,0,0)"/>
      <ellipse transform="matrix(-0.67545374,0.73740236,-0.98390545,-0.17868985,0,0)" ry="1.4807581" rx="1.9452014" cy="-1445.7323" cx="1994.1354" id="ellipse4647" style="opacity:1;fill:#ff2a2a;fill-opacity:1;fill-rule:nonzero;stroke:none;stroke-width:1;stroke-linecap:round;stroke-linejoin:round;stroke-miterlimit:4;stroke-dasharray:none;stroke-dashoffset:0;stroke-opacity:1" inkscape:transform-center-x="1.6572815" inkscape:transform-center-y="-0.25110326"/>
      <ellipse style="opacity:1;fill:#000000;fill-opacity:1;fill-rule:nonzero;stroke:none;stroke-width:1;stroke-linecap:round;stroke-linejoin:round;stroke-miterlimit:4;stroke-dasharray:none;stroke-dashoffset:0;stroke-opacity:1" id="ellipse4649" cx="69.141953" cy="1725.524" rx="1.2247875" ry="0.30786249"/>
      <path style="opacity:1;fill:#ff2a2a;fill-opacity:1;fill-rule:nonzero;stroke:#000000;stroke-width:0.99999994;stroke-linecap:round;stroke-linejoin:miter;stroke-miterlimit:4;stroke-dasharray:none;stroke-dashoffset:0;stroke-opacity:1" d="m 45.950775,1705.3492 a 19.713744,18.296612 0.78394793 0 0 -4.249518,8.1401 19.713744,18.296612 0.78394793 0 0 6.292739,17.3985 l 10.0707,-10.6024 a 4.5533776,4.2272617 0 0 1 -0.53672,-0.828 4.5533776,4.2272617 0 0 1 2.307991,-5.585 4.5533776,4.2272617 0 0 1 4.159719,0.2237 l 10.167142,-10.5291 a 19.713744,18.296612 0.78394793 0 0 -19.345365,-3.7708 19.713744,18.296612 0.78394793 0 0 -8.866688,5.553 z" id="path4594" inkscape:connector-curvature="0" inkscape:transform-center-x="-3.1172431" inkscape:transform-center-y="-6.3989385"/>
      <path d="m 91.861521,1731.4742 a 19.690645,18.318077 0 0 1 -9.891589,15.8887 19.690645,18.318077 0 0 1 -19.736694,-0.075 19.690645,18.318077 0 0 1 -9.752356,-15.963 l 19.689994,0.1489 z" sodipodi:end="3.1497257" sodipodi:start="0" sodipodi:ry="18.318077" sodipodi:rx="19.690645" sodipodi:cy="1731.4742" sodipodi:cx="72.170876" sodipodi:type="arc" id="path4596" style="opacity:1;fill:#f2f2f2;fill-opacity:1;fill-rule:nonzero;stroke:#000000;stroke-width:1;stroke-linecap:round;stroke-linejoin:miter;stroke-miterlimit:4;stroke-dasharray:none;stroke-dashoffset:0;stroke-opacity:1" transform="matrix(0.99999905,0.001377,-0.00159765,0.99999872,0,0)"/>
      <path style="opacity:1;fill:#ffffff;fill-opacity:1;fill-rule:nonzero;stroke:#000000;stroke-width:0;stroke-linecap:round;stroke-linejoin:miter;stroke-miterlimit:4;stroke-dasharray:none;stroke-dashoffset:0;stroke-opacity:1" id="path4600" sodipodi:type="arc" sodipodi:cx="70.198631" sodipodi:cy="1732.9214" sodipodi:rx="15.324929" sodipodi:ry="14.256673" sodipodi:start="0" sodipodi:end="3.1497257" d="m 85.523561,1732.9214 a 15.324929,14.256673 0 0 1 -7.698473,12.3659 15.324929,14.256673 0 0 1 -15.360768,-0.058 15.324929,14.256673 0 0 1 -7.590111,-12.4238 l 15.324422,0.116 z" transform="matrix(0.99999927,0.00120603,-0.00139884,0.99999902,0,0)"/>
      <ellipse ry="4.282475" rx="4.5014887" transform="matrix(0.92482523,0.38039229,-0.43069281,0.90249859,0,0)" style="opacity:1;fill:#ffffff;fill-opacity:1;fill-rule:nonzero;stroke:#000000;stroke-width:1.00075817;stroke-linecap:round;stroke-linejoin:miter;stroke-miterlimit:4;stroke-dasharray:none;stroke-dashoffset:0;stroke-opacity:1" id="circle4602" cx="809.81592" cy="1577.7781"/>
      <ellipse cy="1578.1804" cx="810.60974" id="circle4684" style="opacity:1;fill:#000000;fill-opacity:1;fill-rule:nonzero;stroke:none;stroke-width:0.58781987;stroke-linecap:round;stroke-linejoin:miter;stroke-miterlimit:4;stroke-dasharray:none;stroke-dashoffset:0;stroke-opacity:1" transform="matrix(0.92499358,0.37998273,-0.4311347,0.90228758,0,0)" rx="1.5001004" ry="1.4259117"/>
      <rect ry="1.2668244" y="1729.9352" x="57.088264" height="3.3185196" width="5.3660369" id="rect4675" style="opacity:1;fill:#ffcc80;fill-opacity:1;fill-rule:nonzero;stroke:#000000;stroke-width:0.99999994;stroke-linecap:round;stroke-linejoin:round;stroke-miterlimit:4;stroke-dasharray:none;stroke-dashoffset:0;stroke-opacity:1"/>
      <rect style="opacity:1;fill:#ffcc80;fill-opacity:1;fill-rule:nonzero;stroke:#000000;stroke-width:0.99999994;stroke-linecap:round;stroke-linejoin:round;stroke-miterlimit:4;stroke-dasharray:none;stroke-dashoffset:0;stroke-opacity:1" id="rect4677" width="5.3660369" height="3.3185196" x="76.32399" y="1729.6018" ry="1.2668244"/>
      <path inkscape:connector-curvature="0" id="path4263" d="m 88.042579,1717.7887 -0.450615,1.1953 1.892515,0.3842 -2.027678,2.1346 6.57865,-0.085 -3.10909,-5.1656 z" style="fill:#ff0000;fill-rule:evenodd;stroke:none;stroke-width:1px;stroke-linecap:butt;stroke-linejoin:miter;stroke-opacity:1"/>
    </g>
  </g>

	
	
	<metadata>
		<rdf:RDF xmlns:rdf="http://www.w3.org/1999/02/22-rdf-syntax-ns#" xmlns:rdfs="http://www.w3.org/2000/01/rdf-schema#" xmlns:dc="http://purl.org/dc/elements/1.1/">
			<rdf:Description about="https://iconscout.com/legal#licenses" dc:title="Pokemon, Pokeball, Pikachu, Thunder, Electric, Shock" dc:description="Pokemon, Pokeball, Pikachu, Thunder, Electric, Shock" dc:publisher="Iconscout" dc:date="2016-12-14" dc:format="image/svg+xml" dc:language="en">
				<dc:creator>
					<rdf:Bag>
						<rdf:li>Pankti Bhalodia</rdf:li>
					</rdf:Bag>
				</dc:creator>
			</rdf:Description>
		</rdf:RDF>
    </metadata></svg>
