<?xml version="1.0" encoding="UTF-8" standalone="no"?>
<svg xmlns:dc="http://purl.org/dc/elements/1.1/" xmlns:cc="http://creativecommons.org/ns#" xmlns:rdf="http://www.w3.org/1999/02/22-rdf-syntax-ns#" xmlns:svg="http://www.w3.org/2000/svg" xmlns="http://www.w3.org/2000/svg" xmlns:sodipodi="http://sodipodi.sourceforge.net/DTD/sodipodi-0.dtd" xmlns:inkscape="http://www.inkscape.org/namespaces/inkscape" width="64" height="64" viewBox="0 0 63.999999 63.999999" id="svg2" version="1.1" inkscape:version="0.91 r13725" sodipodi:docname="7.svg">
  <defs id="defs4">
    <inkscape:path-effect effect="spiro" id="path-effect4231" is_visible="true"/>
  </defs>
  <sodipodi:namedview id="base" pagecolor="#ffffff" bordercolor="#666666" borderopacity="1.0" inkscape:pageopacity="0.0" inkscape:pageshadow="2" inkscape:zoom="2.8" inkscape:cx="-20.618121" inkscape:cy="6.0115937" inkscape:document-units="px" inkscape:current-layer="layer1" showgrid="false" units="px" inkscape:window-width="1366" inkscape:window-height="705" inkscape:window-x="-8" inkscape:window-y="-8" inkscape:window-maximized="1"/>
  
  <g inkscape:label="Layer 1" inkscape:groupmode="layer" id="layer1" transform="translate(0,-988.3622)">
    <g transform="matrix(0.93446869,0,0,0.93446869,-183.91062,-171.3036)" id="g6472">
      <ellipse style="opacity:1;fill:#e8edf1;fill-opacity:1;fill-rule:nonzero;stroke:none;stroke-width:1;stroke-linecap:round;stroke-linejoin:round;stroke-miterlimit:4;stroke-dasharray:none;stroke-dashoffset:0;stroke-opacity:1" id="path4357" cx="224.07306" cy="1291.2456" rx="25.568182" ry="7.9545455"/>
      <g id="g4335" transform="matrix(1.9867553,0,0,1.9817839,-71.132056,-668.91512)" style="stroke-width:1;stroke-miterlimit:4;stroke-dasharray:none">
        <g transform="translate(139.8812,-64.966682)" id="g4261" style="stroke-width:1;stroke-miterlimit:4;stroke-dasharray:none">
          <path style="fill:#87aade;fill-opacity:1;fill-rule:evenodd;stroke:#000000;stroke-width:0.50396419;stroke-linecap:butt;stroke-linejoin:miter;stroke-miterlimit:4;stroke-dasharray:none;stroke-opacity:1" d="m 3.6731102,1048.4821 c 0,0 -0.818099,1.2867 -1.076829,2.0248 -0.2587055,0.7381 -0.642197,1.8576 -0.3569276,2.5864 0.285244,0.729 1.1356599,1.1345 1.7340922,1.1216 1.2447238,-0.5099 1.514314,-1.7581 1.6152693,-2.3999 0.2170025,-1.4564 0.1097088,-2.6529 0.1097088,-2.6529 z" id="path4249" inkscape:connector-curvature="0" sodipodi:nodetypes="czzcccc"/>
          <path style="opacity:1;fill:#d6deea;fill-opacity:1;fill-rule:nonzero;stroke:#000000;stroke-width:0.50396419;stroke-linecap:round;stroke-linejoin:round;stroke-miterlimit:4;stroke-dasharray:none;stroke-dashoffset:0;stroke-opacity:1" d="m 21.369193,1045.3813 c 2.773217,-0.4941 6.48298,-0.4233 7.067368,2.9279 0.584319,3.3511 -2.815419,5.3904 -5.588779,5.8845 -2.773293,0.4942 -10.020508,-1.479 -12.476921,-2.3875 -1.3876141,-0.5133 8.225038,-5.9307 10.998332,-6.4249 z" id="path4225-3" inkscape:connector-curvature="0" sodipodi:nodetypes="sssss" inkscape:transform-center-x="-19.073009" inkscape:transform-center-y="-3.3008802"/>
          <path style="fill:#87aade;fill-opacity:1;fill-rule:evenodd;stroke:#000000;stroke-width:0.50396419;stroke-linecap:butt;stroke-linejoin:miter;stroke-miterlimit:4;stroke-dasharray:none;stroke-opacity:1" d="m 6.190956,1051.1942 c 1.2723855,0.5804 1.7240042,1.065 4.217638,1.6274 2.493633,0.5624 8.443367,-2.5164 12.170407,-3.1655 -3.665409,-0.7937 -8.069407,2.7171 -11.647236,1.7959 -3.577781,-0.9212 -3.7533848,-1.4402 -3.8591622,-1.5498 -0.1057757,-0.1095 -2.1540313,0.7115 -0.8816468,1.292 z" id="path4245" inkscape:connector-curvature="0" sodipodi:nodetypes="zzczzz"/>
          <path sodipodi:nodetypes="czzcccc" inkscape:connector-curvature="0" id="path4253" d="m 11.043621,1049.2604 c 0,0 0.09783,1.5223 0.323983,2.2713 0.226116,0.7489 0.576262,1.8796 1.236064,2.2999 0.659839,0.4203 1.58528,0.2457 2.060806,-0.1181 0.704304,-1.1468 0.186333,-2.3142 -0.110388,-2.8922 -0.683123,-1.3046 -1.474795,-2.2076 -1.474795,-2.2076 z" style="fill:#87aade;fill-opacity:1;fill-rule:evenodd;stroke:#000000;stroke-width:0.50396419;stroke-linecap:butt;stroke-linejoin:miter;stroke-miterlimit:4;stroke-dasharray:none;stroke-opacity:1"/>
          <path style="opacity:1;fill:#87aade;fill-opacity:1;fill-rule:nonzero;stroke:#000000;stroke-width:0.50396419;stroke-linecap:round;stroke-linejoin:round;stroke-miterlimit:4;stroke-dasharray:none;stroke-dashoffset:0;stroke-opacity:1" d="m 15.855114,1044.3267 c -1e-6,4.1421 -3.712979,7.5355 -7.855114,7.5355 -4.1421352,0 -7.89062444,-3.3934 -7.890625,-7.5355 5.6e-7,-4.1421 3.9371498,-9.0399 7.5243712,-9.1106 4.3466568,-0.086 8.2213668,4.9685 8.2213678,9.1106 z" id="path4301" inkscape:connector-curvature="0" sodipodi:nodetypes="sssss"/>
          <g id="g4367" transform="translate(-18.285937,0.67395172)" style="stroke-width:1;stroke-miterlimit:4;stroke-dasharray:none">
            <path sodipodi:nodetypes="sssss" inkscape:connector-curvature="0" id="path4305" d="m 24.737493,1039.4834 c -0.479511,0.6755 -1.464507,1.1484 -2.14004,0.6688 -0.675534,-0.4795 -0.574685,-1.5364 -0.09517,-2.2119 0.47951,-0.6755 1.505603,-1.2062 2.181137,-0.7267 0.675534,0.4795 0.533587,1.5943 0.05408,2.2698 z" style="opacity:1;fill:#ffffff;fill-opacity:1;fill-rule:nonzero;stroke:#000000;stroke-width:0.50396419;stroke-linecap:round;stroke-linejoin:round;stroke-miterlimit:4;stroke-dasharray:none;stroke-dashoffset:0;stroke-opacity:1"/>
            <ellipse transform="matrix(0.82161714,0.57003971,-0.58763828,0.80912375,0,0)" ry="1.2791613" rx="0.7965498" cy="839.73413" cx="629.73102" id="path4310" style="opacity:1;fill:#000000;fill-opacity:1;fill-rule:nonzero;stroke:#000000;stroke-width:0.5040229;stroke-linecap:round;stroke-linejoin:round;stroke-miterlimit:4;stroke-dasharray:none;stroke-dashoffset:0;stroke-opacity:1"/>
            <circle transform="matrix(0.81544149,0.57883951,-0.57883951,0.81544149,0,0)" r="0.51988637" cy="832.24072" cx="620.6123" id="path4315" style="opacity:1;fill:#ffffff;fill-opacity:1;fill-rule:nonzero;stroke:none;stroke-width:1;stroke-linecap:round;stroke-linejoin:round;stroke-miterlimit:4;stroke-dasharray:none;stroke-dashoffset:0;stroke-opacity:1"/>
          </g>
          <ellipse style="opacity:1;fill:#f5f5f5;fill-opacity:1;fill-rule:nonzero;stroke:#000000;stroke-width:0.50396419;stroke-linecap:round;stroke-linejoin:round;stroke-miterlimit:4;stroke-dasharray:none;stroke-dashoffset:0;stroke-opacity:1" id="path4332" cx="8.2500286" cy="1046.6602" rx="5.2019567" ry="4.2979851"/>
          <ellipse style="opacity:1;fill:#ffaacc;fill-opacity:1;fill-rule:nonzero;stroke:#000000;stroke-width:0.50396419;stroke-linecap:round;stroke-linejoin:round;stroke-miterlimit:4;stroke-dasharray:none;stroke-dashoffset:0;stroke-opacity:1" id="path4330" cx="7.9192357" cy="1042.2094" rx="1.9390321" ry="1.2578813"/>
          <path sodipodi:type="spiral" style="fill:none;fill-rule:evenodd;stroke:#000000;stroke-width:1.02295423;stroke-linecap:butt;stroke-linejoin:miter;stroke-miterlimit:4;stroke-dasharray:none;stroke-opacity:1" id="path4350" sodipodi:cx="4" sodipodi:cy="1026.3622" sodipodi:expansion="1" sodipodi:revolution="3.7155466" sodipodi:radius="6.8571329" sodipodi:argument="-16.800484" sodipodi:t0="0" d="m 4,1026.3622 c -0.1277629,0.2464 -0.395238,-0.051 -0.4096095,-0.2124 -0.038946,-0.4382 0.4645847,-0.6703 0.8343101,-0.6068 0.6613522,0.1136 0.9698824,0.8554 0.8041278,1.4562 -0.2432515,0.8818 -1.250741,1.276 -2.0782297,1.0014 -1.1029123,-0.366 -1.5848389,-1.6475 -1.1986461,-2.7002 0.4859843,-1.3246 2.0450427,-1.895 3.3221493,-1.3959 1.5467473,0.6045 2.205995,2.4429 1.5931644,3.9441 -0.7221996,1.7691 -2.8410211,2.5175 -4.5660689,1.7905 -1.99163585,-0.8394 -2.82924663,-3.2393 -1.98768268,-5.1881 0.95623848,-2.2143 3.63766058,-3.1412 5.80998848,-2.1849 2.4370235,1.0728 3.4534526,4.0361 2.382201,6.4319 -1.1892923,2.6599 -4.4346339,3.7658 -7.053908,2.5795 -2.8826814,-1.3056 -4.0781718,-4.8332 -2.7767194,-7.6759 1.42181796,-3.1055 5.2318002,-4.3906 8.2978277,-2.974 2.8156851,1.3011 4.3200605,4.5012 3.6505785,7.5093" transform="matrix(-0.5303809,0,0,0.45761381,10.476044,577.71428)"/>
          <g transform="matrix(0,-1,1,0,-1027.8881,1062.9927)" id="g4380" style="stroke-width:1;stroke-miterlimit:4;stroke-dasharray:none">
            <path style="opacity:1;fill:#ffffff;fill-opacity:1;fill-rule:nonzero;stroke:#000000;stroke-width:0.50396419;stroke-linecap:round;stroke-linejoin:round;stroke-miterlimit:4;stroke-dasharray:none;stroke-dashoffset:0;stroke-opacity:1" d="m 24.737493,1039.4834 c -0.479511,0.6755 -1.464507,1.1484 -2.14004,0.6688 -0.675534,-0.4795 -0.574685,-1.5364 -0.09517,-2.2119 0.47951,-0.6755 1.505603,-1.2062 2.181137,-0.7267 0.675534,0.4795 0.533587,1.5943 0.05408,2.2698 z" id="path4382" inkscape:connector-curvature="0" sodipodi:nodetypes="sssss"/>
            <ellipse style="opacity:1;fill:#000000;fill-opacity:1;fill-rule:nonzero;stroke:#000000;stroke-width:0.5040229;stroke-linecap:round;stroke-linejoin:round;stroke-miterlimit:4;stroke-dasharray:none;stroke-dashoffset:0;stroke-opacity:1" id="ellipse4384" cx="629.73102" cy="839.73413" rx="0.7965498" ry="1.2791613" transform="matrix(0.82161714,0.57003971,-0.58763828,0.80912375,0,0)"/>
            <circle style="opacity:1;fill:#ffffff;fill-opacity:1;fill-rule:nonzero;stroke:none;stroke-width:1;stroke-linecap:round;stroke-linejoin:round;stroke-miterlimit:4;stroke-dasharray:none;stroke-dashoffset:0;stroke-opacity:1" id="circle4386" cx="620.6123" cy="832.24072" r="0.51988637" transform="matrix(0.81544149,0.57883951,-0.57883951,0.81544149,0,0)"/>
          </g>
        </g>
        <path transform="scale(-1,-1)" sodipodi:open="true" d="m -146.95186,-977.22284 a 0.83605927,0.46356064 0 0 1 -0.41999,0.40208 0.83605927,0.46356064 0 0 1 -0.83802,-0.002 0.83605927,0.46356064 0 0 1 -0.41408,-0.40396" sodipodi:end="3.1497259" sodipodi:start="0" sodipodi:ry="0.46356064" sodipodi:rx="0.83605927" sodipodi:cy="-977.22284" sodipodi:cx="-147.78792" sodipodi:type="arc" id="path4333" style="opacity:1;fill:none;fill-opacity:1;fill-rule:nonzero;stroke:#000000;stroke-width:0.50396419;stroke-linecap:round;stroke-linejoin:round;stroke-miterlimit:4;stroke-dasharray:none;stroke-dashoffset:0;stroke-opacity:1"/>
      </g>
    </g>
  </g>

	
	
	<metadata>
		<rdf:RDF xmlns:rdf="http://www.w3.org/1999/02/22-rdf-syntax-ns#" xmlns:rdfs="http://www.w3.org/2000/01/rdf-schema#" xmlns:dc="http://purl.org/dc/elements/1.1/">
			<rdf:Description about="https://iconscout.com/legal#licenses" dc:title="Poliwag, Pokemon, Pokemongo, Electric, Grass, Cartoon" dc:description="Poliwag, Pokemon, Pokemongo, Electric, Grass, Cartoon" dc:publisher="Iconscout" dc:date="2016-12-14" dc:format="image/svg+xml" dc:language="en">
				<dc:creator>
					<rdf:Bag>
						<rdf:li>Pankti Bhalodia</rdf:li>
					</rdf:Bag>
				</dc:creator>
			</rdf:Description>
		</rdf:RDF>
    </metadata></svg>
