<?xml version="1.0" encoding="UTF-8" standalone="no"?>
<svg xmlns:dc="http://purl.org/dc/elements/1.1/" xmlns:cc="http://creativecommons.org/ns#" xmlns:rdf="http://www.w3.org/1999/02/22-rdf-syntax-ns#" xmlns:svg="http://www.w3.org/2000/svg" xmlns="http://www.w3.org/2000/svg" xmlns:sodipodi="http://sodipodi.sourceforge.net/DTD/sodipodi-0.dtd" xmlns:inkscape="http://www.inkscape.org/namespaces/inkscape" width="64" height="64" viewBox="0 0 64.000001 64.000001" id="svg2" version="1.1" inkscape:version="0.91 r13725" sodipodi:docname="1.svg" inkscape:export-filename="C:\Users\nisha\Desktop\POKEMON\1.png" inkscape:export-xdpi="39.937893" inkscape:export-ydpi="39.937893">
  <defs id="defs4"/>
  <sodipodi:namedview id="base" pagecolor="#ffffff" bordercolor="#666666" borderopacity="1.0" inkscape:pageopacity="0.0" inkscape:pageshadow="2" inkscape:zoom="3.959798" inkscape:cx="25.641021" inkscape:cy="41.717393" inkscape:document-units="px" inkscape:current-layer="layer1" showgrid="false" inkscape:window-width="1366" inkscape:window-height="705" inkscape:window-x="-8" inkscape:window-y="-8" inkscape:window-maximized="1" units="px"/>
  
  <g inkscape:label="Layer 1" inkscape:groupmode="layer" id="layer1" transform="translate(0,-988.36216)">
    <g id="g5573" transform="matrix(0.83510144,0,0,0.83510144,-543.39834,48.173403)">
      <ellipse style="opacity:1;fill:#e8edf1;fill-opacity:1;fill-rule:nonzero;stroke:none;stroke-width:0.96499997;stroke-linecap:round;stroke-linejoin:round;stroke-miterlimit:4;stroke-dasharray:none;stroke-dashoffset:0;stroke-opacity:1" id="ellipse5575" cx="692.25568" cy="1195.3175" rx="28.469982" ry="6.8024883"/>
      <g id="g5577" transform="matrix(1.968784,0,0,1.9656584,-677.9284,-1115.911)" style="stroke-width:0.50833142;stroke-miterlimit:4;stroke-dasharray:none">
        <path style="fill:none;stroke:#000000;stroke-width:0.50833142;stroke-linecap:round;stroke-linejoin:round;stroke-miterlimit:4;stroke-dasharray:none;stroke-opacity:1" d="m 686.51715,1152.5015 c -2.26481,0.1905 -6.41345,-0.2963 -7.17545,-1.4605 -0.0635,-0.7831 1.73566,-1.5875 4.00047,-1.778 l 0,0 c 0.67734,-0.064 1.397,-0.1693 2.07431,-0.1905" id="path5579" inkscape:connector-curvature="0"/>
        <path style="fill:#f7e481;fill-opacity:1;fill-rule:evenodd;stroke:none;stroke-width:0.50833142;stroke-miterlimit:4;stroke-dasharray:none" d="m 699.66156,1170.9163 0.14817,0.4869 -0.1905,0.5291 -0.65617,1.5029 -1.56633,-0.3387 -1.05831,0 -0.42333,0 -0.254,0.2752 -0.40217,0.3598 -0.46566,0.8467 -0.23284,0.5715 0.0212,0.4656 0.254,0.1694 0.33867,0.127 0.1905,0.021 0.0847,0.5504 0.14817,0.4445 0.16933,0.021 0.8043,-0.762 1.143,-1.016 -0.0635,0.381 -0.29633,0.8467 -0.0423,1.0372 0.16933,0.3175 0.5715,-0.2117 0.762,-1.0795 0.55034,-0.7408 1.1853,-1.143 1.2065,-0.6139 0.29634,-0.021 0.508,0.2963 0.59266,0.381 0.14817,0.1482 0.14817,-0.042 0.0423,-0.1905 -0.0423,-0.4021 -0.127,-0.5927 -0.254,-0.2752 -0.40217,-0.381 -1.905,0.085 -0.0847,-0.3175 0.42333,-1.3123 0.35984,-0.9102 -0.0635,-0.4022 -0.0423,-0.3175 z" id="path5581" inkscape:connector-curvature="0"/>
        <path style="fill:#f7e481;fill-opacity:1;fill-rule:evenodd;stroke:none;stroke-width:0.50833142;stroke-miterlimit:4;stroke-dasharray:none" d="m 694.66626,1172.144 -0.3175,0.5715 -4.04281,0 -0.27516,0.2963 -0.65617,0.042 -0.65614,0.508 -0.5715,1.27 0.33867,0.085 0.52914,-0.2328 0.23283,-0.127 0,0.5503 0.0635,0.2964 0.23283,0 0.762,-0.4869 0.65617,-0.4445 -0.254,0.7409 -0.3175,0.7408 0.0847,0.1482 0.508,-0.1905 1.22766,-0.7832 0.71964,-0.508 0.0847,-0.085 0.3175,0.1058 1.0795,0.021 0.35984,-0.127 -0.29634,0.6985 0.27517,0.5504 -0.23283,-0.4869 0.254,-0.762 0.59266,-0.9101 0.42334,-0.3175 0.127,-0.1694 -0.48684,-0.5291 0.29634,-0.3387 -0.0212,-0.2117 -1.10067,-0.085 z" id="path5583" inkscape:connector-curvature="0"/>
        <path style="fill:#fcd438;fill-opacity:1;fill-rule:evenodd;stroke:none;stroke-width:0.50833142;stroke-miterlimit:4;stroke-dasharray:none" d="m 686.64415,1152.6073 1.143,-0.7831 1.46047,-0.7409 1.67217,-0.5503 0.67733,-0.1693 0.55033,-0.889 0.50797,-1.5028 0.254,-1.1854 -0.127,-1.3758 0.0212,-1.2065 -0.16933,-0.9736 -0.25397,-0.3598 -0.3175,-0.1059 -0.508,0.3387 -0.93134,1.1006 -1.24883,2.2014 -0.23283,0.4444 -0.35984,-0.9524 -0.88897,-1.2277 -1.397,-1.27 -1.73564,-1.1853 -1.5875,-0.7832 -1.016,-0.381 -0.80432,-0.063 -0.1905,0.063 0,1.0584 0.21167,1.4816 0.93132,1.9685 0.97366,1.3123 1.24884,1.3758 0.84664,0.7832 c 0.5715,0.1693 -0.86781,0.1905 -1.29114,0.2752 l -1.54517,0.127 -1.65098,0.4445 c -0.42333,0.1905 -0.84666,0.2751 -1.24883,0.6773 l -0.27516,0.381 c -0.0212,0.2116 0.127,0.2328 0.21166,0.2963 l 0.71966,0.4445 c 0.61384,0.254 1.2065,0.381 1.79915,0.5292 l 1.9685,0.2328 1.84147,0.085 0.6985,-0.021 z" id="path5585" inkscape:connector-curvature="0"/>
        <path style="fill:none;stroke:#000000;stroke-width:0.50833142;stroke-linecap:round;stroke-linejoin:round;stroke-miterlimit:4;stroke-dasharray:none;stroke-opacity:1" d="m 687.76598,1151.8453 c 0,0 -0.0212,0 -0.0212,0 -0.93133,0.085 -1.67216,-0.127 -1.69333,-0.4656 -0.0212,-0.3175 0.6985,-0.6562 1.60867,-0.7409 l 0,0 c 0.27516,-0.021 0.55033,-0.021 0.78316,0 0.0212,0 0.0423,0 0.0847,0" id="path5587" inkscape:connector-curvature="0"/>
        <path style="fill:#f1950e;fill-opacity:1;fill-rule:evenodd;stroke:none;stroke-width:0.50833142;stroke-miterlimit:4;stroke-dasharray:none" d="m 687.66015,1151.803 -0.84667,-0.085 c -0.1905,-0.042 -0.35983,-0.063 -0.55033,-0.1693 -0.0635,-0.063 -0.16934,-0.1482 -0.10584,-0.2328 l 0.0635,-0.085 c 0.127,-0.1482 0.29634,-0.1905 0.4445,-0.2752 0.27517,-0.085 0.55034,-0.1693 0.8255,-0.1905 l 0.97367,-0.085 -0.10583,-0.1059 -0.78317,-0.7619 -0.5715,-0.6985 -0.33867,-0.5504 -0.3175,-0.8678 0.0212,-0.2752 c 0,0 0.0212,-0.042 0.14817,-0.1481 0.14816,-0.127 0.508,0 0.508,0 l 0.59266,0.2328 0.74084,0.4868 0.52914,0.381 0.93133,0.8255 c 0,0 0.127,0.1694 0.127,0.1059 0,-0.063 0.10583,-0.4657 0.10583,-0.4657 l 0.16934,-0.6562 0.23283,-0.3386 0.21167,-0.1905 0.29633,0.1693 0.23283,0.508 0.0212,0.8467 -0.10583,0.7196 -0.23284,0.5715 0,0.127 0.61384,-0.1482 1.48164,-0.2328 2.05316,0.042 1.35464,0.2328 1.4605,0.5291 1.18534,0.5927 0.97366,0.6985 0.99481,1.2065 0.5715,0.9525 0.42333,1.524 0.0847,1.3335 -0.254,1.1006 -0.46567,1.4394 -0.5715,0.8678 -0.9948,1.2911 -1.98967,1.5452 -0.48683,0.2752 -0.46567,-0.021 -0.10583,0.1058 0.5715,0.4869 -1.46047,-0.1694 0.0635,0.1905 0.50797,0.5504 0.0423,0.1905 -1.31231,-0.381 -0.14816,0.063 0.508,0.7408 -0.14817,0 -0.80433,-0.3175 -0.254,-0.021 -0.0847,0.085 0.381,0.5503 0.80433,0.8467 1.16414,0.508 1.18533,0.4021 0.1905,-0.1905 -0.46566,-0.8043 0.33866,0 2.77281,0.2328 0.14816,-0.1481 -0.63497,-1.3335 0.0635,0 1.48167,0.1905 0.10583,-0.1058 -0.0635,-0.1482 -0.48683,-0.4022 0.1905,-0.042 0.93133,0.085 0.23284,-0.042 0.0212,-0.127 -1.37584,-1.1641 0,-0.1059 0.889,-0.042 0.91017,-0.3387 0.10583,-0.127 -0.16933,-0.2328 -0.10583,-0.085 0.59266,-0.1905 0.0423,-0.1481 -0.29633,-0.2752 -0.762,-0.2963 -0.40217,-0.127 0.40217,-0.1693 2.18014,-0.127 0.0847,1.6721 -0.27517,1.4605 -0.69847,2.2225 -1.27,1.9261 -1.24883,1.1853 -1.58747,1.1642 -1.524,0.5503 -2.07431,0.4868 -1.05833,-0.042 -1.10067,-0.1693 -1.143,-0.4657 -0.9948,-0.635 -0.6985,-0.6985 -0.78317,-1.0159 -0.127,0 -0.4445,0.4021 -0.10583,-0.063 -0.0635,-1.016 -0.0423,-0.042 -0.4445,0.3599 -0.67731,0.2963 -0.0847,-0.127 0.10584,-1.0583 0.254,-1.016 -1.03717,0.1693 -0.23283,-0.042 -0.0212,-0.1482 c 0,0 0.0423,-0.042 0.10583,-0.127 0.0847,-0.085 1.50281,-1.5028 1.50281,-1.5028 l -0.16934,-0.1482 -1.10064,-0.3387 -1.7145,-0.9313 -1.43931,-1.4182 -0.8255,-1.5239 -0.35983,-1.3124 0.0212,-1.4181 0.21167,-1.2065 0.5715,-1.1853 0.9948,-1.5029 1.31233,-1.3546 z" id="path5589" inkscape:connector-curvature="0"/>
        <path style="fill:#ffcf3c;fill-opacity:1;fill-rule:evenodd;stroke:none;stroke-width:0.50833142;stroke-miterlimit:4;stroke-dasharray:none" d="m 694.30642,1165.3496 0.381,0.6561 c 0,0 0.21167,0.2752 0.254,0.2752 0.0635,0.021 0.35984,0.2752 0.35984,0.2752 l 0.508,0.4021 0.65614,0.2752 0.8255,0.3387 0.35983,0.042 0.254,-0.1058 -0.10583,-0.2752 -0.14817,-0.3175 -0.14817,-0.3175 0.61384,0.1058 1.016,0.127 1.016,0.127 0.52913,-0.042 0.0847,-0.1482 -0.254,-0.762 -0.33866,-0.4656 -0.14814,-0.1693 0.63497,0.1693 0.635,0.021 0.40217,0.063 0.0635,-0.1904 -0.1905,-0.1694 -0.40217,-0.3386 0.84667,0.042 0.381,0 0.29633,-0.085 -0.1905,-0.1693 -0.93133,-0.7832 -0.40217,-0.3175 0.61383,-0.063 0.86784,-0.1693 0.381,-0.1905 0.0212,-0.1482 -0.14817,-0.1693 -0.127,-0.1693 0.52917,-0.127 0.16933,-0.127 -0.0847,-0.1694 -0.40217,-0.254 -0.6985,-0.2963 -0.508,-0.1058 0.762,-0.4868 0.61384,-0.4234 0.1905,-0.2963 -0.23284,-0.127 -0.55033,-0.042 -0.635,-0.1482 -0.635,-0.2117 -0.65617,1.1007 -0.91014,1.0795 -1.88383,1.5451 -0.55033,0.2752 -0.508,-0.063 0.0212,0.1905 0.40216,0.3175 0.14817,0.1482 -0.84667,-0.2329 -0.40213,0.021 -0.27517,0 0.27517,0.3598 0.31747,0.3387 0.0212,0.063 -0.50797,-0.063 -0.61384,-0.1905 -0.1905,-0.021 -0.10583,0.021 0.23283,0.508 0.23284,0.381 -0.4445,-0.2328 -0.59267,-0.127 z" id="path5591" inkscape:connector-curvature="0"/>
        <path style="fill:#b66f35;fill-opacity:1;fill-rule:evenodd;stroke:none;stroke-width:0.50833142;stroke-miterlimit:4;stroke-dasharray:none" d="m 690.13662,1168.7362 1.73567,-0.2751 c 1.54513,2.3071 3.19613,4.5296 9.99058,0.6349 -1.73564,2.2437 -8.31845,5.5033 -11.72625,-0.3598 z" id="path5593" inkscape:connector-curvature="0"/>
        <path style="fill:#ffcf3c;fill-opacity:1;fill-rule:evenodd;stroke:none;stroke-width:0.50833142;stroke-miterlimit:4;stroke-dasharray:none" d="m 688.90895,1165.0744 c -0.0635,0.063 -0.59264,0.4869 -0.6773,0.6138 -0.0847,0.1059 -0.52917,0.5927 -0.5715,0.635 -0.0423,0.021 -0.40217,0.508 -0.40217,0.508 0,0 0.23283,0.127 0.3175,0.127 0.10583,0 0.508,-0.063 0.508,-0.063 0,0 0.3175,-0.085 0.381,-0.127 0.0635,-0.021 0.14817,-0.1058 0.0847,0.063 -0.0635,0.1905 -0.0423,0.1059 -0.0847,0.3599 -0.0635,0.254 -0.127,0.381 -0.21167,0.7196 -0.0635,0.3599 0,0.4234 0,0.635 0,0.1905 0,0.3387 0,0.3387 0,0 -0.254,0.1058 0.16934,0.085 0.40214,-0.021 0.31747,-0.042 0.46564,-0.1694 0.14816,-0.127 -0.0423,-0.1058 0.254,-0.2328 0.29633,-0.127 0.35983,-0.2117 0.35983,-0.2117 0,0 0.0212,-0.021 0.0423,0.127 0.0212,0.127 0,0.1482 0,0.2752 0.0212,0.127 -0.0212,0.1905 0,0.3174 0.0423,0.127 0.0423,0.2964 0.0423,0.2964 0,0 0.127,0.085 0.14816,0.042 0.0212,-0.042 0.16934,-0.1482 0.29634,-0.2963 0.10583,-0.127 0.16933,-0.2116 0.254,-0.2751 0.0847,-0.063 0.254,-0.1694 0.3175,-0.2329 0.0635,-0.085 0.10583,-0.1481 0.14816,-0.2328 0.0635,-0.085 -0.0212,-0.2752 0.0635,0.042 0.0847,0.3175 0.0847,0.3599 0.0635,0.5715 -0.0423,0.2328 -0.0635,0.2539 -0.0212,0.2751 0.0423,0 -0.0423,0.085 0.10584,0.042 0.14816,-0.063 0.1905,-0.085 0.21166,-0.127 0.0212,-0.042 0.10584,-0.085 0.1905,-0.1692 0.0847,-0.085 0.16934,-0.1693 0.23284,-0.2328 0.0635,-0.085 0.14816,-0.1905 0.1905,-0.2752 0.0635,-0.063 0.1905,-0.1482 0.21166,-0.1905 0.0423,-0.021 0.127,-0.254 0.21167,-0.3387 0.0847,-0.085 0.0635,-0.1058 0.21167,-0.254 0.12697,-0.1481 0.2963,-0.5291 0.38097,-0.6773 0.0635,-0.127 0.127,-0.1905 0.16933,-0.2963 0.0635,-0.127 0.14817,-0.1905 0.14817,-0.3175 0.0212,-0.1059 0.0847,-0.1694 0.10583,-0.254 0,-0.1059 0.1905,-0.3387 0.1905,-0.5292 0,-0.1905 0.0423,-0.2116 -0.0423,-0.1905 -0.10583,0.042 -0.14816,0.1482 -0.21166,0.1693 -0.0423,0.021 -0.33867,0.2117 -0.381,0.254 -0.0423,0.021 -0.38098,0.2329 -0.38098,0.2752 -0.0212,0.042 -0.14816,0.2117 -0.14816,0.2117 l -0.0423,-0.3175 0.0635,-0.254 0.0212,-0.3598 -0.0212,-0.1059 -0.27517,0.1059 -0.1905,0.2116 c 0,0 -0.14817,0.1693 -0.254,0.254 -0.10583,0.085 -0.27517,0.3598 -0.27517,0.3598 l -0.10583,-0.1905 c 0,0 0.0635,-0.1481 0.0635,-0.2751 0.0212,-0.1482 0.0423,-0.2752 0.0423,-0.2752 0,0 0.0423,-0.1058 -0.0635,-0.1481 -0.10583,-0.021 0.0635,-0.021 -0.1905,-0.021 -0.27517,0 -0.29633,0.021 -0.46567,0.021 -0.14816,0 -0.4445,-0.064 -0.635,-0.1059 -0.1905,-0.063 -0.27516,-0.1058 -0.40216,-0.1058 -0.10584,0 -0.10584,0.042 -0.29634,-0.021 -0.1905,-0.063 -0.3175,-0.063 -0.3175,-0.063 z" id="path5595" inkscape:connector-curvature="0"/>
        <path style="fill:none;stroke:#000000;stroke-width:0.50833142;stroke-linecap:round;stroke-linejoin:round;stroke-miterlimit:4;stroke-dasharray:none;stroke-opacity:1" d="m 691.21612,1165.3496 c -3.68297,-0.1058 -6.81561,-2.0108 -7.70461,-5.0165 -0.91017,-3.1538 0.91016,-6.5404 4.25447,-8.5089 m 3.11147,-1.2489 c 4.95297,-1.2699 9.82125,0.7832 10.94308,4.6567 0.93134,3.2173 -1.016,6.7309 -4.52963,8.6571" id="path5597" inkscape:connector-curvature="0"/>
        <path style="fill:none;stroke:#000000;stroke-width:0.50833142;stroke-linecap:round;stroke-linejoin:round;stroke-miterlimit:4;stroke-dasharray:none;stroke-opacity:1" d="m 688.52798,1150.6388 c -0.3175,-0.2328 -0.65617,-0.5291 -0.99483,-0.8889 -0.97367,-1.0372 -1.43934,-2.159 -1.03717,-2.5189 0.381,-0.3386 2.43414,1.016 3.40781,2.0532" id="path5599" inkscape:connector-curvature="0"/>
        <path style="fill:none;stroke:#000000;stroke-width:0.50833142;stroke-linecap:round;stroke-linejoin:round;stroke-miterlimit:4;stroke-dasharray:none;stroke-opacity:1" d="m 689.94612,1149.2419 c 0.127,-0.9102 0.508,-1.6087 0.8255,-1.5452 0.33867,0.063 0.508,0.8467 0.381,1.7568 -0.0635,0.4022 -0.16933,0.762 -0.29633,1.0372 -0.0212,0.021 -0.0212,0.063 -0.0423,0.085" id="path5601" inkscape:connector-curvature="0"/>
        <path style="fill:none;stroke:#000000;stroke-width:0.50833142;stroke-linecap:round;stroke-linejoin:round;stroke-miterlimit:4;stroke-dasharray:none;stroke-opacity:1" d="m 685.43765,1149.0725 c -0.71964,-0.5503 -1.43931,-1.2488 -2.15898,-2.0743 -2.07431,-2.4553 -2.30715,-4.2756 -2.24365,-5.9266 0.84666,-0.8043 7.7046,2.7516 8.10677,6.0113" id="path5603" inkscape:connector-curvature="0"/>
        <path style="fill:none;stroke:#000000;stroke-width:0.50833142;stroke-linecap:round;stroke-linejoin:round;stroke-miterlimit:4;stroke-dasharray:none;stroke-opacity:1" d="m 689.12062,1147.0405 c 0.3175,-1.2488 2.2225,-4.3391 3.02683,-4.2544 0.82547,0.085 0.67731,2.0955 0.74081,3.3866 0.0423,0.9737 -0.40214,3.429 -1.35464,4.191" id="path5605" inkscape:connector-curvature="0"/>
        <path style="fill:#000000;fill-opacity:1;fill-rule:nonzero;stroke:#000000;stroke-width:0.50833142;stroke-linecap:round;stroke-linejoin:round;stroke-miterlimit:4;stroke-dasharray:none;stroke-opacity:1" d="m 689.86145,1158.28 c 0,1.016 -0.74083,1.8415 -1.65097,1.8415 -0.91017,0 -1.651,-0.8255 -1.651,-1.8415 0,-1.0372 0.74083,-1.8627 1.651,-1.8627 0.91014,0 1.65097,0.8255 1.65097,1.8627 z" id="path5607" inkscape:connector-curvature="0"/>
        <path style="fill:#000000;fill-opacity:1;fill-rule:nonzero;stroke:#000000;stroke-width:0.50833142;stroke-linecap:round;stroke-linejoin:round;stroke-miterlimit:4;stroke-dasharray:none;stroke-opacity:1" d="m 699.28056,1156.7772 c -0.59266,0.5715 -1.651,0.4233 -2.3495,-0.2964 -0.71964,-0.7408 -0.82547,-1.7991 -0.23283,-2.3495 0.5715,-0.5715 1.62983,-0.4445 2.3495,0.2964 0.6985,0.7196 0.80433,1.778 0.23283,2.3495 z" id="path5609" inkscape:connector-curvature="0"/>
        <path style="fill:#f7df7c;fill-opacity:1;fill-rule:evenodd;stroke:#000000;stroke-width:0.50833142;stroke-linecap:round;stroke-linejoin:miter;stroke-miterlimit:4;stroke-dasharray:none;stroke-opacity:1" d="m 691.15262,1160.7353 c -0.35983,1.0795 7.17544,-0.5292 6.64628,-2.2013 -4.76248,-1.0795 -1.88381,-3.1962 -6.64628,2.2013 z" id="path5611" inkscape:connector-curvature="0"/>
        <path style="fill:#c26b29;fill-opacity:1;fill-rule:evenodd;stroke:none;stroke-width:0.50833142;stroke-miterlimit:4;stroke-dasharray:none" d="m 693.20576,1165.1803 c 0.3175,0.2328 0.23283,0.5503 0.10583,0.8678 0.46567,-0.4445 0.80433,-0.4657 1.10067,-0.3387 -0.14817,-0.2116 -0.27517,-0.4233 -0.10584,-0.6985 -0.27516,0.127 -0.635,0.1905 -1.10066,0.1694 z" id="path5613" inkscape:connector-curvature="0"/>
        <path style="fill:#d69322;fill-opacity:1;fill-rule:evenodd;stroke:none;stroke-width:0.50833142;stroke-miterlimit:4;stroke-dasharray:none" d="m 691.17379,1165.4554 c -0.5715,0.381 -2.70931,1.5875 -1.75684,1.397 0.381,-0.085 0.762,-0.2328 0.80434,-0.1905 -0.48684,0.1693 -0.889,1.143 -0.65617,1.0372 l 2.20133,-0.9314 c 0,0 0.0847,1.397 0.254,1.2489 0.46567,-0.4022 1.16414,-1.8839 1.16414,-1.8839 l 0.0847,-0.4868 -0.9948,0.6985 -0.0635,-0.9313 -0.99484,0.9101 z" id="path5615" inkscape:connector-curvature="0"/>
        <path style="fill:none;stroke:#000000;stroke-width:0.50833142;stroke-linecap:butt;stroke-linejoin:miter;stroke-miterlimit:4;stroke-dasharray:none;stroke-opacity:1" d="m 688.97245,1165.0744 c 0,0 -1.20647,0.9948 -1.6298,1.651 -0.27517,0.4445 1.27,0 1.27,0 0,0 -0.33867,0.9948 -0.381,2.0955 0,0.5291 1.2488,-0.5292 1.2488,-0.5292 0,0 0.14817,0.7409 0.0847,1.1006 -0.10583,0.4234 1.27,-1.1006 1.27,-1.1006 0,0 -0.0847,1.2276 0.16933,1.016 1.10067,-0.9101 2.05314,-2.4341 2.41298,-3.7041 0.127,-0.4657 -1.22764,0.8043 -1.22764,0.8043 0,0 0.127,-0.4233 0.10583,-0.9948 -0.0212,-0.4657 -1.05833,0.889 -1.05833,0.889 l 0.0212,-1.0372" id="path5617" inkscape:connector-curvature="0"/>
        <path style="fill:#d59122;fill-opacity:1;fill-rule:evenodd;stroke:none;stroke-width:0.50833142;stroke-miterlimit:4;stroke-dasharray:none" d="m 700.29653,1165.8787 -1.1853,-1.1006 1.33347,0.1482 c 0,0 -0.16933,-0.635 -0.3598,-0.9102 -0.1905,-0.2752 -0.78317,-0.6985 -0.78317,-0.6985 l 1.5028,0.127 1.7145,1.3547 -0.127,0.1481 -1.3335,-0.1481 0.67734,0.762 -1.79914,-0.254 z" id="path5619" inkscape:connector-curvature="0"/>
        <path style="fill:#d99926;fill-opacity:1;fill-rule:evenodd;stroke:none;stroke-width:0.50833142;stroke-miterlimit:4;stroke-dasharray:none" d="m 701.9052,1161.7513 c 0,0 -0.80433,0.635 -0.889,0.7196 -0.21167,0.1905 1.10067,0.127 1.10067,0.127 0,0 -0.762,0.2117 -1.22767,0.3175 -0.254,0.042 1.03717,0.5504 1.03717,0.5504 l 0.8255,-0.127 0.29633,-0.2117 -0.254,-0.3387 -0.16933,-0.063 c 0,0 0.889,-0.2328 0.762,-0.2751 -0.0423,-0.021 -0.1905,-0.3175 -0.254,-0.3387 -0.0423,0 -0.1905,-0.085 -0.3175,-0.1058 -0.127,0 -0.91017,-0.2752 -0.91017,-0.2752 l 0.0212,0.1482 z" id="path5621" inkscape:connector-curvature="0"/>
        <path style="fill:none;stroke:#000000;stroke-width:0.50833142;stroke-linecap:round;stroke-linejoin:miter;stroke-miterlimit:4;stroke-dasharray:none;stroke-opacity:1" d="m 697.33323,1163.8468 c 0,0 -0.74083,-0.063 -0.61383,0.085 0.33866,0.3387 0.762,0.5715 0.762,0.5715 0,0 -2.03198,-0.4868 -1.62981,-0.1058 0.52914,0.4868 0.86781,0.7832 0.57147,0.7197 -0.65614,-0.127 -1.54514,-0.6139 -1.35464,-0.2117 0.27517,0.508 0.52917,0.8043 0.52917,0.8043 0,0 -1.56633,-0.7196 -1.31233,-0.3386 0.99483,1.6086 2.37064,1.9684 3.5348,2.2648 0.35984,0.085 -0.381,-1.0372 -0.381,-1.0372 0,0 1.5875,0.2752 3.13264,0.3175 0.52917,0 -0.4868,-1.524 -0.4868,-1.524 0,0 0.78313,0.254 1.6298,0.1694 0.3175,-0.021 -0.65617,-0.6774 -0.65617,-0.6774 0,0 1.86267,0.3175 1.48167,-0.127 -0.42333,-0.508 -1.4605,-1.1641 -1.4605,-1.1641 0,0 1.27,0.021 1.9685,-0.4234 0.127,-0.1058 -0.23283,-0.4445 -0.23283,-0.4445 0,0 0.74083,-0.1058 0.635,-0.3175 -0.23284,-0.508 -1.67217,-0.7619 -1.67217,-0.7619 0,0 2.159,-1.2489 1.3335,-1.3335 -0.6985,-0.085 -1.48167,-0.2964 -1.48167,-0.2964 l -0.21166,-0.085" id="path5623" inkscape:connector-curvature="0"/>
        <path style="fill:#d4b04a;fill-opacity:1;fill-rule:evenodd;stroke:none;stroke-width:0.50833142;stroke-miterlimit:4;stroke-dasharray:none" d="m 694.66626,1172.1228 c 0.127,0.085 -0.33867,0.762 -0.55034,1.2277 0.4445,-0.063 0.9525,0.1693 1.16417,0.254 0.10583,-0.2117 0.46567,-0.3598 0.508,-0.4445 0.127,-0.254 -0.33867,-0.2963 -0.35983,-0.4022 -0.0635,-0.254 0.21166,-0.4868 0.23283,-0.6138 z" id="path5625" inkscape:connector-curvature="0"/>
        <path style="fill:none;stroke:#000000;stroke-width:0.50833142;stroke-linecap:round;stroke-linejoin:round;stroke-miterlimit:4;stroke-dasharray:none;stroke-opacity:1" d="m 704.63567,1161.4761 c 0.381,5.969 -3.76764,10.0752 -8.59358,10.5409 -2.413,0.2117 -4.46614,-0.889 -5.86314,-3.0268" id="path5627" inkscape:connector-curvature="0"/>
        <path style="fill:none;stroke:#000000;stroke-width:0.50833142;stroke-linecap:round;stroke-linejoin:miter;stroke-miterlimit:4;stroke-dasharray:none;stroke-opacity:1" d="m 701.86287,1161.582 2.73047,-0.1905" id="path5629" inkscape:connector-curvature="0"/>
        <path style="fill:none;stroke:#000000;stroke-width:0.50833142;stroke-linecap:butt;stroke-linejoin:miter;stroke-miterlimit:4;stroke-dasharray:none;stroke-opacity:1" d="m 694.68742,1172.0382 -0.762,1.5451 c -0.508,-0.2963 -1.27,-0.2116 -2.09547,0 -1.24883,0.8679 -0.84666,1.143 -1.37583,2.159 -0.55033,1.0372 1.905,-0.7408 2.49764,-1.1853 0.71966,0.1693 1.31233,0.1058 1.86266,-0.021 0.254,-0.508 0.52917,-1.016 1.12184,-1.3758 -0.14817,-0.1694 -0.23284,-0.2964 -0.48684,-0.508 0.14817,-0.127 0.21167,-0.3387 0.23284,-0.5715" id="path5631" inkscape:connector-curvature="0"/>
        <path style="fill:none;stroke:#000000;stroke-width:0.50833142;stroke-linecap:butt;stroke-linejoin:miter;stroke-miterlimit:4;stroke-dasharray:none;stroke-opacity:1" d="m 694.34876,1172.6732 -4.04281,0.021 c -1.50283,1.5664 -1.03716,2.8787 -0.889,2.7729 l 1.54517,-1.0584" id="path5633" inkscape:connector-curvature="0"/>
        <path style="fill:none;stroke:#000000;stroke-width:0.50833142;stroke-linecap:butt;stroke-linejoin:miter;stroke-miterlimit:4;stroke-dasharray:none;stroke-opacity:1" d="m 690.05195,1172.9907 c -0.762,-0.042 -1.31233,0.085 -1.92614,1.8203 -0.10583,0.2963 0.76198,-0.085 1.12181,-0.2752" id="path5635" inkscape:connector-curvature="0"/>
        <path style="fill:#d4b04a;fill-opacity:1;fill-rule:evenodd;stroke:none;stroke-width:0.50833142;stroke-miterlimit:4;stroke-dasharray:none" d="m 699.7674,1170.9587 c 0.14816,0.1481 0,0.7408 -0.254,1.4816 0.55033,-0.1058 0.8043,0.021 1.0583,0.1694 0.40217,-1.1642 0.71967,-1.8204 0.80433,-2.159 0.0847,-0.381 -0.10583,-0.381 -0.0847,-0.5715 z" id="path5637" inkscape:connector-curvature="0"/>
        <path style="fill:none;stroke:#000000;stroke-width:0.50833142;stroke-linecap:butt;stroke-linejoin:miter;stroke-miterlimit:4;stroke-dasharray:none;stroke-opacity:1" d="m 699.6404,1170.9163 c 0.46566,0.4022 -0.40217,1.651 -0.65617,2.5189 -0.9525,-0.2329 -1.86267,-0.5504 -3.02681,-0.2752 l 0,0" id="path5639" inkscape:connector-curvature="0"/>
        <path style="fill:none;stroke:#000000;stroke-width:0.50833142;stroke-linecap:round;stroke-linejoin:miter;stroke-miterlimit:4;stroke-dasharray:none;stroke-opacity:1" d="m 694.72976,1174.7052 c -0.52917,0.9313 0.0212,1.0795 0.61383,1.2065 0.3175,-2.4765 2.32831,-1.778 3.32314,-2.413" id="path5641" inkscape:connector-curvature="0"/>
        <path style="fill:none;stroke:#000000;stroke-width:0.50833142;stroke-linecap:round;stroke-linejoin:miter;stroke-miterlimit:4;stroke-dasharray:none;stroke-opacity:1" d="m 695.40709,1175.9752 c 0,0 0.0423,1.2065 0.29633,0.9736 1.46048,-1.3758 3.97931,-3.2808 3.97931,-3.2808" id="path5644" inkscape:connector-curvature="0"/>
        <path style="fill:#d4b04a;fill-opacity:1;fill-rule:evenodd;stroke:none;stroke-width:0.50833142;stroke-miterlimit:4;stroke-dasharray:none" d="m 701.94753,1173.8373 -0.127,0.063 c -1.143,0.508 -1.5875,0.7409 -4.1698,3.8312 0.0847,-1.3123 1.56633,-3.0692 4.2968,-3.8947 z" id="path5646" inkscape:connector-curvature="0"/>
        <path style="fill:none;stroke:#000000;stroke-width:0.50833142;stroke-linecap:round;stroke-linejoin:miter;stroke-miterlimit:4;stroke-dasharray:none;stroke-opacity:1" d="m 697.77773,1175.2343 c -0.5715,1.2912 -0.61383,2.794 -0.14817,2.4977 1.12184,-0.7408 1.88384,-3.0903 4.19097,-3.7677 0.8255,0 1.5875,1.143 1.60867,0.6139 0.0423,-0.5927 0.0212,-1.1642 -0.8255,-1.6934 l -1.905,0.063 c -0.127,-0.9313 1.12183,-2.4765 0.61383,-3.1961" id="path5648" inkscape:connector-curvature="0"/>
        <path style="fill:#fdfdfd;fill-opacity:1;fill-rule:nonzero;stroke:none;stroke-width:0.50833142;stroke-miterlimit:4;stroke-dasharray:none" d="m 689.48045,1157.645 c 0,0.508 -0.381,0.889 -0.84664,0.889 -0.4445,0 -0.8255,-0.381 -0.8255,-0.889 0,-0.4868 0.381,-0.889 0.8255,-0.889 0.46564,0 0.84664,0.4022 0.84664,0.889 z" id="path5650" inkscape:connector-curvature="0"/>
        <path style="fill:#fdfdfd;fill-opacity:1;fill-rule:nonzero;stroke:none;stroke-width:0.50833142;stroke-miterlimit:4;stroke-dasharray:none" d="m 698.1799,1155.0415 c 0,0.4868 -0.381,0.889 -0.84667,0.889 -0.46567,0 -0.8255,-0.4022 -0.8255,-0.889 0,-0.508 0.35983,-0.9102 0.8255,-0.9102 0.46567,0 0.84667,0.4022 0.84667,0.9102 z" id="path5652" inkscape:connector-curvature="0"/>
      </g>
    </g>
  </g>

	
	
	<metadata>
		<rdf:RDF xmlns:rdf="http://www.w3.org/1999/02/22-rdf-syntax-ns#" xmlns:rdfs="http://www.w3.org/2000/01/rdf-schema#" xmlns:dc="http://purl.org/dc/elements/1.1/">
			<rdf:Description about="https://iconscout.com/legal#licenses" dc:title="Victini, Pokemon, Cartoon, Victory, Animal" dc:description="Victini, Pokemon, Cartoon, Victory, Animal" dc:publisher="Iconscout" dc:date="2016-12-14" dc:format="image/svg+xml" dc:language="en">
				<dc:creator>
					<rdf:Bag>
						<rdf:li>Pankti Bhalodia</rdf:li>
					</rdf:Bag>
				</dc:creator>
			</rdf:Description>
		</rdf:RDF>
    </metadata></svg>
